<mxfile host="app.diagrams.net" modified="2023-12-03T18:38:01.826Z" agent="Mozilla/5.0 (Windows NT 10.0; Win64; x64) AppleWebKit/537.36 (KHTML, like Gecko) Chrome/119.0.0.0 Safari/537.36 Edg/119.0.0.0" etag="O3EaVQYMOTuwWEeAPgrz" version="22.1.5" type="device">
  <diagram name="Page-1" id="rsLaUvECgCh-haqDv0di">
    <mxGraphModel dx="1594" dy="3100" grid="1" gridSize="10" guides="1" tooltips="1" connect="1" arrows="1" fold="1" page="1" pageScale="1" pageWidth="850" pageHeight="1100" math="0" shadow="0">
      <root>
        <mxCell id="0" />
        <mxCell id="1" parent="0" />
        <UserObject label="" plantUmlData="{&quot;data&quot;:&quot;@startuml\nallowmixing\nskinparam packageStyle rectangle\n\npackage \&quot;Direct Users\&quot; {\n  package \&quot;Manager Staff\&quot; {\n    actor Manager #red\n  }\n  package \&quot;Employee\&quot; {\n    actor Seller #green\n    actor Receptionist #blue\n  }\n}\n\npackage \&quot;Indirect Users\&quot; {\n  actor Client\n}\n\nrectangle \&quot;Hotel Manager\&quot; {\n  rectangle \&quot;Phone\&quot; {\n    usecase \&quot;Book a Room\&quot; as pb\n    usecase \&quot;Cancel a Booking\&quot; as pc\n    usecase \&quot;Find empty room\&quot; as empty\n  }\n  rectangle \&quot;Transaction counter\&quot; { \n    usecase \&quot;Checkin\&quot; as checkin\n    usecase \&quot;Checkout\&quot; as checkout\n    usecase \&quot;Payment\&quot; \n    usecase \&quot;Book a room\&quot; as tcb\n    usecase \&quot;Cancel a Booking\&quot; as tcc\n    usecase \&quot;Print bill\&quot;\n  }\n  usecase \&quot;Room Manage\&quot; as rm\n  usecase \&quot;Creat Report\&quot; as cr\n}\n\npb &lt;-- Client\npc &lt;-- Client\ntcc &lt;-- Client\ntcb &lt;-- Client\ncheckin &lt;-- Client\ncheckout &lt;-- Client\n\&quot;Payment\&quot; &lt;-- Client\n\n\&quot;Print bill\&quot; .&gt; \&quot;Payment\&quot;: include\ncheckout .&gt; checkin  : include\ncheckin .&gt; tcb\n\&quot;Payment\&quot; .&gt; checkout : include\n\nManager--&gt; rm #red\nManager --&gt; cr #red\n\nSeller  --&gt; pb #green\nSeller --&gt; pc #green\npb .&gt; empty : include\n\nReceptionist  --&gt; tcb #blue\nReceptionist --&gt; tcc #blue\nReceptionist  --&gt; checkin #blue\nReceptionist  --&gt; checkout #blue\nReceptionist  --&gt; \&quot;Payment\&quot; #blue\n@enduml\n&quot;,&quot;format&quot;:&quot;svg&quot;}" id="5tBQMQgJXRLJv_Yl46K0-89">
          <mxCell style="shape=image;noLabel=1;verticalAlign=top;aspect=fixed;imageAspect=0;image=data:image/svg+xml,PD94bWwgdmVyc2lvbj0iMS4wIiBlbmNvZGluZz0idXMtYXNjaWkiIHN0YW5kYWxvbmU9Im5vIj8+PHN2ZyB4bWxucz0iaHR0cDovL3d3dy53My5vcmcvMjAwMC9zdmciIHhtbG5zOnhsaW5rPSJodHRwOi8vd3d3LnczLm9yZy8xOTk5L3hsaW5rIiBjb250ZW50U3R5bGVUeXBlPSJ0ZXh0L2NzcyIgaGVpZ2h0PSI1NDFweCIgcHJlc2VydmVBc3BlY3RSYXRpbz0ibm9uZSIgc3R5bGU9IndpZHRoOjE5ODlweDtoZWlnaHQ6NTQxcHg7YmFja2dyb3VuZDojRkZGRkZGOyIgdmVyc2lvbj0iMS4xIiB2aWV3Qm94PSIwIDAgMTk4OSA1NDEiIHdpZHRoPSIxOTg5cHgiIHpvb21BbmRQYW49Im1hZ25pZnkiPjxkZWZzLz48Zz48IS0tY2x1c3RlciBEaXJlY3QgVXNlcnMtLT48ZyBpZD0iY2x1c3Rlcl9EaXJlY3QgVXNlcnMiPjxyZWN0IGZpbGw9Im5vbmUiIGhlaWdodD0iMTg5IiByeD0iMi41IiByeT0iMi41IiBzdHlsZT0ic3Ryb2tlOiMwMDAwMDA7c3Ryb2tlLXdpZHRoOjEuNTsiIHdpZHRoPSIzNzIiIHg9IjcyNyIgeT0iNyIvPjx0ZXh0IGZpbGw9IiMwMDAwMDAiIGZvbnQtZmFtaWx5PSJzYW5zLXNlcmlmIiBmb250LXNpemU9IjE0IiBmb250LXdlaWdodD0iYm9sZCIgbGVuZ3RoQWRqdXN0PSJzcGFjaW5nIiB0ZXh0TGVuZ3RoPSI4NCIgeD0iODcxIiB5PSIyMi4yMzQ0Ij5EaXJlY3QgVXNlcnM8L3RleHQ+PC9nPjwhLS1jbHVzdGVyIE1hbmFnZXIgU3RhZmYtLT48ZyBpZD0iY2x1c3Rlcl9NYW5hZ2VyIFN0YWZmIj48cmVjdCBmaWxsPSJub25lIiBoZWlnaHQ9IjEyNCIgcng9IjIuNSIgcnk9IjIuNSIgc3R5bGU9InN0cm9rZTojMDAwMDAwO3N0cm9rZS13aWR0aDoxLjU7IiB3aWR0aD0iMTA3IiB4PSI3NTEiIHk9IjQ4Ii8+PHRleHQgZmlsbD0iIzAwMDAwMCIgZm9udC1mYW1pbHk9InNhbnMtc2VyaWYiIGZvbnQtc2l6ZT0iMTQiIGZvbnQtd2VpZ2h0PSJib2xkIiBsZW5ndGhBZGp1c3Q9InNwYWNpbmciIHRleHRMZW5ndGg9IjkxIiB4PSI3NTkiIHk9IjYzLjIzNDQiPk1hbmFnZXIgU3RhZmY8L3RleHQ+PC9nPjwhLS1jbHVzdGVyIEVtcGxveWVlLS0+PGcgaWQ9ImNsdXN0ZXJfRW1wbG95ZWUiPjxyZWN0IGZpbGw9Im5vbmUiIGhlaWdodD0iMTI0IiByeD0iMi41IiByeT0iMi41IiBzdHlsZT0ic3Ryb2tlOiMwMDAwMDA7c3Ryb2tlLXdpZHRoOjEuNTsiIHdpZHRoPSIxOTMiIHg9Ijg4MiIgeT0iNDgiLz48dGV4dCBmaWxsPSIjMDAwMDAwIiBmb250LWZhbWlseT0ic2Fucy1zZXJpZiIgZm9udC1zaXplPSIxNCIgZm9udC13ZWlnaHQ9ImJvbGQiIGxlbmd0aEFkanVzdD0ic3BhY2luZyIgdGV4dExlbmd0aD0iNTciIHg9Ijk1MCIgeT0iNjMuMjM0NCI+RW1wbG95ZWU8L3RleHQ+PC9nPjwhLS1jbHVzdGVyIEluZGlyZWN0IFVzZXJzLS0+PGcgaWQ9ImNsdXN0ZXJfSW5kaXJlY3QgVXNlcnMiPjxyZWN0IGZpbGw9Im5vbmUiIGhlaWdodD0iMTI0IiByeD0iMi41IiByeT0iMi41IiBzdHlsZT0ic3Ryb2tlOiMwMDAwMDA7c3Ryb2tlLXdpZHRoOjEuNTsiIHdpZHRoPSIxMTQiIHg9IjEzMTgiIHk9IjQxMSIvPjx0ZXh0IGZpbGw9IiMwMDAwMDAiIGZvbnQtZmFtaWx5PSJzYW5zLXNlcmlmIiBmb250LXNpemU9IjE0IiBmb250LXdlaWdodD0iYm9sZCIgbGVuZ3RoQWRqdXN0PSJzcGFjaW5nIiB0ZXh0TGVuZ3RoPSI5OCIgeD0iMTMyNiIgeT0iNDI2LjIzNDQiPkluZGlyZWN0IFVzZXJzPC90ZXh0PjwvZz48IS0tY2x1c3RlciBIb3RlbCBNYW5hZ2VyLS0+PGcgaWQ9ImNsdXN0ZXJfSG90ZWwgTWFuYWdlciI+PHJlY3QgZmlsbD0ibm9uZSIgaGVpZ2h0PSIxNDkiIHJ4PSIyLjUiIHJ5PSIyLjUiIHN0eWxlPSJzdHJva2U6IzE4MTgxODtzdHJva2Utd2lkdGg6MS4wOyIgd2lkdGg9IjE5NzYiIHg9IjciIHk9IjIyOSIvPjx0ZXh0IGZpbGw9IiMwMDAwMDAiIGZvbnQtZmFtaWx5PSJzYW5zLXNlcmlmIiBmb250LXNpemU9IjE0IiBmb250LXdlaWdodD0iYm9sZCIgbGVuZ3RoQWRqdXN0PSJzcGFjaW5nIiB0ZXh0TGVuZ3RoPSI5MSIgeD0iOTQ5LjUiIHk9IjI0NC4yMzQ0Ij5Ib3RlbCBNYW5hZ2VyPC90ZXh0PjwvZz48IS0tY2x1c3RlciBQaG9uZS0tPjxnIGlkPSJjbHVzdGVyX1Bob25lIj48cmVjdCBmaWxsPSJub25lIiBoZWlnaHQ9Ijg0IiByeD0iMi41IiByeT0iMi41IiBzdHlsZT0ic3Ryb2tlOiMxODE4MTg7c3Ryb2tlLXdpZHRoOjEuMDsiIHdpZHRoPSI1NzMiIHg9IjMyOCIgeT0iMjcwIi8+PHRleHQgZmlsbD0iIzAwMDAwMCIgZm9udC1mYW1pbHk9InNhbnMtc2VyaWYiIGZvbnQtc2l6ZT0iMTQiIGZvbnQtd2VpZ2h0PSJib2xkIiBsZW5ndGhBZGp1c3Q9InNwYWNpbmciIHRleHRMZW5ndGg9IjM1IiB4PSI1OTciIHk9IjI4NS4yMzQ0Ij5QaG9uZTwvdGV4dD48L2c+PCEtLWNsdXN0ZXIgVHJhbnNhY3Rpb24gY291bnRlci0tPjxnIGlkPSJjbHVzdGVyX1RyYW5zYWN0aW9uIGNvdW50ZXIiPjxyZWN0IGZpbGw9Im5vbmUiIGhlaWdodD0iODQiIHJ4PSIyLjUiIHJ5PSIyLjUiIHN0eWxlPSJzdHJva2U6IzE4MTgxODtzdHJva2Utd2lkdGg6MS4wOyIgd2lkdGg9IjEwMzQiIHg9IjkyNSIgeT0iMjcwIi8+PHRleHQgZmlsbD0iIzAwMDAwMCIgZm9udC1mYW1pbHk9InNhbnMtc2VyaWYiIGZvbnQtc2l6ZT0iMTQiIGZvbnQtd2VpZ2h0PSJib2xkIiBsZW5ndGhBZGp1c3Q9InNwYWNpbmciIHRleHRMZW5ndGg9IjEzMyIgeD0iMTM3NS41IiB5PSIyODUuMjM0NCI+VHJhbnNhY3Rpb24gY291bnRlcjwvdGV4dD48L2c+PCEtLWVudGl0eSBNYW5hZ2VyLS0+PGcgaWQ9ImVsZW1fTWFuYWdlciI+PGVsbGlwc2UgY3g9Ijc5MiIgY3k9Ijg5LjUiIGZpbGw9IiNGRjAwMDAiIHJ4PSI4IiByeT0iOCIgc3R5bGU9InN0cm9rZTojMTgxODE4O3N0cm9rZS13aWR0aDowLjU7Ii8+PHBhdGggZD0iTTc5Miw5Ny41IEw3OTIsMTI0LjUgTTc3OSwxMDUuNSBMODA1LDEwNS41IE03OTIsMTI0LjUgTDc3OSwxMzkuNSBNNzkyLDEyNC41IEw4MDUsMTM5LjUgIiBmaWxsPSJub25lIiBzdHlsZT0ic3Ryb2tlOiMxODE4MTg7c3Ryb2tlLXdpZHRoOjAuNTsiLz48dGV4dCBmaWxsPSIjMDAwMDAwIiBmb250LWZhbWlseT0ic2Fucy1zZXJpZiIgZm9udC1zaXplPSIxNCIgbGVuZ3RoQWRqdXN0PSJzcGFjaW5nIiB0ZXh0TGVuZ3RoPSI0OSIgeD0iNzY3LjUiIHk9IjE1NC4yMzQ0Ij5NYW5hZ2VyPC90ZXh0PjwvZz48IS0tZW50aXR5IFNlbGxlci0tPjxnIGlkPSJlbGVtX1NlbGxlciI+PGVsbGlwc2UgY3g9IjkxOSIgY3k9Ijg5LjUiIGZpbGw9IiMwMDgwMDAiIHJ4PSI4IiByeT0iOCIgc3R5bGU9InN0cm9rZTojMTgxODE4O3N0cm9rZS13aWR0aDowLjU7Ii8+PHBhdGggZD0iTTkxOSw5Ny41IEw5MTksMTI0LjUgTTkwNiwxMDUuNSBMOTMyLDEwNS41IE05MTksMTI0LjUgTDkwNiwxMzkuNSBNOTE5LDEyNC41IEw5MzIsMTM5LjUgIiBmaWxsPSJub25lIiBzdHlsZT0ic3Ryb2tlOiMxODE4MTg7c3Ryb2tlLXdpZHRoOjAuNTsiLz48dGV4dCBmaWxsPSIjMDAwMDAwIiBmb250LWZhbWlseT0ic2Fucy1zZXJpZiIgZm9udC1zaXplPSIxNCIgbGVuZ3RoQWRqdXN0PSJzcGFjaW5nIiB0ZXh0TGVuZ3RoPSI0MiIgeD0iODk4IiB5PSIxNTQuMjM0NCI+U2VsbGVyPC90ZXh0PjwvZz48IS0tZW50aXR5IFJlY2VwdGlvbmlzdC0tPjxnIGlkPSJlbGVtX1JlY2VwdGlvbmlzdCI+PGVsbGlwc2UgY3g9IjEwMTciIGN5PSI4OS41IiBmaWxsPSIjMDAwMEZGIiByeD0iOCIgcnk9IjgiIHN0eWxlPSJzdHJva2U6IzE4MTgxODtzdHJva2Utd2lkdGg6MC41OyIvPjxwYXRoIGQ9Ik0xMDE3LDk3LjUgTDEwMTcsMTI0LjUgTTEwMDQsMTA1LjUgTDEwMzAsMTA1LjUgTTEwMTcsMTI0LjUgTDEwMDQsMTM5LjUgTTEwMTcsMTI0LjUgTDEwMzAsMTM5LjUgIiBmaWxsPSJub25lIiBzdHlsZT0ic3Ryb2tlOiMxODE4MTg7c3Ryb2tlLXdpZHRoOjAuNTsiLz48dGV4dCBmaWxsPSIjMDAwMDAwIiBmb250LWZhbWlseT0ic2Fucy1zZXJpZiIgZm9udC1zaXplPSIxNCIgbGVuZ3RoQWRqdXN0PSJzcGFjaW5nIiB0ZXh0TGVuZ3RoPSI4NCIgeD0iOTc1IiB5PSIxNTQuMjM0NCI+UmVjZXB0aW9uaXN0PC90ZXh0PjwvZz48IS0tZW50aXR5IENsaWVudC0tPjxnIGlkPSJlbGVtX0NsaWVudCI+PGVsbGlwc2UgY3g9IjEzNzUiIGN5PSI0NTIuNSIgZmlsbD0iI0YxRjFGMSIgcng9IjgiIHJ5PSI4IiBzdHlsZT0ic3Ryb2tlOiMxODE4MTg7c3Ryb2tlLXdpZHRoOjAuNTsiLz48cGF0aCBkPSJNMTM3NSw0NjAuNSBMMTM3NSw0ODcuNSBNMTM2Miw0NjguNSBMMTM4OCw0NjguNSBNMTM3NSw0ODcuNSBMMTM2Miw1MDIuNSBNMTM3NSw0ODcuNSBMMTM4OCw1MDIuNSAiIGZpbGw9Im5vbmUiIHN0eWxlPSJzdHJva2U6IzE4MTgxODtzdHJva2Utd2lkdGg6MC41OyIvPjx0ZXh0IGZpbGw9IiMwMDAwMDAiIGZvbnQtZmFtaWx5PSJzYW5zLXNlcmlmIiBmb250LXNpemU9IjE0IiBsZW5ndGhBZGp1c3Q9InNwYWNpbmciIHRleHRMZW5ndGg9IjQyIiB4PSIxMzU0IiB5PSI1MTcuMjM0NCI+Q2xpZW50PC90ZXh0PjwvZz48ZyBpZD0iZWxlbV9ybSI+PGVsbGlwc2UgY3g9IjI0OC4wNTE5IiBjeT0iMzIwLjcxMDQiIGZpbGw9IiNGMUYxRjEiIHJ4PSI2MS41NTE5IiByeT0iMTQuNzEwNCIgc3R5bGU9InN0cm9rZTojMTgxODE4O3N0cm9rZS13aWR0aDowLjU7Ii8+PHRleHQgZmlsbD0iIzAwMDAwMCIgZm9udC1mYW1pbHk9InNhbnMtc2VyaWYiIGZvbnQtc2l6ZT0iMTQiIGxlbmd0aEFkanVzdD0ic3BhY2luZyIgdGV4dExlbmd0aD0iNzgiIHg9IjIwOS4wNTE5IiB5PSIzMjQuNDUyNiI+Um9vbSBNYW5hZ2U8L3RleHQ+PC9nPjxnIGlkPSJlbGVtX2NyIj48ZWxsaXBzZSBjeD0iODYuODg3OCIgY3k9IjMyMC42Nzc2IiBmaWxsPSIjRjFGMUYxIiByeD0iNjMuODg3OCIgcnk9IjE1LjE3NzYiIHN0eWxlPSJzdHJva2U6IzE4MTgxODtzdHJva2Utd2lkdGg6MC41OyIvPjx0ZXh0IGZpbGw9IiMwMDAwMDAiIGZvbnQtZmFtaWx5PSJzYW5zLXNlcmlmIiBmb250LXNpemU9IjE0IiBsZW5ndGhBZGp1c3Q9InNwYWNpbmciIHRleHRMZW5ndGg9Ijg0IiB4PSI0NC44ODc4IiB5PSIzMjQuNDE5NyI+Q3JlYXQgUmVwb3J0PC90ZXh0PjwvZz48ZyBpZD0iZWxlbV9wYiI+PGVsbGlwc2UgY3g9IjU5Mi4wNTE5IiBjeT0iMzIwLjcxMDQiIGZpbGw9IiNGMUYxRjEiIHJ4PSI2MS41NTE5IiByeT0iMTQuNzEwNCIgc3R5bGU9InN0cm9rZTojMTgxODE4O3N0cm9rZS13aWR0aDowLjU7Ii8+PHRleHQgZmlsbD0iIzAwMDAwMCIgZm9udC1mYW1pbHk9InNhbnMtc2VyaWYiIGZvbnQtc2l6ZT0iMTQiIGxlbmd0aEFkanVzdD0ic3BhY2luZyIgdGV4dExlbmd0aD0iNzgiIHg9IjU1My4wNTE5IiB5PSIzMjQuNDUyNiI+Qm9vayBhIFJvb208L3RleHQ+PC9nPjxnIGlkPSJlbGVtX3BjIj48ZWxsaXBzZSBjeD0iNDE5LjkzODQiIGN5PSIzMjAuNDg3NyIgZmlsbD0iI0YxRjFGMSIgcng9Ijc1LjQzODQiIHJ5PSIxNy40ODc3IiBzdHlsZT0ic3Ryb2tlOiMxODE4MTg7c3Ryb2tlLXdpZHRoOjAuNTsiLz48dGV4dCBmaWxsPSIjMDAwMDAwIiBmb250LWZhbWlseT0ic2Fucy1zZXJpZiIgZm9udC1zaXplPSIxNCIgbGVuZ3RoQWRqdXN0PSJzcGFjaW5nIiB0ZXh0TGVuZ3RoPSIxMTIiIHg9IjM2My45Mzg0IiB5PSIzMjQuMjI5OSI+Q2FuY2VsIGEgQm9va2luZzwvdGV4dD48L2c+PGcgaWQ9ImVsZW1fZW1wdHkiPjxlbGxpcHNlIGN4PSI4MTAuODEwNSIgY3k9IjMyMC41NjIxIiBmaWxsPSIjRjFGMUYxIiByeD0iNzMuMzEwNSIgcnk9IjE3LjA2MjEiIHN0eWxlPSJzdHJva2U6IzE4MTgxODtzdHJva2Utd2lkdGg6MC41OyIvPjx0ZXh0IGZpbGw9IiMwMDAwMDAiIGZvbnQtZmFtaWx5PSJzYW5zLXNlcmlmIiBmb250LXNpemU9IjE0IiBsZW5ndGhBZGp1c3Q9InNwYWNpbmciIHRleHRMZW5ndGg9IjEwNyIgeD0iNzU3LjMxMDUiIHk9IjMyNC4zMDQzIj5GaW5kIGVtcHR5IHJvb208L3RleHQ+PC9nPjxnIGlkPSJlbGVtX2NoZWNraW4iPjxlbGxpcHNlIGN4PSIxNzM4LjEzMzUiIGN5PSIzMjAuNTk1NiIgZmlsbD0iI0YxRjFGMSIgcng9IjQ2LjEzMzUiIHJ5PSIxMy41OTU2IiBzdHlsZT0ic3Ryb2tlOiMxODE4MTg7c3Ryb2tlLXdpZHRoOjAuNTsiLz48dGV4dCBmaWxsPSIjMDAwMDAwIiBmb250LWZhbWlseT0ic2Fucy1zZXJpZiIgZm9udC1zaXplPSIxNCIgbGVuZ3RoQWRqdXN0PSJzcGFjaW5nIiB0ZXh0TGVuZ3RoPSI0OSIgeD0iMTcxMy42MzM1IiB5PSIzMjQuMzM3NyI+Q2hlY2tpbjwvdGV4dD48L2c+PGcgaWQ9ImVsZW1fY2hlY2tvdXQiPjxlbGxpcHNlIGN4PSIxNTU3LjA4MzMiIGN5PSIzMjAuNTk1NiIgZmlsbD0iI0YxRjFGMSIgcng9IjUxLjA4MzMiIHJ5PSIxMy41OTU2IiBzdHlsZT0ic3Ryb2tlOiMxODE4MTg7c3Ryb2tlLXdpZHRoOjAuNTsiLz48dGV4dCBmaWxsPSIjMDAwMDAwIiBmb250LWZhbWlseT0ic2Fucy1zZXJpZiIgZm9udC1zaXplPSIxNCIgbGVuZ3RoQWRqdXN0PSJzcGFjaW5nIiB0ZXh0TGVuZ3RoPSI1NiIgeD0iMTUyOS4wODMzIiB5PSIzMjQuMzM3NyI+Q2hlY2tvdXQ8L3RleHQ+PC9nPjxnIGlkPSJlbGVtX1BheW1lbnQiPjxlbGxpcHNlIGN4PSIxMzc0Ljg0MDYiIGN5PSIzMjAuNTk1NiIgZmlsbD0iI0YxRjFGMSIgcng9IjQ2Ljg0MDYiIHJ5PSIxMy41OTU2IiBzdHlsZT0ic3Ryb2tlOiMxODE4MTg7c3Ryb2tlLXdpZHRoOjAuNTsiLz48dGV4dCBmaWxsPSIjMDAwMDAwIiBmb250LWZhbWlseT0ic2Fucy1zZXJpZiIgZm9udC1zaXplPSIxNCIgbGVuZ3RoQWRqdXN0PSJzcGFjaW5nIiB0ZXh0TGVuZ3RoPSI1MCIgeD0iMTM0OS44NDA2IiB5PSIzMjQuMzM3NyI+UGF5bWVudDwvdGV4dD48L2c+PGcgaWQ9ImVsZW1fdGNiIj48ZWxsaXBzZSBjeD0iMTg4MS4wNTE5IiBjeT0iMzIwLjcxMDQiIGZpbGw9IiNGMUYxRjEiIHJ4PSI2MS41NTE5IiByeT0iMTQuNzEwNCIgc3R5bGU9InN0cm9rZTojMTgxODE4O3N0cm9rZS13aWR0aDowLjU7Ii8+PHRleHQgZmlsbD0iIzAwMDAwMCIgZm9udC1mYW1pbHk9InNhbnMtc2VyaWYiIGZvbnQtc2l6ZT0iMTQiIGxlbmd0aEFkanVzdD0ic3BhY2luZyIgdGV4dExlbmd0aD0iNzgiIHg9IjE4NDIuMDUxOSIgeT0iMzI0LjQ1MjYiPkJvb2sgYSByb29tPC90ZXh0PjwvZz48ZyBpZD0iZWxlbV90Y2MiPjxlbGxpcHNlIGN4PSIxMDE2LjkzODQiIGN5PSIzMjAuNDg3NyIgZmlsbD0iI0YxRjFGMSIgcng9Ijc1LjQzODQiIHJ5PSIxNy40ODc3IiBzdHlsZT0ic3Ryb2tlOiMxODE4MTg7c3Ryb2tlLXdpZHRoOjAuNTsiLz48dGV4dCBmaWxsPSIjMDAwMDAwIiBmb250LWZhbWlseT0ic2Fucy1zZXJpZiIgZm9udC1zaXplPSIxNCIgbGVuZ3RoQWRqdXN0PSJzcGFjaW5nIiB0ZXh0TGVuZ3RoPSIxMTIiIHg9Ijk2MC45Mzg0IiB5PSIzMjQuMjI5OSI+Q2FuY2VsIGEgQm9va2luZzwvdGV4dD48L2c+PGcgaWQ9ImVsZW1fUHJpbnQgYmlsbCI+PGVsbGlwc2UgY3g9IjExODYuMDM2NyIgY3k9IjMyMC42MDczIiBmaWxsPSIjRjFGMUYxIiByeD0iNTguNTM2NyIgcnk9IjE0LjEwNzMiIHN0eWxlPSJzdHJva2U6IzE4MTgxODtzdHJva2Utd2lkdGg6MC41OyIvPjx0ZXh0IGZpbGw9IiMwMDAwMDAiIGZvbnQtZmFtaWx5PSJzYW5zLXNlcmlmIiBmb250LXNpemU9IjE0IiBsZW5ndGhBZGp1c3Q9InNwYWNpbmciIHRleHRMZW5ndGg9IjcwIiB4PSIxMTUxLjAzNjciIHk9IjMyNC4zNDk1Ij5QcmludCBiaWxsPC90ZXh0PjwvZz48IS0tcmV2ZXJzZSBsaW5rIHBiIHRvIENsaWVudC0tPjxnIGlkPSJsaW5rX3BiX0NsaWVudCI+PHBhdGggY29kZUxpbmU9IjM2IiBkPSJNNjE2LjksMzM3LjEyIEM2NDEuOTcsMzUyLjA5IDY4Mi4yNCwzNzQuMTEgNzIwLDM4NiBDOTYwLjgyLDQ2MS44MiAxMjcwLjg0LDQ3Ny4xMSAxMzUzLjgxLDQ3OS45MSAiIGZpbGw9Im5vbmUiIGlkPSJwYi1iYWNrdG8tQ2xpZW50IiBzdHlsZT0ic3Ryb2tlOiMxODE4MTg7c3Ryb2tlLXdpZHRoOjEuMDsiLz48cG9seWdvbiBmaWxsPSIjMTgxODE4IiBwb2ludHM9IjYxMi40LDMzNC40MSw2MTguMDM5NywzNDIuNDg0Myw2MTYuNjgxMiwzMzYuOTkzLDYyMi4xNzI1LDMzNS42MzQ0LDYxMi40LDMzNC40MSIgc3R5bGU9InN0cm9rZTojMTgxODE4O3N0cm9rZS13aWR0aDoxLjA7Ii8+PC9nPjwhLS1yZXZlcnNlIGxpbmsgcGMgdG8gQ2xpZW50LS0+PGcgaWQ9ImxpbmtfcGNfQ2xpZW50Ij48cGF0aCBjb2RlTGluZT0iMzciIGQ9Ik00NDEuMjEsMzQwLjg3IEM0NTksMzU1LjkgNDg1Ljc5LDM3NS44MyA1MTMsMzg2IEM2NzQuNDYsNDQ2LjM3IDEyMzYuODIsNDc0LjM1IDEzNTMuNjQsNDc5LjU4ICIgZmlsbD0ibm9uZSIgaWQ9InBjLWJhY2t0by1DbGllbnQiIHN0eWxlPSJzdHJva2U6IzE4MTgxODtzdHJva2Utd2lkdGg6MS4wOyIvPjxwb2x5Z29uIGZpbGw9IiMxODE4MTgiIHBvaW50cz0iNDM3LjMzLDMzNy41NSw0NDEuNTYwMSwzNDYuNDQ0MSw0NDEuMTI2MywzNDAuODA0LDQ0Ni43NjY1LDM0MC4zNzAxLDQzNy4zMywzMzcuNTUiIHN0eWxlPSJzdHJva2U6IzE4MTgxODtzdHJva2Utd2lkdGg6MS4wOyIvPjwvZz48IS0tcmV2ZXJzZSBsaW5rIHRjYyB0byBDbGllbnQtLT48ZyBpZD0ibGlua190Y2NfQ2xpZW50Ij48cGF0aCBjb2RlTGluZT0iMzgiIGQ9Ik0xMDQwLjY5LDM0MC41NSBDMTA1OC44NSwzNTQuNSAxMDg0Ljk4LDM3My4xNSAxMTEwLDM4NiBDMTE5Ni4yNSw0MzAuMyAxMzA4LjA3LDQ2Mi43MSAxMzUzLjk1LDQ3NS4wNCAiIGZpbGw9Im5vbmUiIGlkPSJ0Y2MtYmFja3RvLUNsaWVudCIgc3R5bGU9InN0cm9rZTojMTgxODE4O3N0cm9rZS13aWR0aDoxLjA7Ii8+PHBvbHlnb24gZmlsbD0iIzE4MTgxOCIgcG9pbnRzPSIxMDM2LjcxLDMzNy40OCwxMDQxLjM4NjcsMzQ2LjE0NzcsMTA0MC42NjY3LDM0MC41MzY4LDEwNDYuMjc3NiwzMzkuODE2OSwxMDM2LjcxLDMzNy40OCIgc3R5bGU9InN0cm9rZTojMTgxODE4O3N0cm9rZS13aWR0aDoxLjA7Ii8+PC9nPjwhLS1yZXZlcnNlIGxpbmsgdGNiIHRvIENsaWVudC0tPjxnIGlkPSJsaW5rX3RjYl9DbGllbnQiPjxwYXRoIGNvZGVMaW5lPSIzOSIgZD0iTTE4NjUuMDQsMzM4LjQxIEMxODUwLjEzLDM1My4yIDE4MjYuNTMsMzc0LjExIDE4MDIsMzg2IEMxNjU3LjQ5LDQ1Ni4wMyAxNDYwLjMxLDQ3NC44NSAxMzk2LjEyLDQ3OS4yNyAiIGZpbGw9Im5vbmUiIGlkPSJ0Y2ItYmFja3RvLUNsaWVudCIgc3R5bGU9InN0cm9rZTojMTgxODE4O3N0cm9rZS13aWR0aDoxLjA7Ii8+PHBvbHlnb24gZmlsbD0iIzE4MTgxOCIgcG9pbnRzPSIxODY4LjY0LDMzNC43OSwxODU5LjQ1NDgsMzM4LjM0NDEsMTg2NS4xMTE2LDMzOC4zMzI3LDE4NjUuMTIzLDM0My45ODk1LDE4NjguNjQsMzM0Ljc5IiBzdHlsZT0ic3Ryb2tlOiMxODE4MTg7c3Ryb2tlLXdpZHRoOjEuMDsiLz48L2c+PCEtLXJldmVyc2UgbGluayBjaGVja2luIHRvIENsaWVudC0tPjxnIGlkPSJsaW5rX2NoZWNraW5fQ2xpZW50Ij48cGF0aCBjb2RlTGluZT0iNDAiIGQ9Ik0xNzE1LjYsMzM1Ljg1IEMxNjkzLjQsMzQ5LjcyIDE2NTguMTUsMzcwLjgyIDE2MjYsMzg2IEMxNTQzLjQ4LDQyNC45OCAxNDQwLjE5LDQ1OS42NyAxMzk2LjMsNDczLjc4ICIgZmlsbD0ibm9uZSIgaWQ9ImNoZWNraW4tYmFja3RvLUNsaWVudCIgc3R5bGU9InN0cm9rZTojMTgxODE4O3N0cm9rZS13aWR0aDoxLjA7Ii8+PHBvbHlnb24gZmlsbD0iIzE4MTgxOCIgcG9pbnRzPSIxNzE5Ljg3LDMzMy4xNywxNzEwLjEyMTQsMzM0LjU3MTYsMTcxNS42MzY0LDMzNS44MzAzLDE3MTQuMzc3OCwzNDEuMzQ1MywxNzE5Ljg3LDMzMy4xNyIgc3R5bGU9InN0cm9rZTojMTgxODE4O3N0cm9rZS13aWR0aDoxLjA7Ii8+PC9nPjwhLS1yZXZlcnNlIGxpbmsgY2hlY2tvdXQgdG8gQ2xpZW50LS0+PGcgaWQ9ImxpbmtfY2hlY2tvdXRfQ2xpZW50Ij48cGF0aCBjb2RlTGluZT0iNDEiIGQ9Ik0xNTM5LjEsMzM3LjE0IEMxNTA1LjMxLDM2Ni42NiAxNDMyLjI4LDQzMC40NiAxMzk2LjE0LDQ2Mi4wMyAiIGZpbGw9Im5vbmUiIGlkPSJjaGVja291dC1iYWNrdG8tQ2xpZW50IiBzdHlsZT0ic3Ryb2tlOiMxODE4MTg7c3Ryb2tlLXdpZHRoOjEuMDsiLz48cG9seWdvbiBmaWxsPSIjMTgxODE4IiBwb2ludHM9IjE1NDMuMDIsMzMzLjcxLDE1MzMuNjEyOCwzMzYuNjI2MiwxNTM5LjI1NzEsMzM3LjAwMjUsMTUzOC44ODA4LDM0Mi42NDY4LDE1NDMuMDIsMzMzLjcxIiBzdHlsZT0ic3Ryb2tlOiMxODE4MTg7c3Ryb2tlLXdpZHRoOjEuMDsiLz48L2c+PCEtLXJldmVyc2UgbGluayBQYXltZW50IHRvIENsaWVudC0tPjxnIGlkPSJsaW5rX1BheW1lbnRfQ2xpZW50Ij48cGF0aCBjb2RlTGluZT0iNDIiIGQ9Ik0xMzc1LDMzOS4yOCBDMTM3NSwzNjQuNDUgMTM3NSw0MTEuMDcgMTM3NSw0NDMuODQgIiBmaWxsPSJub25lIiBpZD0iUGF5bWVudC1iYWNrdG8tQ2xpZW50IiBzdHlsZT0ic3Ryb2tlOiMxODE4MTg7c3Ryb2tlLXdpZHRoOjEuMDsiLz48cG9seWdvbiBmaWxsPSIjMTgxODE4IiBwb2ludHM9IjEzNzUsMzM0LjI0LDEzNzEsMzQzLjI0LDEzNzUsMzM5LjI0LDEzNzksMzQzLjI0LDEzNzUsMzM0LjI0IiBzdHlsZT0ic3Ryb2tlOiMxODE4MTg7c3Ryb2tlLXdpZHRoOjEuMDsiLz48L2c+PCEtLWxpbmsgUHJpbnQgYmlsbCB0byBQYXltZW50LS0+PGcgaWQ9ImxpbmtfUHJpbnQgYmlsbF9QYXltZW50Ij48cGF0aCBjb2RlTGluZT0iNDQiIGQ9Ik0xMjQ0LjUxLDMyMC41IEMxMjY5LjUxLDMyMC41IDEyOTguNDYsMzIwLjUgMTMyMi43MywzMjAuNSAiIGZpbGw9Im5vbmUiIGlkPSJQcmludCBiaWxsLXRvLVBheW1lbnQiIHN0eWxlPSJzdHJva2U6IzE4MTgxODtzdHJva2Utd2lkdGg6MS4wO3N0cm9rZS1kYXNoYXJyYXk6Ny4wLDcuMDsiLz48cG9seWdvbiBmaWxsPSIjMTgxODE4IiBwb2ludHM9IjEzMjcuODMsMzIwLjUsMTMxOC44MywzMTYuNSwxMzIyLjgzLDMyMC41LDEzMTguODMsMzI0LjUsMTMyNy44MywzMjAuNSIgc3R5bGU9InN0cm9rZTojMTgxODE4O3N0cm9rZS13aWR0aDoxLjA7Ii8+PHRleHQgZmlsbD0iIzAwMDAwMCIgZm9udC1mYW1pbHk9InNhbnMtc2VyaWYiIGZvbnQtc2l6ZT0iMTMiIGxlbmd0aEFkanVzdD0ic3BhY2luZyIgdGV4dExlbmd0aD0iNDciIHg9IjEyNjIuNzUiIHk9IjMxNS43ODkxIj5pbmNsdWRlPC90ZXh0PjwvZz48IS0tbGluayBjaGVja291dCB0byBjaGVja2luLS0+PGcgaWQ9ImxpbmtfY2hlY2tvdXRfY2hlY2tpbiI+PHBhdGggY29kZUxpbmU9IjQ1IiBkPSJNMTYwOC4zOCwzMjAuNSBDMTYzMi44NywzMjAuNSAxNjYyLjEsMzIwLjUgMTY4Ni41OSwzMjAuNSAiIGZpbGw9Im5vbmUiIGlkPSJjaGVja291dC10by1jaGVja2luIiBzdHlsZT0ic3Ryb2tlOiMxODE4MTg7c3Ryb2tlLXdpZHRoOjEuMDtzdHJva2UtZGFzaGFycmF5OjcuMCw3LjA7Ii8+PHBvbHlnb24gZmlsbD0iIzE4MTgxOCIgcG9pbnRzPSIxNjkxLjc0LDMyMC41LDE2ODIuNzQsMzE2LjUsMTY4Ni43NCwzMjAuNSwxNjgyLjc0LDMyNC41LDE2OTEuNzQsMzIwLjUiIHN0eWxlPSJzdHJva2U6IzE4MTgxODtzdHJva2Utd2lkdGg6MS4wOyIvPjx0ZXh0IGZpbGw9IiMwMDAwMDAiIGZvbnQtZmFtaWx5PSJzYW5zLXNlcmlmIiBmb250LXNpemU9IjEzIiBsZW5ndGhBZGp1c3Q9InNwYWNpbmciIHRleHRMZW5ndGg9IjQ3IiB4PSIxNjI2LjUiIHk9IjMxNS43ODkxIj5pbmNsdWRlPC90ZXh0PjwvZz48IS0tbGluayBjaGVja2luIHRvIHRjYi0tPjxnIGlkPSJsaW5rX2NoZWNraW5fdGNiIj48cGF0aCBjb2RlTGluZT0iNDYiIGQ9Ik0xNzg0LjA4LDMyMC41IEMxNzk0LjA4LDMyMC41IDE4MDQuMDcsMzIwLjUgMTgxNC4wNywzMjAuNSAiIGZpbGw9Im5vbmUiIGlkPSJjaGVja2luLXRvLXRjYiIgc3R5bGU9InN0cm9rZTojMTgxODE4O3N0cm9rZS13aWR0aDoxLjA7c3Ryb2tlLWRhc2hhcnJheTo3LjAsNy4wOyIvPjxwb2x5Z29uIGZpbGw9IiMxODE4MTgiIHBvaW50cz0iMTgxOS4yOSwzMjAuNSwxODEwLjI5LDMxNi41LDE4MTQuMjksMzIwLjUsMTgxMC4yOSwzMjQuNSwxODE5LjI5LDMyMC41IiBzdHlsZT0ic3Ryb2tlOiMxODE4MTg7c3Ryb2tlLXdpZHRoOjEuMDsiLz48L2c+PCEtLWxpbmsgUGF5bWVudCB0byBjaGVja291dC0tPjxnIGlkPSJsaW5rX1BheW1lbnRfY2hlY2tvdXQiPjxwYXRoIGNvZGVMaW5lPSI0NyIgZD0iTTE0MjIuMzQsMzIwLjUgQzE0NDYuMjQsMzIwLjUgMTQ3NS4zOSwzMjAuNSAxNTAwLjQ2LDMyMC41ICIgZmlsbD0ibm9uZSIgaWQ9IlBheW1lbnQtdG8tY2hlY2tvdXQiIHN0eWxlPSJzdHJva2U6IzE4MTgxODtzdHJva2Utd2lkdGg6MS4wO3N0cm9rZS1kYXNoYXJyYXk6Ny4wLDcuMDsiLz48cG9seWdvbiBmaWxsPSIjMTgxODE4IiBwb2ludHM9IjE1MDUuNzQsMzIwLjUsMTQ5Ni43NCwzMTYuNSwxNTAwLjc0LDMyMC41LDE0OTYuNzQsMzI0LjUsMTUwNS43NCwzMjAuNSIgc3R5bGU9InN0cm9rZTojMTgxODE4O3N0cm9rZS13aWR0aDoxLjA7Ii8+PHRleHQgZmlsbD0iIzAwMDAwMCIgZm9udC1mYW1pbHk9InNhbnMtc2VyaWYiIGZvbnQtc2l6ZT0iMTMiIGxlbmd0aEFkanVzdD0ic3BhY2luZyIgdGV4dExlbmd0aD0iNDciIHg9IjE0NDAuNSIgeT0iMzE1Ljc4OTEiPmluY2x1ZGU8L3RleHQ+PC9nPjwhLS1saW5rIE1hbmFnZXIgdG8gcm0tLT48ZyBpZD0ibGlua19NYW5hZ2VyX3JtIj48cGF0aCBjb2RlTGluZT0iNDkiIGQ9Ik03NjcuMjQsMTE5LjM1IEM2OTQuMjYsMTIwLjAyIDQ3NS44LDEyOS45NyAzMjgsMjIxIEMyOTUuNiwyNDAuOTUgMjcwLjUxLDI3OC44MiAyNTcuNjEsMzAxLjM0ICIgZmlsbD0ibm9uZSIgaWQ9Ik1hbmFnZXItdG8tcm0iIHN0eWxlPSJzdHJva2U6I0ZGMDAwMDtzdHJva2Utd2lkdGg6MS4wOyIvPjxwb2x5Z29uIGZpbGw9IiNGRjAwMDAiIHBvaW50cz0iMjU1LjA0LDMwNS45LDI2Mi45MzA0LDMwMC4wMDU4LDI1Ny40ODUyLDMwMS41Mzg3LDI1NS45NTIzLDI5Ni4wOTM1LDI1NS4wNCwzMDUuOSIgc3R5bGU9InN0cm9rZTojRkYwMDAwO3N0cm9rZS13aWR0aDoxLjA7Ii8+PC9nPjwhLS1saW5rIE1hbmFnZXIgdG8gY3ItLT48ZyBpZD0ibGlua19NYW5hZ2VyX2NyIj48cGF0aCBjb2RlTGluZT0iNTAiIGQ9Ik03NjcuMTksMTIxLjIzIEM2NjQuNjgsMTI4LjcyIDI3NC41LDE2MC43MyAxNjksMjIxIEMxMzUuNjcsMjQwLjA0IDExMC4wMywyNzguMTQgOTYuODQsMzAwLjk4ICIgZmlsbD0ibm9uZSIgaWQ9Ik1hbmFnZXItdG8tY3IiIHN0eWxlPSJzdHJva2U6I0ZGMDAwMDtzdHJva2Utd2lkdGg6MS4wOyIvPjxwb2x5Z29uIGZpbGw9IiNGRjAwMDAiIHBvaW50cz0iOTQuMzcsMzA1LjMzLDEwMi4yODMzLDI5OS40NjY2LDk2LjgzMjIsMzAwLjk3ODMsOTUuMzIwNSwyOTUuNTI3MSw5NC4zNywzMDUuMzMiIHN0eWxlPSJzdHJva2U6I0ZGMDAwMDtzdHJva2Utd2lkdGg6MS4wOyIvPjwvZz48IS0tbGluayBTZWxsZXIgdG8gcGItLT48ZyBpZD0ibGlua19TZWxsZXJfcGIiPjxwYXRoIGNvZGVMaW5lPSI1MiIgZD0iTTg5Ny44NCwxNDguMTcgQzg4Mi4xNSwxNjcuMjEgODU5LjAzLDE5MS4wMSA4MzMsMjA0IEM3ODcuNTYsMjI2LjY4IDc2Ni43MywyMDEuMSA3MjAsMjIxIEM2NzQuNjQsMjQwLjMyIDYzMS4yMSwyNzkuNTcgNjA4LjQ1LDMwMi4yNSAiIGZpbGw9Im5vbmUiIGlkPSJTZWxsZXItdG8tcGIiIHN0eWxlPSJzdHJva2U6IzAwODAwMDtzdHJva2Utd2lkdGg6MS4wOyIvPjxwb2x5Z29uIGZpbGw9IiMwMDgwMDAiIHBvaW50cz0iNjA0LjcxLDMwNi4wMiw2MTMuODg4LDMwMi40NDczLDYwOC4yMzEyLDMwMi40NzAyLDYwOC4yMDgzLDI5Ni44MTM0LDYwNC43MSwzMDYuMDIiIHN0eWxlPSJzdHJva2U6IzAwODAwMDtzdHJva2Utd2lkdGg6MS4wOyIvPjwvZz48IS0tbGluayBTZWxsZXIgdG8gcGMtLT48ZyBpZD0ibGlua19TZWxsZXJfcGMiPjxwYXRoIGNvZGVMaW5lPSI1MyIgZD0iTTg5Ny44OCwxNDkuMzkgQzg4Mi4zNiwxNjguNzEgODU5LjQ0LDE5Mi4zNiA4MzMsMjA0IEM4MDAuNDEsMjE4LjM1IDU0NS4zMSwyMDYuMDQgNTEzLDIyMSBDNDc3LjA0LDIzNy42NSA0NDguMTIsMjc1LjA2IDQzMi41NiwyOTguNjggIiBmaWxsPSJub25lIiBpZD0iU2VsbGVyLXRvLXBjIiBzdHlsZT0ic3Ryb2tlOiMwMDgwMDA7c3Ryb2tlLXdpZHRoOjEuMDsiLz48cG9seWdvbiBmaWxsPSIjMDA4MDAwIiBwb2ludHM9IjQyOS44MSwzMDIuOTMsNDM4LjA1NDUsMjk3LjU0MjIsNDMyLjUyMzksMjk4LjczMDYsNDMxLjMzNTUsMjkzLjIsNDI5LjgxLDMwMi45MyIgc3R5bGU9InN0cm9rZTojMDA4MDAwO3N0cm9rZS13aWR0aDoxLjA7Ii8+PC9nPjwhLS1saW5rIHBiIHRvIGVtcHR5LS0+PGcgaWQ9ImxpbmtfcGJfZW1wdHkiPjxwYXRoIGNvZGVMaW5lPSI1NCIgZD0iTTY1My41OSwzMjAuNSBDNjc4LjAyLDMyMC41IDcwNi40MiwzMjAuNSA3MzIuMzEsMzIwLjUgIiBmaWxsPSJub25lIiBpZD0icGItdG8tZW1wdHkiIHN0eWxlPSJzdHJva2U6IzE4MTgxODtzdHJva2Utd2lkdGg6MS4wO3N0cm9rZS1kYXNoYXJyYXk6Ny4wLDcuMDsiLz48cG9seWdvbiBmaWxsPSIjMTgxODE4IiBwb2ludHM9IjczNy40NiwzMjAuNSw3MjguNDcxNSwzMTYuNDc0Myw3MzIuNDYsMzIwLjQ4NTcsNzI4LjQ0ODYsMzI0LjQ3NDMsNzM3LjQ2LDMyMC41IiBzdHlsZT0ic3Ryb2tlOiMxODE4MTg7c3Ryb2tlLXdpZHRoOjEuMDsiLz48dGV4dCBmaWxsPSIjMDAwMDAwIiBmb250LWZhbWlseT0ic2Fucy1zZXJpZiIgZm9udC1zaXplPSIxMyIgbGVuZ3RoQWRqdXN0PSJzcGFjaW5nIiB0ZXh0TGVuZ3RoPSI0NyIgeD0iNjcyIiB5PSIzMTUuNzg5MSI+aW5jbHVkZTwvdGV4dD48L2c+PCEtLWxpbmsgUmVjZXB0aW9uaXN0IHRvIHRjYi0tPjxnIGlkPSJsaW5rX1JlY2VwdGlvbmlzdF90Y2IiPjxwYXRoIGNvZGVMaW5lPSI1NiIgZD0iTTEwNTkuMDMsMTIwLjg0IEMxMjAyLjcxLDEyNi4wMyAxNjcyLjYsMTQ4LjMzIDE4MDIsMjIxIEMxODM1LjE5LDIzOS42NCAxODU5LjcsMjc4LjMxIDE4NzIuMDQsMzAxLjI3ICIgZmlsbD0ibm9uZSIgaWQ9IlJlY2VwdGlvbmlzdC10by10Y2IiIHN0eWxlPSJzdHJva2U6IzAwMDBGRjtzdHJva2Utd2lkdGg6MS4wOyIvPjxwb2x5Z29uIGZpbGw9IiMwMDAwRkYiIHBvaW50cz0iMTg3NC40OCwzMDUuOTEsMTg3My44MTg4LDI5Ni4wODM0LDE4NzIuMTQ3MSwzMDEuNDg3NiwxODY2Ljc0MjksMjk5LjgxNTksMTg3NC40OCwzMDUuOTEiIHN0eWxlPSJzdHJva2U6IzAwMDBGRjtzdHJva2Utd2lkdGg6MS4wOyIvPjwvZz48IS0tbGluayBSZWNlcHRpb25pc3QgdG8gdGNjLS0+PGcgaWQ9ImxpbmtfUmVjZXB0aW9uaXN0X3RjYyI+PHBhdGggY29kZUxpbmU9IjU3IiBkPSJNMTAxNywxNTYuMTggQzEwMTcsMTk3LjUgMTAxNywyNjMuMzIgMTAxNywyOTcuNDEgIiBmaWxsPSJub25lIiBpZD0iUmVjZXB0aW9uaXN0LXRvLXRjYyIgc3R5bGU9InN0cm9rZTojMDAwMEZGO3N0cm9rZS13aWR0aDoxLjA7Ii8+PHBvbHlnb24gZmlsbD0iIzAwMDBGRiIgcG9pbnRzPSIxMDE3LDMwMi42LDEwMjEsMjkzLjYsMTAxNywyOTcuNiwxMDEzLDI5My42LDEwMTcsMzAyLjYiIHN0eWxlPSJzdHJva2U6IzAwMDBGRjtzdHJva2Utd2lkdGg6MS4wOyIvPjwvZz48IS0tbGluayBSZWNlcHRpb25pc3QgdG8gY2hlY2tpbi0tPjxnIGlkPSJsaW5rX1JlY2VwdGlvbmlzdF9jaGVja2luIj48cGF0aCBjb2RlTGluZT0iNTgiIGQ9Ik0xMDU5LjIzLDExOC43NSBDMTE2MS42NywxMTguNTQgMTQyOS40NCwxMjcuNjggMTYyNiwyMjEgQzE2NjcuNjIsMjQwLjc2IDE3MDUuNDksMjgwLjYzIDE3MjQuNzIsMzAzLjEyICIgZmlsbD0ibm9uZSIgaWQ9IlJlY2VwdGlvbmlzdC10by1jaGVja2luIiBzdHlsZT0ic3Ryb2tlOiMwMDAwRkY7c3Ryb2tlLXdpZHRoOjEuMDsiLz48cG9seWdvbiBmaWxsPSIjMDAwMEZGIiBwb2ludHM9IjE3MjguMDksMzA3LjEsMTcyNS4zNDkyLDI5Ny42NDAyLDE3MjQuODY4LDMwMy4yNzY2LDE3MTkuMjMxNiwzMDIuNzk1NCwxNzI4LjA5LDMwNy4xIiBzdHlsZT0ic3Ryb2tlOiMwMDAwRkY7c3Ryb2tlLXdpZHRoOjEuMDsiLz48L2c+PCEtLWxpbmsgUmVjZXB0aW9uaXN0IHRvIGNoZWNrb3V0LS0+PGcgaWQ9ImxpbmtfUmVjZXB0aW9uaXN0X2NoZWNrb3V0Ij48cGF0aCBjb2RlTGluZT0iNTkiIGQ9Ik0xMDU5LjEzLDEyMy4xNCBDMTEzNy44LDEzMS4yOSAxMzEwLjczLDE1NS43MiAxNDQwLDIyMSBDMTQ4MS45NSwyNDIuMTggMTUyMS44MiwyODEuMTYgMTU0Mi40MywzMDMuMiAiIGZpbGw9Im5vbmUiIGlkPSJSZWNlcHRpb25pc3QtdG8tY2hlY2tvdXQiIHN0eWxlPSJzdHJva2U6IzAwMDBGRjtzdHJva2Utd2lkdGg6MS4wOyIvPjxwb2x5Z29uIGZpbGw9IiMwMDAwRkYiIHBvaW50cz0iMTU0Ni4wNSwzMDcuMTEsMTU0Mi44Njk2LDI5Ny43ODg4LDE1NDIuNjUyNywzMDMuNDQxNSwxNTM3LDMwMy4yMjQ1LDE1NDYuMDUsMzA3LjExIiBzdHlsZT0ic3Ryb2tlOiMwMDAwRkY7c3Ryb2tlLXdpZHRoOjEuMDsiLz48L2c+PCEtLWxpbmsgUmVjZXB0aW9uaXN0IHRvIFBheW1lbnQtLT48ZyBpZD0ibGlua19SZWNlcHRpb25pc3RfUGF5bWVudCI+PHBhdGggY29kZUxpbmU9IjYwIiBkPSJNMTA1OS4yOSwxMzIuMzUgQzExMDkuNzcsMTQ4LjcyIDExOTUuNjcsMTc5Ljg5IDEyNjIsMjIxIEMxMzAwLjczLDI0NS4wMSAxMzM5LjM1LDI4Mi4yNiAxMzU5Ljg4LDMwMy40ICIgZmlsbD0ibm9uZSIgaWQ9IlJlY2VwdGlvbmlzdC10by1QYXltZW50IiBzdHlsZT0ic3Ryb2tlOiMwMDAwRkY7c3Ryb2tlLXdpZHRoOjEuMDsiLz48cG9seWdvbiBmaWxsPSIjMDAwMEZGIiBwb2ludHM9IjEzNjMuNSwzMDcuMTUsMTM2MC4xMzIyLDI5Ny44OTQ5LDEzNjAuMDI5MywzMDMuNTUwOCwxMzU0LjM3MzQsMzAzLjQ0NzksMTM2My41LDMwNy4xNSIgc3R5bGU9InN0cm9rZTojMDAwMEZGO3N0cm9rZS13aWR0aDoxLjA7Ii8+PC9nPjwhLS1TUkM9W1pMRkJKaUNtNEJwZEFyUlhOM3UwOEd1SzQxb0dBV2VWaURxa25RZlpIdXVaZzEzX3BsZ0huMmE1U01lekMtbFQ2TVRIUV9sVWcwemJUYk10THdQNVhtc3FJN2xTeVRlVkQ4RFp5Y1hzY2dpZ3VyM1ZnODMySXlVa2ctNnAwWFlmSHBKb3dzM2p5VktyU0cxOHRaZU9nM0Y3TXU2X29oQlJmak5zbTNvbE1CRk1lTTNkYzRzMUZwNW53dktyZ2xEbWpqNHpuX2stWVg0VnBGUjdhQWJ1Z0hLUjd5SVpEUVpsaE1Teko5WksxUmp3aXNPU2hVLU9pMUZxc2plejgzblBzekkwN1JJUkVSejRHdDhmR1gxQW1hYjRTejZUQ2JsV2ZsSzdTQ0Q1eVBXSkFnUHVUY1d3eUkyLVdNbmxWOW1LWmZnLUNLY3BVMC1iX29TNGpsVUpHV3Zwb0dlRlpLSEttcWNfdXZZVV9jRk9xdjdaYkxGNm1xUGZOTVVGOG5NWXA4eUdRcnJKaWFsN3dFTmpNLWxvejJ1LSAtR09rNXVsWE1MaWdKejl5VmZuZlNwdV84MGNhbkFPeTJoMGdWUzN2clBKUTFJWDNral9vVDlkR0dveXVlV0tJRGFHdmpIZGFlTklJTF9kaE4yb2s5OVlxSFNEQTFPcG9QYkx2UW84ZXVVSmpvTVc0UUcyNWJjUmZ5b2l3cFZPaGJlSmFxZ0JEazRKSEFJaERiMnQtb0dVUmxtY2NLQUJZNm0wMF0tLT48L2c+PC9zdmc+;flipH=0;flipV=0;" vertex="1" parent="1">
            <mxGeometry x="370" y="-190" width="1360.31" height="370" as="geometry" />
          </mxCell>
        </UserObject>
        <UserObject label="" plantUmlData="{&quot;data&quot;:&quot;\npackage \&quot;Users\&quot; {\n  class HotelStaff\n  class Receptionist\n  class SalesStaff\n  class Manager\n}\n\npackage \&quot;Entities\&quot; {\n  class Hotel {\n    - name: String\n    - address: String\n    - starRating: int\n    - description: String\n    - images: List&lt;String&gt;\n  }\n\n  class Room {\n    - roomNumber: String\n    - roomType: String\n    - basePrice: double\n    - services: List&lt;String&gt;\n    - description: String\n    - isBooked: boolean\n  }\n\n  class Customer {\n    - id: String\n    - idType: String\n    - fullName: String\n    - address: String\n    - phoneNumber: String\n    - specialRequests: List&lt;String&gt;\n    - bookings: List&lt;Booking&gt;\n  }\n\n  class Booking {\n    - room: Room\n    - customer: Customer\n    - checkInDate: Date\n    - checkOutDate: Date\n    - totalAmount: double\n    - servicesCharged: List&lt;ServiceCharge&gt;\n    - paymentHistory: List&lt;Payment&gt;\n  }\n\n  class ServiceCharge {\n    - serviceName: String\n    - unit: String\n    - unitPrice: double\n    - quantity: int\n    - totalAmount: double\n  }\n\n  class Payment {\n    - date: Date\n    - amount: double\n  }\n}\n\nclass Blacklist {\n  - customerId: String\n  - cancelDate: Date\n}\n\nclass Cancellation {\n  - booking: Booking\n  - cancelDate: Date\n}\n\nclass ReportManager {\n  + generateRevenueReportByTime()\n  + generateRevenueReportByRoom()\n  + generateRevenueReportByRoomType()\n  + generateRoomOccupancyReportByTime()\n  + generateRoomOccupancyReportByRoom()\n  + generateRoomOccupancyReportByRoomType()\n  + generateCustomerBookingReportByTime()\n  + generateCustomerBookingReportBySource()\n}\n\nHotelStaff --&gt; Receptionist\nHotelStaff --&gt; SalesStaff\nHotelStaff --&gt; Manager\n\nReceptionist ..&gt; Hotel : manages\nSalesStaff ..&gt; Hotel : manages\nManager ..&gt; Hotel : manages\nReceptionist ..&gt; Room : searches\nReceptionist ..&gt; Booking : creates, updates, deletes\nReceptionist ..&gt; Customer : manages\nReceptionist ..&gt; Payment : generates invoice\nReceptionist --&gt; Cancellation : processes cancellations\nReceptionist --&gt; Blacklist : manages blacklisted customers\n\nSalesStaff ..&gt; Room : searches, books\nSalesStaff ..&gt; Customer : manages\n\nManager --&gt; Hotel : manages\nManager --&gt; Room : adds, updates, deletes\nManager --&gt; ReportManager : manages reports\n@enduml&quot;,&quot;format&quot;:&quot;svg&quot;}" id="5tBQMQgJXRLJv_Yl46K0-90">
          <mxCell style="shape=image;noLabel=1;verticalAlign=top;aspect=fixed;imageAspect=0;image=data:image/svg+xml,PD94bWwgdmVyc2lvbj0iMS4wIiBlbmNvZGluZz0idXMtYXNjaWkiIHN0YW5kYWxvbmU9Im5vIj8+PHN2ZyB4bWxucz0iaHR0cDovL3d3dy53My5vcmcvMjAwMC9zdmciIHhtbG5zOnhsaW5rPSJodHRwOi8vd3d3LnczLm9yZy8xOTk5L3hsaW5rIiBjb250ZW50U3R5bGVUeXBlPSJ0ZXh0L2NzcyIgaGVpZ2h0PSI0NjhweCIgcHJlc2VydmVBc3BlY3RSYXRpbz0ibm9uZSIgc3R5bGU9IndpZHRoOjIwNTdweDtoZWlnaHQ6NDY4cHg7YmFja2dyb3VuZDojRkZGRkZGOyIgdmVyc2lvbj0iMS4xIiB2aWV3Qm94PSIwIDAgMjA1NyA0NjgiIHdpZHRoPSIyMDU3cHgiIHpvb21BbmRQYW49Im1hZ25pZnkiPjxkZWZzLz48Zz48IS0tY2x1c3RlciBVc2Vycy0tPjxnIGlkPSJjbHVzdGVyX1VzZXJzIj48cGF0aCBkPSJNMTAwOCw2IEwxMDQ0LDYgQTMuNzUsMy43NSAwIDAgMSAxMDQ2LjUsOC41IEwxMDUzLjUsMjYuOTg0NCBMMTQwNSwyNi45ODQ0IEEyLjUsMi41IDAgMCAxIDE0MDcuNSwyOS40ODQ0IEwxNDA3LjUsMjA5LjUgQTIuNSwyLjUgMCAwIDEgMTQwNSwyMTIgTDEwMDgsMjEyIEEyLjUsMi41IDAgMCAxIDEwMDUuNSwyMDkuNSBMMTAwNS41LDguNSBBMi41LDIuNSAwIDAgMSAxMDA4LDYgIiBmaWxsPSJub25lIiBzdHlsZT0ic3Ryb2tlOiMwMDAwMDA7c3Ryb2tlLXdpZHRoOjEuNTsiLz48bGluZSBzdHlsZT0ic3Ryb2tlOiMwMDAwMDA7c3Ryb2tlLXdpZHRoOjEuNTsiIHgxPSIxMDA1LjUiIHgyPSIxMDUzLjUiIHkxPSIyNi45ODQ0IiB5Mj0iMjYuOTg0NCIvPjx0ZXh0IGZpbGw9IiMwMDAwMDAiIGZvbnQtZmFtaWx5PSJzYW5zLXNlcmlmIiBmb250LXNpemU9IjE0IiBmb250LXdlaWdodD0iYm9sZCIgbGVuZ3RoQWRqdXN0PSJzcGFjaW5nIiB0ZXh0TGVuZ3RoPSIzNSIgeD0iMTAwOS41IiB5PSIyMS4yMzQ0Ij5Vc2VyczwvdGV4dD48L2c+PCEtLWNsdXN0ZXIgRW50aXRpZXMtLT48ZyBpZD0iY2x1c3Rlcl9FbnRpdGllcyI+PHBhdGggZD0iTTM4MywyNTkgTDQ0MCwyNTkgQTMuNzUsMy43NSAwIDAgMSA0NDIuNSwyNjEuNSBMNDQ5LjUsMjc5Ljk4NDQgTDE3MjUsMjc5Ljk4NDQgQTIuNSwyLjUgMCAwIDEgMTcyNy41LDI4Mi40ODQ0IEwxNzI3LjUsNDU4LjUgQTIuNSwyLjUgMCAwIDEgMTcyNSw0NjEgTDM4Myw0NjEgQTIuNSwyLjUgMCAwIDEgMzgwLjUsNDU4LjUgTDM4MC41LDI2MS41IEEyLjUsMi41IDAgMCAxIDM4MywyNTkgIiBmaWxsPSJub25lIiBzdHlsZT0ic3Ryb2tlOiMwMDAwMDA7c3Ryb2tlLXdpZHRoOjEuNTsiLz48bGluZSBzdHlsZT0ic3Ryb2tlOiMwMDAwMDA7c3Ryb2tlLXdpZHRoOjEuNTsiIHgxPSIzODAuNSIgeDI9IjQ0OS41IiB5MT0iMjc5Ljk4NDQiIHkyPSIyNzkuOTg0NCIvPjx0ZXh0IGZpbGw9IiMwMDAwMDAiIGZvbnQtZmFtaWx5PSJzYW5zLXNlcmlmIiBmb250LXNpemU9IjE0IiBmb250LXdlaWdodD0iYm9sZCIgbGVuZ3RoQWRqdXN0PSJzcGFjaW5nIiB0ZXh0TGVuZ3RoPSI1NiIgeD0iMzg0LjUiIHk9IjI3NC4yMzQ0Ij5FbnRpdGllczwvdGV4dD48L2c+PCEtLWNsYXNzIEhvdGVsU3RhZmYtLT48ZyBpZD0iZWxlbV9Ib3RlbFN0YWZmIj48cmVjdCBjb2RlTGluZT0iMiIgZmlsbD0iI0YxRjFGMSIgaGVpZ2h0PSI0OCIgaWQ9IkhvdGVsU3RhZmYiIHJ4PSIyLjUiIHJ5PSIyLjUiIHN0eWxlPSJzdHJva2U6IzE4MTgxODtzdHJva2Utd2lkdGg6MC41OyIgd2lkdGg9IjEwMiIgeD0iMTE3Mi41IiB5PSIzOSIvPjxlbGxpcHNlIGN4PSIxMTg3LjUiIGN5PSI1NSIgZmlsbD0iI0FERDFCMiIgcng9IjExIiByeT0iMTEiIHN0eWxlPSJzdHJva2U6IzE4MTgxODtzdHJva2Utd2lkdGg6MS4wOyIvPjxwYXRoIGQ9Ik0xMTg1LjEyNSw1OS4yNSBMMTE4NS4xMjUsNjEgTDExOTAuMDYyNSw2MSBMMTE5MC4wNjI1LDU5LjI1IEwxMTg1LjEyNSw1OS4yNSBaIE0xMTg1LjgxMjUsNTkuOTM3NSBRMTE4NS44MTI1LDU5LjkzNzUgMTE4NS44MTI1LDUwLjc1IEwxMTg0LjA2MjUsNTAuNzUgUTExODQuMDYyNSw1MC43NSAxMTg0LjA2MjUsNTkuOTM3NSBMMTE4NS44MTI1LDU5LjkzNzUgWiBNMTE4OS4zNzUsNTkuOTM3NSBMMTE5MS4xMjUsNTkuOTM3NSBRMTE5MS4xMjUsNTkuOTM3NSAxMTkxLjEyNSw1Ny4xMjUgTDExODkuMzc1LDU3LjEyNSBRMTE4OS4zNzUsNTcuMTI1IDExODkuMzc1LDU5LjkzNzUgWiBNMTE4OS4zNzUsNTAuNzUgUTExODkuMzc1LDUwLjc1IDExODkuMzc1LDUzLjU2MjUgTDExOTEuMTI1LDUzLjU2MjUgUTExOTEuMTI1LDUzLjU2MjUgMTE5MS4xMjUsNTAuNzUgTDExODkuMzc1LDUwLjc1IFogTTExODUuMTI1LDUxLjQzNzUgTDExOTAuMDYyNSw1MS40Mzc1IEwxMTkwLjA2MjUsNDkuNjg3NSBMMTE4NS4xMjUsNDkuNjg3NSBMMTE4NS4xMjUsNTEuNDM3NSBaICIgZmlsbD0iIzAwMDAwMCIvPjx0ZXh0IGZpbGw9IiMwMDAwMDAiIGZvbnQtZmFtaWx5PSJzYW5zLXNlcmlmIiBmb250LXNpemU9IjE0IiBsZW5ndGhBZGp1c3Q9InNwYWNpbmciIHRleHRMZW5ndGg9IjcwIiB4PSIxMjAxLjUiIHk9IjYwLjc0MjIiPkhvdGVsU3RhZmY8L3RleHQ+PGxpbmUgc3R5bGU9InN0cm9rZTojMTgxODE4O3N0cm9rZS13aWR0aDowLjU7IiB4MT0iMTE3My41IiB4Mj0iMTI3My41IiB5MT0iNzEiIHkyPSI3MSIvPjxsaW5lIHN0eWxlPSJzdHJva2U6IzE4MTgxODtzdHJva2Utd2lkdGg6MC41OyIgeDE9IjExNzMuNSIgeDI9IjEyNzMuNSIgeTE9Ijc5IiB5Mj0iNzkiLz48L2c+PCEtLWNsYXNzIFJlY2VwdGlvbmlzdC0tPjxnIGlkPSJlbGVtX1JlY2VwdGlvbmlzdCI+PHJlY3QgY29kZUxpbmU9IjMiIGZpbGw9IiNGMUYxRjEiIGhlaWdodD0iNDgiIGlkPSJSZWNlcHRpb25pc3QiIHJ4PSIyLjUiIHJ5PSIyLjUiIHN0eWxlPSJzdHJva2U6IzE4MTgxODtzdHJva2Utd2lkdGg6MC41OyIgd2lkdGg9IjExNiIgeD0iMTAyMS41IiB5PSIxNDgiLz48ZWxsaXBzZSBjeD0iMTAzNi41IiBjeT0iMTY0IiBmaWxsPSIjQUREMUIyIiByeD0iMTEiIHJ5PSIxMSIgc3R5bGU9InN0cm9rZTojMTgxODE4O3N0cm9rZS13aWR0aDoxLjA7Ii8+PHBhdGggZD0iTTEwMzQuMTI1LDE2OC4yNSBMMTAzNC4xMjUsMTcwIEwxMDM5LjA2MjUsMTcwIEwxMDM5LjA2MjUsMTY4LjI1IEwxMDM0LjEyNSwxNjguMjUgWiBNMTAzNC44MTI1LDE2OC45Mzc1IFExMDM0LjgxMjUsMTY4LjkzNzUgMTAzNC44MTI1LDE1OS43NSBMMTAzMy4wNjI1LDE1OS43NSBRMTAzMy4wNjI1LDE1OS43NSAxMDMzLjA2MjUsMTY4LjkzNzUgTDEwMzQuODEyNSwxNjguOTM3NSBaIE0xMDM4LjM3NSwxNjguOTM3NSBMMTA0MC4xMjUsMTY4LjkzNzUgUTEwNDAuMTI1LDE2OC45Mzc1IDEwNDAuMTI1LDE2Ni4xMjUgTDEwMzguMzc1LDE2Ni4xMjUgUTEwMzguMzc1LDE2Ni4xMjUgMTAzOC4zNzUsMTY4LjkzNzUgWiBNMTAzOC4zNzUsMTU5Ljc1IFExMDM4LjM3NSwxNTkuNzUgMTAzOC4zNzUsMTYyLjU2MjUgTDEwNDAuMTI1LDE2Mi41NjI1IFExMDQwLjEyNSwxNjIuNTYyNSAxMDQwLjEyNSwxNTkuNzUgTDEwMzguMzc1LDE1OS43NSBaIE0xMDM0LjEyNSwxNjAuNDM3NSBMMTAzOS4wNjI1LDE2MC40Mzc1IEwxMDM5LjA2MjUsMTU4LjY4NzUgTDEwMzQuMTI1LDE1OC42ODc1IEwxMDM0LjEyNSwxNjAuNDM3NSBaICIgZmlsbD0iIzAwMDAwMCIvPjx0ZXh0IGZpbGw9IiMwMDAwMDAiIGZvbnQtZmFtaWx5PSJzYW5zLXNlcmlmIiBmb250LXNpemU9IjE0IiBsZW5ndGhBZGp1c3Q9InNwYWNpbmciIHRleHRMZW5ndGg9Ijg0IiB4PSIxMDUwLjUiIHk9IjE2OS43NDIyIj5SZWNlcHRpb25pc3Q8L3RleHQ+PGxpbmUgc3R5bGU9InN0cm9rZTojMTgxODE4O3N0cm9rZS13aWR0aDowLjU7IiB4MT0iMTAyMi41IiB4Mj0iMTEzNi41IiB5MT0iMTgwIiB5Mj0iMTgwIi8+PGxpbmUgc3R5bGU9InN0cm9rZTojMTgxODE4O3N0cm9rZS13aWR0aDowLjU7IiB4MT0iMTAyMi41IiB4Mj0iMTEzNi41IiB5MT0iMTg4IiB5Mj0iMTg4Ii8+PC9nPjwhLS1jbGFzcyBTYWxlc1N0YWZmLS0+PGcgaWQ9ImVsZW1fU2FsZXNTdGFmZiI+PHJlY3QgY29kZUxpbmU9IjQiIGZpbGw9IiNGMUYxRjEiIGhlaWdodD0iNDgiIGlkPSJTYWxlc1N0YWZmIiByeD0iMi41IiByeT0iMi41IiBzdHlsZT0ic3Ryb2tlOiMxODE4MTg7c3Ryb2tlLXdpZHRoOjAuNTsiIHdpZHRoPSIxMDIiIHg9IjExNzIuNSIgeT0iMTQ4Ii8+PGVsbGlwc2UgY3g9IjExODcuNSIgY3k9IjE2NCIgZmlsbD0iI0FERDFCMiIgcng9IjExIiByeT0iMTEiIHN0eWxlPSJzdHJva2U6IzE4MTgxODtzdHJva2Utd2lkdGg6MS4wOyIvPjxwYXRoIGQ9Ik0xMTg1LjEyNSwxNjguMjUgTDExODUuMTI1LDE3MCBMMTE5MC4wNjI1LDE3MCBMMTE5MC4wNjI1LDE2OC4yNSBMMTE4NS4xMjUsMTY4LjI1IFogTTExODUuODEyNSwxNjguOTM3NSBRMTE4NS44MTI1LDE2OC45Mzc1IDExODUuODEyNSwxNTkuNzUgTDExODQuMDYyNSwxNTkuNzUgUTExODQuMDYyNSwxNTkuNzUgMTE4NC4wNjI1LDE2OC45Mzc1IEwxMTg1LjgxMjUsMTY4LjkzNzUgWiBNMTE4OS4zNzUsMTY4LjkzNzUgTDExOTEuMTI1LDE2OC45Mzc1IFExMTkxLjEyNSwxNjguOTM3NSAxMTkxLjEyNSwxNjYuMTI1IEwxMTg5LjM3NSwxNjYuMTI1IFExMTg5LjM3NSwxNjYuMTI1IDExODkuMzc1LDE2OC45Mzc1IFogTTExODkuMzc1LDE1OS43NSBRMTE4OS4zNzUsMTU5Ljc1IDExODkuMzc1LDE2Mi41NjI1IEwxMTkxLjEyNSwxNjIuNTYyNSBRMTE5MS4xMjUsMTYyLjU2MjUgMTE5MS4xMjUsMTU5Ljc1IEwxMTg5LjM3NSwxNTkuNzUgWiBNMTE4NS4xMjUsMTYwLjQzNzUgTDExOTAuMDYyNSwxNjAuNDM3NSBMMTE5MC4wNjI1LDE1OC42ODc1IEwxMTg1LjEyNSwxNTguNjg3NSBMMTE4NS4xMjUsMTYwLjQzNzUgWiAiIGZpbGw9IiMwMDAwMDAiLz48dGV4dCBmaWxsPSIjMDAwMDAwIiBmb250LWZhbWlseT0ic2Fucy1zZXJpZiIgZm9udC1zaXplPSIxNCIgbGVuZ3RoQWRqdXN0PSJzcGFjaW5nIiB0ZXh0TGVuZ3RoPSI3MCIgeD0iMTIwMS41IiB5PSIxNjkuNzQyMiI+U2FsZXNTdGFmZjwvdGV4dD48bGluZSBzdHlsZT0ic3Ryb2tlOiMxODE4MTg7c3Ryb2tlLXdpZHRoOjAuNTsiIHgxPSIxMTczLjUiIHgyPSIxMjczLjUiIHkxPSIxODAiIHkyPSIxODAiLz48bGluZSBzdHlsZT0ic3Ryb2tlOiMxODE4MTg7c3Ryb2tlLXdpZHRoOjAuNTsiIHgxPSIxMTczLjUiIHgyPSIxMjczLjUiIHkxPSIxODgiIHkyPSIxODgiLz48L2c+PCEtLWNsYXNzIE1hbmFnZXItLT48ZyBpZD0iZWxlbV9NYW5hZ2VyIj48cmVjdCBjb2RlTGluZT0iNSIgZmlsbD0iI0YxRjFGMSIgaGVpZ2h0PSI0OCIgaWQ9Ik1hbmFnZXIiIHJ4PSIyLjUiIHJ5PSIyLjUiIHN0eWxlPSJzdHJva2U6IzE4MTgxODtzdHJva2Utd2lkdGg6MC41OyIgd2lkdGg9IjgxIiB4PSIxMzEwIiB5PSIxNDgiLz48ZWxsaXBzZSBjeD0iMTMyNSIgY3k9IjE2NCIgZmlsbD0iI0FERDFCMiIgcng9IjExIiByeT0iMTEiIHN0eWxlPSJzdHJva2U6IzE4MTgxODtzdHJva2Utd2lkdGg6MS4wOyIvPjxwYXRoIGQ9Ik0xMzIyLjYyNSwxNjguMjUgTDEzMjIuNjI1LDE3MCBMMTMyNy41NjI1LDE3MCBMMTMyNy41NjI1LDE2OC4yNSBMMTMyMi42MjUsMTY4LjI1IFogTTEzMjMuMzEyNSwxNjguOTM3NSBRMTMyMy4zMTI1LDE2OC45Mzc1IDEzMjMuMzEyNSwxNTkuNzUgTDEzMjEuNTYyNSwxNTkuNzUgUTEzMjEuNTYyNSwxNTkuNzUgMTMyMS41NjI1LDE2OC45Mzc1IEwxMzIzLjMxMjUsMTY4LjkzNzUgWiBNMTMyNi44NzUsMTY4LjkzNzUgTDEzMjguNjI1LDE2OC45Mzc1IFExMzI4LjYyNSwxNjguOTM3NSAxMzI4LjYyNSwxNjYuMTI1IEwxMzI2Ljg3NSwxNjYuMTI1IFExMzI2Ljg3NSwxNjYuMTI1IDEzMjYuODc1LDE2OC45Mzc1IFogTTEzMjYuODc1LDE1OS43NSBRMTMyNi44NzUsMTU5Ljc1IDEzMjYuODc1LDE2Mi41NjI1IEwxMzI4LjYyNSwxNjIuNTYyNSBRMTMyOC42MjUsMTYyLjU2MjUgMTMyOC42MjUsMTU5Ljc1IEwxMzI2Ljg3NSwxNTkuNzUgWiBNMTMyMi42MjUsMTYwLjQzNzUgTDEzMjcuNTYyNSwxNjAuNDM3NSBMMTMyNy41NjI1LDE1OC42ODc1IEwxMzIyLjYyNSwxNTguNjg3NSBMMTMyMi42MjUsMTYwLjQzNzUgWiAiIGZpbGw9IiMwMDAwMDAiLz48dGV4dCBmaWxsPSIjMDAwMDAwIiBmb250LWZhbWlseT0ic2Fucy1zZXJpZiIgZm9udC1zaXplPSIxNCIgbGVuZ3RoQWRqdXN0PSJzcGFjaW5nIiB0ZXh0TGVuZ3RoPSI0OSIgeD0iMTMzOSIgeT0iMTY5Ljc0MjIiPk1hbmFnZXI8L3RleHQ+PGxpbmUgc3R5bGU9InN0cm9rZTojMTgxODE4O3N0cm9rZS13aWR0aDowLjU7IiB4MT0iMTMxMSIgeDI9IjEzOTAiIHkxPSIxODAiIHkyPSIxODAiLz48bGluZSBzdHlsZT0ic3Ryb2tlOiMxODE4MTg7c3Ryb2tlLXdpZHRoOjAuNTsiIHgxPSIxMzExIiB4Mj0iMTM5MCIgeTE9IjE4OCIgeTI9IjE4OCIvPjwvZz48IS0tY2xhc3MgSG90ZWwtLT48ZyBpZD0iZWxlbV9Ib3RlbCI+PHJlY3QgY29kZUxpbmU9IjkiIGZpbGw9IiNGMUYxRjEiIGhlaWdodD0iMTIyLjkyMTkiIGlkPSJIb3RlbCIgcng9IjIuNSIgcnk9IjIuNSIgc3R5bGU9InN0cm9rZTojMTgxODE4O3N0cm9rZS13aWR0aDowLjU7IiB3aWR0aD0iMTY3IiB4PSIxNTQ1IiB5PSIzMDciLz48ZWxsaXBzZSBjeD0iMTYwNi43NSIgY3k9IjMyMyIgZmlsbD0iI0FERDFCMiIgcng9IjExIiByeT0iMTEiIHN0eWxlPSJzdHJva2U6IzE4MTgxODtzdHJva2Utd2lkdGg6MS4wOyIvPjxwYXRoIGQ9Ik0xNjA0LjM3NSwzMjcuMjUgTDE2MDQuMzc1LDMyOSBMMTYwOS4zMTI1LDMyOSBMMTYwOS4zMTI1LDMyNy4yNSBMMTYwNC4zNzUsMzI3LjI1IFogTTE2MDUuMDYyNSwzMjcuOTM3NSBRMTYwNS4wNjI1LDMyNy45Mzc1IDE2MDUuMDYyNSwzMTguNzUgTDE2MDMuMzEyNSwzMTguNzUgUTE2MDMuMzEyNSwzMTguNzUgMTYwMy4zMTI1LDMyNy45Mzc1IEwxNjA1LjA2MjUsMzI3LjkzNzUgWiBNMTYwOC42MjUsMzI3LjkzNzUgTDE2MTAuMzc1LDMyNy45Mzc1IFExNjEwLjM3NSwzMjcuOTM3NSAxNjEwLjM3NSwzMjUuMTI1IEwxNjA4LjYyNSwzMjUuMTI1IFExNjA4LjYyNSwzMjUuMTI1IDE2MDguNjI1LDMyNy45Mzc1IFogTTE2MDguNjI1LDMxOC43NSBRMTYwOC42MjUsMzE4Ljc1IDE2MDguNjI1LDMyMS41NjI1IEwxNjEwLjM3NSwzMjEuNTYyNSBRMTYxMC4zNzUsMzIxLjU2MjUgMTYxMC4zNzUsMzE4Ljc1IEwxNjA4LjYyNSwzMTguNzUgWiBNMTYwNC4zNzUsMzE5LjQzNzUgTDE2MDkuMzEyNSwzMTkuNDM3NSBMMTYwOS4zMTI1LDMxNy42ODc1IEwxNjA0LjM3NSwzMTcuNjg3NSBMMTYwNC4zNzUsMzE5LjQzNzUgWiAiIGZpbGw9IiMwMDAwMDAiLz48dGV4dCBmaWxsPSIjMDAwMDAwIiBmb250LWZhbWlseT0ic2Fucy1zZXJpZiIgZm9udC1zaXplPSIxNCIgbGVuZ3RoQWRqdXN0PSJzcGFjaW5nIiB0ZXh0TGVuZ3RoPSIzNSIgeD0iMTYyNy4yNSIgeT0iMzI4Ljc0MjIiPkhvdGVsPC90ZXh0PjxsaW5lIHN0eWxlPSJzdHJva2U6IzE4MTgxODtzdHJva2Utd2lkdGg6MC41OyIgeDE9IjE1NDYiIHgyPSIxNzExIiB5MT0iMzM5IiB5Mj0iMzM5Ii8+PHJlY3QgZmlsbD0ibm9uZSIgaGVpZ2h0PSI2IiBzdHlsZT0ic3Ryb2tlOiNDODI5MzA7c3Ryb2tlLXdpZHRoOjEuMDsiIHdpZHRoPSI2IiB4PSIxNTUzIiB5PSIzNDguOTkyMiIvPjx0ZXh0IGZpbGw9IiMwMDAwMDAiIGZvbnQtZmFtaWx5PSJzYW5zLXNlcmlmIiBmb250LXNpemU9IjE0IiBsZW5ndGhBZGp1c3Q9InNwYWNpbmciIHRleHRMZW5ndGg9Ijg1IiB4PSIxNTY1IiB5PSIzNTYuMjM0NCI+bmFtZTogU3RyaW5nPC90ZXh0PjxyZWN0IGZpbGw9Im5vbmUiIGhlaWdodD0iNiIgc3R5bGU9InN0cm9rZTojQzgyOTMwO3N0cm9rZS13aWR0aDoxLjA7IiB3aWR0aD0iNiIgeD0iMTU1MyIgeT0iMzYzLjk3NjYiLz48dGV4dCBmaWxsPSIjMDAwMDAwIiBmb250LWZhbWlseT0ic2Fucy1zZXJpZiIgZm9udC1zaXplPSIxNCIgbGVuZ3RoQWRqdXN0PSJzcGFjaW5nIiB0ZXh0TGVuZ3RoPSIxMDUiIHg9IjE1NjUiIHk9IjM3MS4yMTg4Ij5hZGRyZXNzOiBTdHJpbmc8L3RleHQ+PHJlY3QgZmlsbD0ibm9uZSIgaGVpZ2h0PSI2IiBzdHlsZT0ic3Ryb2tlOiNDODI5MzA7c3Ryb2tlLXdpZHRoOjEuMDsiIHdpZHRoPSI2IiB4PSIxNTUzIiB5PSIzNzguOTYwOSIvPjx0ZXh0IGZpbGw9IiMwMDAwMDAiIGZvbnQtZmFtaWx5PSJzYW5zLXNlcmlmIiBmb250LXNpemU9IjE0IiBsZW5ndGhBZGp1c3Q9InNwYWNpbmciIHRleHRMZW5ndGg9IjEwNSIgeD0iMTU2NSIgeT0iMzg2LjIwMzEiPnN0YXJSYXRpbmc6IGludDwvdGV4dD48cmVjdCBmaWxsPSJub25lIiBoZWlnaHQ9IjYiIHN0eWxlPSJzdHJva2U6I0M4MjkzMDtzdHJva2Utd2lkdGg6MS4wOyIgd2lkdGg9IjYiIHg9IjE1NTMiIHk9IjM5My45NDUzIi8+PHRleHQgZmlsbD0iIzAwMDAwMCIgZm9udC1mYW1pbHk9InNhbnMtc2VyaWYiIGZvbnQtc2l6ZT0iMTQiIGxlbmd0aEFkanVzdD0ic3BhY2luZyIgdGV4dExlbmd0aD0iMTMzIiB4PSIxNTY1IiB5PSI0MDEuMTg3NSI+ZGVzY3JpcHRpb246IFN0cmluZzwvdGV4dD48cmVjdCBmaWxsPSJub25lIiBoZWlnaHQ9IjYiIHN0eWxlPSJzdHJva2U6I0M4MjkzMDtzdHJva2Utd2lkdGg6MS4wOyIgd2lkdGg9IjYiIHg9IjE1NTMiIHk9IjQwOC45Mjk3Ii8+PHRleHQgZmlsbD0iIzAwMDAwMCIgZm9udC1mYW1pbHk9InNhbnMtc2VyaWYiIGZvbnQtc2l6ZT0iMTQiIGxlbmd0aEFkanVzdD0ic3BhY2luZyIgdGV4dExlbmd0aD0iMTQxIiB4PSIxNTY1IiB5PSI0MTYuMTcxOSI+aW1hZ2VzOiBMaXN0Jmx0O1N0cmluZyZndDs8L3RleHQ+PGxpbmUgc3R5bGU9InN0cm9rZTojMTgxODE4O3N0cm9rZS13aWR0aDowLjU7IiB4MT0iMTU0NiIgeDI9IjE3MTEiIHkxPSI0MjEuOTIxOSIgeTI9IjQyMS45MjE5Ii8+PC9nPjwhLS1jbGFzcyBSb29tLS0+PGcgaWQ9ImVsZW1fUm9vbSI+PHJlY3QgY29kZUxpbmU9IjE3IiBmaWxsPSIjRjFGMUYxIiBoZWlnaHQ9IjEzNy45MDYzIiBpZD0iUm9vbSIgcng9IjIuNSIgcnk9IjIuNSIgc3R5bGU9InN0cm9rZTojMTgxODE4O3N0cm9rZS13aWR0aDowLjU7IiB3aWR0aD0iMTgwIiB4PSIxMzI5LjUiIHk9IjI5OS41Ii8+PGVsbGlwc2UgY3g9IjE0MDAuNzUiIGN5PSIzMTUuNSIgZmlsbD0iI0FERDFCMiIgcng9IjExIiByeT0iMTEiIHN0eWxlPSJzdHJva2U6IzE4MTgxODtzdHJva2Utd2lkdGg6MS4wOyIvPjxwYXRoIGQ9Ik0xMzk4LjM3NSwzMTkuNzUgTDEzOTguMzc1LDMyMS41IEwxNDAzLjMxMjUsMzIxLjUgTDE0MDMuMzEyNSwzMTkuNzUgTDEzOTguMzc1LDMxOS43NSBaIE0xMzk5LjA2MjUsMzIwLjQzNzUgUTEzOTkuMDYyNSwzMjAuNDM3NSAxMzk5LjA2MjUsMzExLjI1IEwxMzk3LjMxMjUsMzExLjI1IFExMzk3LjMxMjUsMzExLjI1IDEzOTcuMzEyNSwzMjAuNDM3NSBMMTM5OS4wNjI1LDMyMC40Mzc1IFogTTE0MDIuNjI1LDMyMC40Mzc1IEwxNDA0LjM3NSwzMjAuNDM3NSBRMTQwNC4zNzUsMzIwLjQzNzUgMTQwNC4zNzUsMzE3LjYyNSBMMTQwMi42MjUsMzE3LjYyNSBRMTQwMi42MjUsMzE3LjYyNSAxNDAyLjYyNSwzMjAuNDM3NSBaIE0xNDAyLjYyNSwzMTEuMjUgUTE0MDIuNjI1LDMxMS4yNSAxNDAyLjYyNSwzMTQuMDYyNSBMMTQwNC4zNzUsMzE0LjA2MjUgUTE0MDQuMzc1LDMxNC4wNjI1IDE0MDQuMzc1LDMxMS4yNSBMMTQwMi42MjUsMzExLjI1IFogTTEzOTguMzc1LDMxMS45Mzc1IEwxNDAzLjMxMjUsMzExLjkzNzUgTDE0MDMuMzEyNSwzMTAuMTg3NSBMMTM5OC4zNzUsMzEwLjE4NzUgTDEzOTguMzc1LDMxMS45Mzc1IFogIiBmaWxsPSIjMDAwMDAwIi8+PHRleHQgZmlsbD0iIzAwMDAwMCIgZm9udC1mYW1pbHk9InNhbnMtc2VyaWYiIGZvbnQtc2l6ZT0iMTQiIGxlbmd0aEFkanVzdD0ic3BhY2luZyIgdGV4dExlbmd0aD0iMjkiIHg9IjE0MjEuMjUiIHk9IjMyMS4yNDIyIj5Sb29tPC90ZXh0PjxsaW5lIHN0eWxlPSJzdHJva2U6IzE4MTgxODtzdHJva2Utd2lkdGg6MC41OyIgeDE9IjEzMzAuNSIgeDI9IjE1MDguNSIgeTE9IjMzMS41IiB5Mj0iMzMxLjUiLz48cmVjdCBmaWxsPSJub25lIiBoZWlnaHQ9IjYiIHN0eWxlPSJzdHJva2U6I0M4MjkzMDtzdHJva2Utd2lkdGg6MS4wOyIgd2lkdGg9IjYiIHg9IjEzMzcuNSIgeT0iMzQxLjQ5MjIiLz48dGV4dCBmaWxsPSIjMDAwMDAwIiBmb250LWZhbWlseT0ic2Fucy1zZXJpZiIgZm9udC1zaXplPSIxNCIgbGVuZ3RoQWRqdXN0PSJzcGFjaW5nIiB0ZXh0TGVuZ3RoPSIxMjgiIHg9IjEzNDkuNSIgeT0iMzQ4LjczNDQiPnJvb21OdW1iZXI6IFN0cmluZzwvdGV4dD48cmVjdCBmaWxsPSJub25lIiBoZWlnaHQ9IjYiIHN0eWxlPSJzdHJva2U6I0M4MjkzMDtzdHJva2Utd2lkdGg6MS4wOyIgd2lkdGg9IjYiIHg9IjEzMzcuNSIgeT0iMzU2LjQ3NjYiLz48dGV4dCBmaWxsPSIjMDAwMDAwIiBmb250LWZhbWlseT0ic2Fucy1zZXJpZiIgZm9udC1zaXplPSIxNCIgbGVuZ3RoQWRqdXN0PSJzcGFjaW5nIiB0ZXh0TGVuZ3RoPSIxMTMiIHg9IjEzNDkuNSIgeT0iMzYzLjcxODgiPnJvb21UeXBlOiBTdHJpbmc8L3RleHQ+PHJlY3QgZmlsbD0ibm9uZSIgaGVpZ2h0PSI2IiBzdHlsZT0ic3Ryb2tlOiNDODI5MzA7c3Ryb2tlLXdpZHRoOjEuMDsiIHdpZHRoPSI2IiB4PSIxMzM3LjUiIHk9IjM3MS40NjA5Ii8+PHRleHQgZmlsbD0iIzAwMDAwMCIgZm9udC1mYW1pbHk9InNhbnMtc2VyaWYiIGZvbnQtc2l6ZT0iMTQiIGxlbmd0aEFkanVzdD0ic3BhY2luZyIgdGV4dExlbmd0aD0iMTE5IiB4PSIxMzQ5LjUiIHk9IjM3OC43MDMxIj5iYXNlUHJpY2U6IGRvdWJsZTwvdGV4dD48cmVjdCBmaWxsPSJub25lIiBoZWlnaHQ9IjYiIHN0eWxlPSJzdHJva2U6I0M4MjkzMDtzdHJva2Utd2lkdGg6MS4wOyIgd2lkdGg9IjYiIHg9IjEzMzcuNSIgeT0iMzg2LjQ0NTMiLz48dGV4dCBmaWxsPSIjMDAwMDAwIiBmb250LWZhbWlseT0ic2Fucy1zZXJpZiIgZm9udC1zaXplPSIxNCIgbGVuZ3RoQWRqdXN0PSJzcGFjaW5nIiB0ZXh0TGVuZ3RoPSIxNTQiIHg9IjEzNDkuNSIgeT0iMzkzLjY4NzUiPnNlcnZpY2VzOiBMaXN0Jmx0O1N0cmluZyZndDs8L3RleHQ+PHJlY3QgZmlsbD0ibm9uZSIgaGVpZ2h0PSI2IiBzdHlsZT0ic3Ryb2tlOiNDODI5MzA7c3Ryb2tlLXdpZHRoOjEuMDsiIHdpZHRoPSI2IiB4PSIxMzM3LjUiIHk9IjQwMS40Mjk3Ii8+PHRleHQgZmlsbD0iIzAwMDAwMCIgZm9udC1mYW1pbHk9InNhbnMtc2VyaWYiIGZvbnQtc2l6ZT0iMTQiIGxlbmd0aEFkanVzdD0ic3BhY2luZyIgdGV4dExlbmd0aD0iMTMzIiB4PSIxMzQ5LjUiIHk9IjQwOC42NzE5Ij5kZXNjcmlwdGlvbjogU3RyaW5nPC90ZXh0PjxyZWN0IGZpbGw9Im5vbmUiIGhlaWdodD0iNiIgc3R5bGU9InN0cm9rZTojQzgyOTMwO3N0cm9rZS13aWR0aDoxLjA7IiB3aWR0aD0iNiIgeD0iMTMzNy41IiB5PSI0MTYuNDE0MSIvPjx0ZXh0IGZpbGw9IiMwMDAwMDAiIGZvbnQtZmFtaWx5PSJzYW5zLXNlcmlmIiBmb250LXNpemU9IjE0IiBsZW5ndGhBZGp1c3Q9InNwYWNpbmciIHRleHRMZW5ndGg9IjExOSIgeD0iMTM0OS41IiB5PSI0MjMuNjU2MyI+aXNCb29rZWQ6IGJvb2xlYW48L3RleHQ+PGxpbmUgc3R5bGU9InN0cm9rZTojMTgxODE4O3N0cm9rZS13aWR0aDowLjU7IiB4MT0iMTMzMC41IiB4Mj0iMTUwOC41IiB5MT0iNDI5LjQwNjMiIHkyPSI0MjkuNDA2MyIvPjwvZz48IS0tY2xhc3MgQ3VzdG9tZXItLT48ZyBpZD0iZWxlbV9DdXN0b21lciI+PHJlY3QgY29kZUxpbmU9IjI2IiBmaWxsPSIjRjFGMUYxIiBoZWlnaHQ9IjE1Mi44OTA2IiBpZD0iQ3VzdG9tZXIiIHJ4PSIyLjUiIHJ5PSIyLjUiIHN0eWxlPSJzdHJva2U6IzE4MTgxODtzdHJva2Utd2lkdGg6MC41OyIgd2lkdGg9IjIyOSIgeD0iMTA2NSIgeT0iMjkyIi8+PGVsbGlwc2UgY3g9IjExNDYuNzUiIGN5PSIzMDgiIGZpbGw9IiNBREQxQjIiIHJ4PSIxMSIgcnk9IjExIiBzdHlsZT0ic3Ryb2tlOiMxODE4MTg7c3Ryb2tlLXdpZHRoOjEuMDsiLz48cGF0aCBkPSJNMTE0NC4zNzUsMzEyLjI1IEwxMTQ0LjM3NSwzMTQgTDExNDkuMzEyNSwzMTQgTDExNDkuMzEyNSwzMTIuMjUgTDExNDQuMzc1LDMxMi4yNSBaIE0xMTQ1LjA2MjUsMzEyLjkzNzUgUTExNDUuMDYyNSwzMTIuOTM3NSAxMTQ1LjA2MjUsMzAzLjc1IEwxMTQzLjMxMjUsMzAzLjc1IFExMTQzLjMxMjUsMzAzLjc1IDExNDMuMzEyNSwzMTIuOTM3NSBMMTE0NS4wNjI1LDMxMi45Mzc1IFogTTExNDguNjI1LDMxMi45Mzc1IEwxMTUwLjM3NSwzMTIuOTM3NSBRMTE1MC4zNzUsMzEyLjkzNzUgMTE1MC4zNzUsMzEwLjEyNSBMMTE0OC42MjUsMzEwLjEyNSBRMTE0OC42MjUsMzEwLjEyNSAxMTQ4LjYyNSwzMTIuOTM3NSBaIE0xMTQ4LjYyNSwzMDMuNzUgUTExNDguNjI1LDMwMy43NSAxMTQ4LjYyNSwzMDYuNTYyNSBMMTE1MC4zNzUsMzA2LjU2MjUgUTExNTAuMzc1LDMwNi41NjI1IDExNTAuMzc1LDMwMy43NSBMMTE0OC42MjUsMzAzLjc1IFogTTExNDQuMzc1LDMwNC40Mzc1IEwxMTQ5LjMxMjUsMzA0LjQzNzUgTDExNDkuMzEyNSwzMDIuNjg3NSBMMTE0NC4zNzUsMzAyLjY4NzUgTDExNDQuMzc1LDMwNC40Mzc1IFogIiBmaWxsPSIjMDAwMDAwIi8+PHRleHQgZmlsbD0iIzAwMDAwMCIgZm9udC1mYW1pbHk9InNhbnMtc2VyaWYiIGZvbnQtc2l6ZT0iMTQiIGxlbmd0aEFkanVzdD0ic3BhY2luZyIgdGV4dExlbmd0aD0iNTciIHg9IjExNjcuMjUiIHk9IjMxMy43NDIyIj5DdXN0b21lcjwvdGV4dD48bGluZSBzdHlsZT0ic3Ryb2tlOiMxODE4MTg7c3Ryb2tlLXdpZHRoOjAuNTsiIHgxPSIxMDY2IiB4Mj0iMTI5MyIgeTE9IjMyNCIgeTI9IjMyNCIvPjxyZWN0IGZpbGw9Im5vbmUiIGhlaWdodD0iNiIgc3R5bGU9InN0cm9rZTojQzgyOTMwO3N0cm9rZS13aWR0aDoxLjA7IiB3aWR0aD0iNiIgeD0iMTA3MyIgeT0iMzMzLjk5MjIiLz48dGV4dCBmaWxsPSIjMDAwMDAwIiBmb250LWZhbWlseT0ic2Fucy1zZXJpZiIgZm9udC1zaXplPSIxNCIgbGVuZ3RoQWRqdXN0PSJzcGFjaW5nIiB0ZXh0TGVuZ3RoPSI3MCIgeD0iMTA4NSIgeT0iMzQxLjIzNDQiPmlkOiBTdHJpbmc8L3RleHQ+PHJlY3QgZmlsbD0ibm9uZSIgaGVpZ2h0PSI2IiBzdHlsZT0ic3Ryb2tlOiNDODI5MzA7c3Ryb2tlLXdpZHRoOjEuMDsiIHdpZHRoPSI2IiB4PSIxMDczIiB5PSIzNDguOTc2NiIvPjx0ZXh0IGZpbGw9IiMwMDAwMDAiIGZvbnQtZmFtaWx5PSJzYW5zLXNlcmlmIiBmb250LXNpemU9IjE0IiBsZW5ndGhBZGp1c3Q9InNwYWNpbmciIHRleHRMZW5ndGg9Ijk4IiB4PSIxMDg1IiB5PSIzNTYuMjE4OCI+aWRUeXBlOiBTdHJpbmc8L3RleHQ+PHJlY3QgZmlsbD0ibm9uZSIgaGVpZ2h0PSI2IiBzdHlsZT0ic3Ryb2tlOiNDODI5MzA7c3Ryb2tlLXdpZHRoOjEuMDsiIHdpZHRoPSI2IiB4PSIxMDczIiB5PSIzNjMuOTYwOSIvPjx0ZXh0IGZpbGw9IiMwMDAwMDAiIGZvbnQtZmFtaWx5PSJzYW5zLXNlcmlmIiBmb250LXNpemU9IjE0IiBsZW5ndGhBZGp1c3Q9InNwYWNpbmciIHRleHRMZW5ndGg9IjExMyIgeD0iMTA4NSIgeT0iMzcxLjIwMzEiPmZ1bGxOYW1lOiBTdHJpbmc8L3RleHQ+PHJlY3QgZmlsbD0ibm9uZSIgaGVpZ2h0PSI2IiBzdHlsZT0ic3Ryb2tlOiNDODI5MzA7c3Ryb2tlLXdpZHRoOjEuMDsiIHdpZHRoPSI2IiB4PSIxMDczIiB5PSIzNzguOTQ1MyIvPjx0ZXh0IGZpbGw9IiMwMDAwMDAiIGZvbnQtZmFtaWx5PSJzYW5zLXNlcmlmIiBmb250LXNpemU9IjE0IiBsZW5ndGhBZGp1c3Q9InNwYWNpbmciIHRleHRMZW5ndGg9IjEwNSIgeD0iMTA4NSIgeT0iMzg2LjE4NzUiPmFkZHJlc3M6IFN0cmluZzwvdGV4dD48cmVjdCBmaWxsPSJub25lIiBoZWlnaHQ9IjYiIHN0eWxlPSJzdHJva2U6I0M4MjkzMDtzdHJva2Utd2lkdGg6MS4wOyIgd2lkdGg9IjYiIHg9IjEwNzMiIHk9IjM5My45Mjk3Ii8+PHRleHQgZmlsbD0iIzAwMDAwMCIgZm9udC1mYW1pbHk9InNhbnMtc2VyaWYiIGZvbnQtc2l6ZT0iMTQiIGxlbmd0aEFkanVzdD0ic3BhY2luZyIgdGV4dExlbmd0aD0iMTM0IiB4PSIxMDg1IiB5PSI0MDEuMTcxOSI+cGhvbmVOdW1iZXI6IFN0cmluZzwvdGV4dD48cmVjdCBmaWxsPSJub25lIiBoZWlnaHQ9IjYiIHN0eWxlPSJzdHJva2U6I0M4MjkzMDtzdHJva2Utd2lkdGg6MS4wOyIgd2lkdGg9IjYiIHg9IjEwNzMiIHk9IjQwOC45MTQxIi8+PHRleHQgZmlsbD0iIzAwMDAwMCIgZm9udC1mYW1pbHk9InNhbnMtc2VyaWYiIGZvbnQtc2l6ZT0iMTQiIGxlbmd0aEFkanVzdD0ic3BhY2luZyIgdGV4dExlbmd0aD0iMjAzIiB4PSIxMDg1IiB5PSI0MTYuMTU2MyI+c3BlY2lhbFJlcXVlc3RzOiBMaXN0Jmx0O1N0cmluZyZndDs8L3RleHQ+PHJlY3QgZmlsbD0ibm9uZSIgaGVpZ2h0PSI2IiBzdHlsZT0ic3Ryb2tlOiNDODI5MzA7c3Ryb2tlLXdpZHRoOjEuMDsiIHdpZHRoPSI2IiB4PSIxMDczIiB5PSI0MjMuODk4NCIvPjx0ZXh0IGZpbGw9IiMwMDAwMDAiIGZvbnQtZmFtaWx5PSJzYW5zLXNlcmlmIiBmb250LXNpemU9IjE0IiBsZW5ndGhBZGp1c3Q9InNwYWNpbmciIHRleHRMZW5ndGg9IjE2MSIgeD0iMTA4NSIgeT0iNDMxLjE0MDYiPmJvb2tpbmdzOiBMaXN0Jmx0O0Jvb2tpbmcmZ3Q7PC90ZXh0PjxsaW5lIHN0eWxlPSJzdHJva2U6IzE4MTgxODtzdHJva2Utd2lkdGg6MC41OyIgeDE9IjEwNjYiIHgyPSIxMjkzIiB5MT0iNDM2Ljg5MDYiIHkyPSI0MzYuODkwNiIvPjwvZz48IS0tY2xhc3MgQm9va2luZy0tPjxnIGlkPSJlbGVtX0Jvb2tpbmciPjxyZWN0IGNvZGVMaW5lPSIzNiIgZmlsbD0iI0YxRjFGMSIgaGVpZ2h0PSIxNTIuODkwNiIgaWQ9IkJvb2tpbmciIHJ4PSIyLjUiIHJ5PSIyLjUiIHN0eWxlPSJzdHJva2U6IzE4MTgxODtzdHJva2Utd2lkdGg6MC41OyIgd2lkdGg9IjI3OCIgeD0iMzk2LjUiIHk9IjI5MiIvPjxlbGxpcHNlIGN4PSI1MDYuNzUiIGN5PSIzMDgiIGZpbGw9IiNBREQxQjIiIHJ4PSIxMSIgcnk9IjExIiBzdHlsZT0ic3Ryb2tlOiMxODE4MTg7c3Ryb2tlLXdpZHRoOjEuMDsiLz48cGF0aCBkPSJNNTA0LjM3NSwzMTIuMjUgTDUwNC4zNzUsMzE0IEw1MDkuMzEyNSwzMTQgTDUwOS4zMTI1LDMxMi4yNSBMNTA0LjM3NSwzMTIuMjUgWiBNNTA1LjA2MjUsMzEyLjkzNzUgUTUwNS4wNjI1LDMxMi45Mzc1IDUwNS4wNjI1LDMwMy43NSBMNTAzLjMxMjUsMzAzLjc1IFE1MDMuMzEyNSwzMDMuNzUgNTAzLjMxMjUsMzEyLjkzNzUgTDUwNS4wNjI1LDMxMi45Mzc1IFogTTUwOC42MjUsMzEyLjkzNzUgTDUxMC4zNzUsMzEyLjkzNzUgUTUxMC4zNzUsMzEyLjkzNzUgNTEwLjM3NSwzMTAuMTI1IEw1MDguNjI1LDMxMC4xMjUgUTUwOC42MjUsMzEwLjEyNSA1MDguNjI1LDMxMi45Mzc1IFogTTUwOC42MjUsMzAzLjc1IFE1MDguNjI1LDMwMy43NSA1MDguNjI1LDMwNi41NjI1IEw1MTAuMzc1LDMwNi41NjI1IFE1MTAuMzc1LDMwNi41NjI1IDUxMC4zNzUsMzAzLjc1IEw1MDguNjI1LDMwMy43NSBaIE01MDQuMzc1LDMwNC40Mzc1IEw1MDkuMzEyNSwzMDQuNDM3NSBMNTA5LjMxMjUsMzAyLjY4NzUgTDUwNC4zNzUsMzAyLjY4NzUgTDUwNC4zNzUsMzA0LjQzNzUgWiAiIGZpbGw9IiMwMDAwMDAiLz48dGV4dCBmaWxsPSIjMDAwMDAwIiBmb250LWZhbWlseT0ic2Fucy1zZXJpZiIgZm9udC1zaXplPSIxNCIgbGVuZ3RoQWRqdXN0PSJzcGFjaW5nIiB0ZXh0TGVuZ3RoPSI0OSIgeD0iNTI3LjI1IiB5PSIzMTMuNzQyMiI+Qm9va2luZzwvdGV4dD48bGluZSBzdHlsZT0ic3Ryb2tlOiMxODE4MTg7c3Ryb2tlLXdpZHRoOjAuNTsiIHgxPSIzOTcuNSIgeDI9IjY3My41IiB5MT0iMzI0IiB5Mj0iMzI0Ii8+PHJlY3QgZmlsbD0ibm9uZSIgaGVpZ2h0PSI2IiBzdHlsZT0ic3Ryb2tlOiNDODI5MzA7c3Ryb2tlLXdpZHRoOjEuMDsiIHdpZHRoPSI2IiB4PSI0MDQuNSIgeT0iMzMzLjk5MjIiLz48dGV4dCBmaWxsPSIjMDAwMDAwIiBmb250LWZhbWlseT0ic2Fucy1zZXJpZiIgZm9udC1zaXplPSIxNCIgbGVuZ3RoQWRqdXN0PSJzcGFjaW5nIiB0ZXh0TGVuZ3RoPSI3MiIgeD0iNDE2LjUiIHk9IjM0MS4yMzQ0Ij5yb29tOiBSb29tPC90ZXh0PjxyZWN0IGZpbGw9Im5vbmUiIGhlaWdodD0iNiIgc3R5bGU9InN0cm9rZTojQzgyOTMwO3N0cm9rZS13aWR0aDoxLjA7IiB3aWR0aD0iNiIgeD0iNDA0LjUiIHk9IjM0OC45NzY2Ii8+PHRleHQgZmlsbD0iIzAwMDAwMCIgZm9udC1mYW1pbHk9InNhbnMtc2VyaWYiIGZvbnQtc2l6ZT0iMTQiIGxlbmd0aEFkanVzdD0ic3BhY2luZyIgdGV4dExlbmd0aD0iMTI4IiB4PSI0MTYuNSIgeT0iMzU2LjIxODgiPmN1c3RvbWVyOiBDdXN0b21lcjwvdGV4dD48cmVjdCBmaWxsPSJub25lIiBoZWlnaHQ9IjYiIHN0eWxlPSJzdHJva2U6I0M4MjkzMDtzdHJva2Utd2lkdGg6MS4wOyIgd2lkdGg9IjYiIHg9IjQwNC41IiB5PSIzNjMuOTYwOSIvPjx0ZXh0IGZpbGw9IiMwMDAwMDAiIGZvbnQtZmFtaWx5PSJzYW5zLXNlcmlmIiBmb250LXNpemU9IjE0IiBsZW5ndGhBZGp1c3Q9InNwYWNpbmciIHRleHRMZW5ndGg9IjExOSIgeD0iNDE2LjUiIHk9IjM3MS4yMDMxIj5jaGVja0luRGF0ZTogRGF0ZTwvdGV4dD48cmVjdCBmaWxsPSJub25lIiBoZWlnaHQ9IjYiIHN0eWxlPSJzdHJva2U6I0M4MjkzMDtzdHJva2Utd2lkdGg6MS4wOyIgd2lkdGg9IjYiIHg9IjQwNC41IiB5PSIzNzguOTQ1MyIvPjx0ZXh0IGZpbGw9IiMwMDAwMDAiIGZvbnQtZmFtaWx5PSJzYW5zLXNlcmlmIiBmb250LXNpemU9IjE0IiBsZW5ndGhBZGp1c3Q9InNwYWNpbmciIHRleHRMZW5ndGg9IjEyNiIgeD0iNDE2LjUiIHk9IjM4Ni4xODc1Ij5jaGVja091dERhdGU6IERhdGU8L3RleHQ+PHJlY3QgZmlsbD0ibm9uZSIgaGVpZ2h0PSI2IiBzdHlsZT0ic3Ryb2tlOiNDODI5MzA7c3Ryb2tlLXdpZHRoOjEuMDsiIHdpZHRoPSI2IiB4PSI0MDQuNSIgeT0iMzkzLjkyOTciLz48dGV4dCBmaWxsPSIjMDAwMDAwIiBmb250LWZhbWlseT0ic2Fucy1zZXJpZiIgZm9udC1zaXplPSIxNCIgbGVuZ3RoQWRqdXN0PSJzcGFjaW5nIiB0ZXh0TGVuZ3RoPSIxMzQiIHg9IjQxNi41IiB5PSI0MDEuMTcxOSI+dG90YWxBbW91bnQ6IGRvdWJsZTwvdGV4dD48cmVjdCBmaWxsPSJub25lIiBoZWlnaHQ9IjYiIHN0eWxlPSJzdHJva2U6I0M4MjkzMDtzdHJva2Utd2lkdGg6MS4wOyIgd2lkdGg9IjYiIHg9IjQwNC41IiB5PSI0MDguOTE0MSIvPjx0ZXh0IGZpbGw9IiMwMDAwMDAiIGZvbnQtZmFtaWx5PSJzYW5zLXNlcmlmIiBmb250LXNpemU9IjE0IiBsZW5ndGhBZGp1c3Q9InNwYWNpbmciIHRleHRMZW5ndGg9IjI1MiIgeD0iNDE2LjUiIHk9IjQxNi4xNTYzIj5zZXJ2aWNlc0NoYXJnZWQ6IExpc3QmbHQ7U2VydmljZUNoYXJnZSZndDs8L3RleHQ+PHJlY3QgZmlsbD0ibm9uZSIgaGVpZ2h0PSI2IiBzdHlsZT0ic3Ryb2tlOiNDODI5MzA7c3Ryb2tlLXdpZHRoOjEuMDsiIHdpZHRoPSI2IiB4PSI0MDQuNSIgeT0iNDIzLjg5ODQiLz48dGV4dCBmaWxsPSIjMDAwMDAwIiBmb250LWZhbWlseT0ic2Fucy1zZXJpZiIgZm9udC1zaXplPSIxNCIgbGVuZ3RoQWRqdXN0PSJzcGFjaW5nIiB0ZXh0TGVuZ3RoPSIyMDUiIHg9IjQxNi41IiB5PSI0MzEuMTQwNiI+cGF5bWVudEhpc3Rvcnk6IExpc3QmbHQ7UGF5bWVudCZndDs8L3RleHQ+PGxpbmUgc3R5bGU9InN0cm9rZTojMTgxODE4O3N0cm9rZS13aWR0aDowLjU7IiB4MT0iMzk3LjUiIHgyPSI2NzMuNSIgeTE9IjQzNi44OTA2IiB5Mj0iNDM2Ljg5MDYiLz48L2c+PCEtLWNsYXNzIFNlcnZpY2VDaGFyZ2UtLT48ZyBpZD0iZWxlbV9TZXJ2aWNlQ2hhcmdlIj48cmVjdCBjb2RlTGluZT0iNDYiIGZpbGw9IiNGMUYxRjEiIGhlaWdodD0iMTIyLjkyMTkiIGlkPSJTZXJ2aWNlQ2hhcmdlIiByeD0iMi41IiByeT0iMi41IiBzdHlsZT0ic3Ryb2tlOiMxODE4MTg7c3Ryb2tlLXdpZHRoOjAuNTsiIHdpZHRoPSIxNjAiIHg9IjcwOS41IiB5PSIzMDciLz48ZWxsaXBzZSBjeD0iNzQxLjE1IiBjeT0iMzIzIiBmaWxsPSIjQUREMUIyIiByeD0iMTEiIHJ5PSIxMSIgc3R5bGU9InN0cm9rZTojMTgxODE4O3N0cm9rZS13aWR0aDoxLjA7Ii8+PHBhdGggZD0iTTczOC43NzUsMzI3LjI1IEw3MzguNzc1LDMyOSBMNzQzLjcxMjUsMzI5IEw3NDMuNzEyNSwzMjcuMjUgTDczOC43NzUsMzI3LjI1IFogTTczOS40NjI1LDMyNy45Mzc1IFE3MzkuNDYyNSwzMjcuOTM3NSA3MzkuNDYyNSwzMTguNzUgTDczNy43MTI1LDMxOC43NSBRNzM3LjcxMjUsMzE4Ljc1IDczNy43MTI1LDMyNy45Mzc1IEw3MzkuNDYyNSwzMjcuOTM3NSBaIE03NDMuMDI1LDMyNy45Mzc1IEw3NDQuNzc1LDMyNy45Mzc1IFE3NDQuNzc1LDMyNy45Mzc1IDc0NC43NzUsMzI1LjEyNSBMNzQzLjAyNSwzMjUuMTI1IFE3NDMuMDI1LDMyNS4xMjUgNzQzLjAyNSwzMjcuOTM3NSBaIE03NDMuMDI1LDMxOC43NSBRNzQzLjAyNSwzMTguNzUgNzQzLjAyNSwzMjEuNTYyNSBMNzQ0Ljc3NSwzMjEuNTYyNSBRNzQ0Ljc3NSwzMjEuNTYyNSA3NDQuNzc1LDMxOC43NSBMNzQzLjAyNSwzMTguNzUgWiBNNzM4Ljc3NSwzMTkuNDM3NSBMNzQzLjcxMjUsMzE5LjQzNzUgTDc0My43MTI1LDMxNy42ODc1IEw3MzguNzc1LDMxNy42ODc1IEw3MzguNzc1LDMxOS40Mzc1IFogIiBmaWxsPSIjMDAwMDAwIi8+PHRleHQgZmlsbD0iIzAwMDAwMCIgZm9udC1mYW1pbHk9InNhbnMtc2VyaWYiIGZvbnQtc2l6ZT0iMTQiIGxlbmd0aEFkanVzdD0ic3BhY2luZyIgdGV4dExlbmd0aD0iOTEiIHg9Ijc1OC44NSIgeT0iMzI4Ljc0MjIiPlNlcnZpY2VDaGFyZ2U8L3RleHQ+PGxpbmUgc3R5bGU9InN0cm9rZTojMTgxODE4O3N0cm9rZS13aWR0aDowLjU7IiB4MT0iNzEwLjUiIHgyPSI4NjguNSIgeTE9IjMzOSIgeTI9IjMzOSIvPjxyZWN0IGZpbGw9Im5vbmUiIGhlaWdodD0iNiIgc3R5bGU9InN0cm9rZTojQzgyOTMwO3N0cm9rZS13aWR0aDoxLjA7IiB3aWR0aD0iNiIgeD0iNzE3LjUiIHk9IjM0OC45OTIyIi8+PHRleHQgZmlsbD0iIzAwMDAwMCIgZm9udC1mYW1pbHk9InNhbnMtc2VyaWYiIGZvbnQtc2l6ZT0iMTQiIGxlbmd0aEFkanVzdD0ic3BhY2luZyIgdGV4dExlbmd0aD0iMTM0IiB4PSI3MjkuNSIgeT0iMzU2LjIzNDQiPnNlcnZpY2VOYW1lOiBTdHJpbmc8L3RleHQ+PHJlY3QgZmlsbD0ibm9uZSIgaGVpZ2h0PSI2IiBzdHlsZT0ic3Ryb2tlOiNDODI5MzA7c3Ryb2tlLXdpZHRoOjEuMDsiIHdpZHRoPSI2IiB4PSI3MTcuNSIgeT0iMzYzLjk3NjYiLz48dGV4dCBmaWxsPSIjMDAwMDAwIiBmb250LWZhbWlseT0ic2Fucy1zZXJpZiIgZm9udC1zaXplPSIxNCIgbGVuZ3RoQWRqdXN0PSJzcGFjaW5nIiB0ZXh0TGVuZ3RoPSI4NCIgeD0iNzI5LjUiIHk9IjM3MS4yMTg4Ij51bml0OiBTdHJpbmc8L3RleHQ+PHJlY3QgZmlsbD0ibm9uZSIgaGVpZ2h0PSI2IiBzdHlsZT0ic3Ryb2tlOiNDODI5MzA7c3Ryb2tlLXdpZHRoOjEuMDsiIHdpZHRoPSI2IiB4PSI3MTcuNSIgeT0iMzc4Ljk2MDkiLz48dGV4dCBmaWxsPSIjMDAwMDAwIiBmb250LWZhbWlseT0ic2Fucy1zZXJpZiIgZm9udC1zaXplPSIxNCIgbGVuZ3RoQWRqdXN0PSJzcGFjaW5nIiB0ZXh0TGVuZ3RoPSIxMTkiIHg9IjcyOS41IiB5PSIzODYuMjAzMSI+dW5pdFByaWNlOiBkb3VibGU8L3RleHQ+PHJlY3QgZmlsbD0ibm9uZSIgaGVpZ2h0PSI2IiBzdHlsZT0ic3Ryb2tlOiNDODI5MzA7c3Ryb2tlLXdpZHRoOjEuMDsiIHdpZHRoPSI2IiB4PSI3MTcuNSIgeT0iMzkzLjk0NTMiLz48dGV4dCBmaWxsPSIjMDAwMDAwIiBmb250LWZhbWlseT0ic2Fucy1zZXJpZiIgZm9udC1zaXplPSIxNCIgbGVuZ3RoQWRqdXN0PSJzcGFjaW5nIiB0ZXh0TGVuZ3RoPSI5MSIgeD0iNzI5LjUiIHk9IjQwMS4xODc1Ij5xdWFudGl0eTogaW50PC90ZXh0PjxyZWN0IGZpbGw9Im5vbmUiIGhlaWdodD0iNiIgc3R5bGU9InN0cm9rZTojQzgyOTMwO3N0cm9rZS13aWR0aDoxLjA7IiB3aWR0aD0iNiIgeD0iNzE3LjUiIHk9IjQwOC45Mjk3Ii8+PHRleHQgZmlsbD0iIzAwMDAwMCIgZm9udC1mYW1pbHk9InNhbnMtc2VyaWYiIGZvbnQtc2l6ZT0iMTQiIGxlbmd0aEFkanVzdD0ic3BhY2luZyIgdGV4dExlbmd0aD0iMTM0IiB4PSI3MjkuNSIgeT0iNDE2LjE3MTkiPnRvdGFsQW1vdW50OiBkb3VibGU8L3RleHQ+PGxpbmUgc3R5bGU9InN0cm9rZTojMTgxODE4O3N0cm9rZS13aWR0aDowLjU7IiB4MT0iNzEwLjUiIHgyPSI4NjguNSIgeTE9IjQyMS45MjE5IiB5Mj0iNDIxLjkyMTkiLz48L2c+PCEtLWNsYXNzIFBheW1lbnQtLT48ZyBpZD0iZWxlbV9QYXltZW50Ij48cmVjdCBjb2RlTGluZT0iNTQiIGZpbGw9IiNGMUYxRjEiIGhlaWdodD0iNzcuOTY4OCIgaWQ9IlBheW1lbnQiIHJ4PSIyLjUiIHJ5PSIyLjUiIHN0eWxlPSJzdHJva2U6IzE4MTgxODtzdHJva2Utd2lkdGg6MC41OyIgd2lkdGg9IjEyNSIgeD0iOTA1IiB5PSIzMjkuNSIvPjxlbGxpcHNlIGN4PSI5MzkuMzUiIGN5PSIzNDUuNSIgZmlsbD0iI0FERDFCMiIgcng9IjExIiByeT0iMTEiIHN0eWxlPSJzdHJva2U6IzE4MTgxODtzdHJva2Utd2lkdGg6MS4wOyIvPjxwYXRoIGQ9Ik05MzYuOTc1LDM0OS43NSBMOTM2Ljk3NSwzNTEuNSBMOTQxLjkxMjUsMzUxLjUgTDk0MS45MTI1LDM0OS43NSBMOTM2Ljk3NSwzNDkuNzUgWiBNOTM3LjY2MjUsMzUwLjQzNzUgUTkzNy42NjI1LDM1MC40Mzc1IDkzNy42NjI1LDM0MS4yNSBMOTM1LjkxMjUsMzQxLjI1IFE5MzUuOTEyNSwzNDEuMjUgOTM1LjkxMjUsMzUwLjQzNzUgTDkzNy42NjI1LDM1MC40Mzc1IFogTTk0MS4yMjUsMzUwLjQzNzUgTDk0Mi45NzUsMzUwLjQzNzUgUTk0Mi45NzUsMzUwLjQzNzUgOTQyLjk3NSwzNDcuNjI1IEw5NDEuMjI1LDM0Ny42MjUgUTk0MS4yMjUsMzQ3LjYyNSA5NDEuMjI1LDM1MC40Mzc1IFogTTk0MS4yMjUsMzQxLjI1IFE5NDEuMjI1LDM0MS4yNSA5NDEuMjI1LDM0NC4wNjI1IEw5NDIuOTc1LDM0NC4wNjI1IFE5NDIuOTc1LDM0NC4wNjI1IDk0Mi45NzUsMzQxLjI1IEw5NDEuMjI1LDM0MS4yNSBaIE05MzYuOTc1LDM0MS45Mzc1IEw5NDEuOTEyNSwzNDEuOTM3NSBMOTQxLjkxMjUsMzQwLjE4NzUgTDkzNi45NzUsMzQwLjE4NzUgTDkzNi45NzUsMzQxLjkzNzUgWiAiIGZpbGw9IiMwMDAwMDAiLz48dGV4dCBmaWxsPSIjMDAwMDAwIiBmb250LWZhbWlseT0ic2Fucy1zZXJpZiIgZm9udC1zaXplPSIxNCIgbGVuZ3RoQWRqdXN0PSJzcGFjaW5nIiB0ZXh0TGVuZ3RoPSI1MCIgeD0iOTU3LjY1IiB5PSIzNTEuMjQyMiI+UGF5bWVudDwvdGV4dD48bGluZSBzdHlsZT0ic3Ryb2tlOiMxODE4MTg7c3Ryb2tlLXdpZHRoOjAuNTsiIHgxPSI5MDYiIHgyPSIxMDI5IiB5MT0iMzYxLjUiIHkyPSIzNjEuNSIvPjxyZWN0IGZpbGw9Im5vbmUiIGhlaWdodD0iNiIgc3R5bGU9InN0cm9rZTojQzgyOTMwO3N0cm9rZS13aWR0aDoxLjA7IiB3aWR0aD0iNiIgeD0iOTEzIiB5PSIzNzEuNDkyMiIvPjx0ZXh0IGZpbGw9IiMwMDAwMDAiIGZvbnQtZmFtaWx5PSJzYW5zLXNlcmlmIiBmb250LXNpemU9IjE0IiBsZW5ndGhBZGp1c3Q9InNwYWNpbmciIHRleHRMZW5ndGg9IjcwIiB4PSI5MjUiIHk9IjM3OC43MzQ0Ij5kYXRlOiBEYXRlPC90ZXh0PjxyZWN0IGZpbGw9Im5vbmUiIGhlaWdodD0iNiIgc3R5bGU9InN0cm9rZTojQzgyOTMwO3N0cm9rZS13aWR0aDoxLjA7IiB3aWR0aD0iNiIgeD0iOTEzIiB5PSIzODYuNDc2NiIvPjx0ZXh0IGZpbGw9IiMwMDAwMDAiIGZvbnQtZmFtaWx5PSJzYW5zLXNlcmlmIiBmb250LXNpemU9IjE0IiBsZW5ndGhBZGp1c3Q9InNwYWNpbmciIHRleHRMZW5ndGg9Ijk5IiB4PSI5MjUiIHk9IjM5My43MTg4Ij5hbW91bnQ6IGRvdWJsZTwvdGV4dD48bGluZSBzdHlsZT0ic3Ryb2tlOiMxODE4MTg7c3Ryb2tlLXdpZHRoOjAuNTsiIHgxPSI5MDYiIHgyPSIxMDI5IiB5MT0iMzk5LjQ2ODgiIHkyPSIzOTkuNDY4OCIvPjwvZz48IS0tY2xhc3MgQmxhY2tsaXN0LS0+PGcgaWQ9ImVsZW1fQmxhY2tsaXN0Ij48cmVjdCBjb2RlTGluZT0iNjAiIGZpbGw9IiNGMUYxRjEiIGhlaWdodD0iNzcuOTY4OCIgaWQ9IkJsYWNrbGlzdCIgcng9IjIuNSIgcnk9IjIuNSIgc3R5bGU9InN0cm9rZTojMTgxODE4O3N0cm9rZS13aWR0aDowLjU7IiB3aWR0aD0iMTUzIiB4PSI3IiB5PSIzMjkuNSIvPjxlbGxpcHNlIGN4PSI0OC4xIiBjeT0iMzQ1LjUiIGZpbGw9IiNBREQxQjIiIHJ4PSIxMSIgcnk9IjExIiBzdHlsZT0ic3Ryb2tlOiMxODE4MTg7c3Ryb2tlLXdpZHRoOjEuMDsiLz48cGF0aCBkPSJNNDUuNzI1LDM0OS43NSBMNDUuNzI1LDM1MS41IEw1MC42NjI1LDM1MS41IEw1MC42NjI1LDM0OS43NSBMNDUuNzI1LDM0OS43NSBaIE00Ni40MTI1LDM1MC40Mzc1IFE0Ni40MTI1LDM1MC40Mzc1IDQ2LjQxMjUsMzQxLjI1IEw0NC42NjI1LDM0MS4yNSBRNDQuNjYyNSwzNDEuMjUgNDQuNjYyNSwzNTAuNDM3NSBMNDYuNDEyNSwzNTAuNDM3NSBaIE00OS45NzUsMzUwLjQzNzUgTDUxLjcyNSwzNTAuNDM3NSBRNTEuNzI1LDM1MC40Mzc1IDUxLjcyNSwzNDcuNjI1IEw0OS45NzUsMzQ3LjYyNSBRNDkuOTc1LDM0Ny42MjUgNDkuOTc1LDM1MC40Mzc1IFogTTQ5Ljk3NSwzNDEuMjUgUTQ5Ljk3NSwzNDEuMjUgNDkuOTc1LDM0NC4wNjI1IEw1MS43MjUsMzQ0LjA2MjUgUTUxLjcyNSwzNDQuMDYyNSA1MS43MjUsMzQxLjI1IEw0OS45NzUsMzQxLjI1IFogTTQ1LjcyNSwzNDEuOTM3NSBMNTAuNjYyNSwzNDEuOTM3NSBMNTAuNjYyNSwzNDAuMTg3NSBMNDUuNzI1LDM0MC4xODc1IEw0NS43MjUsMzQxLjkzNzUgWiAiIGZpbGw9IiMwMDAwMDAiLz48dGV4dCBmaWxsPSIjMDAwMDAwIiBmb250LWZhbWlseT0ic2Fucy1zZXJpZiIgZm9udC1zaXplPSIxNCIgbGVuZ3RoQWRqdXN0PSJzcGFjaW5nIiB0ZXh0TGVuZ3RoPSI2MyIgeD0iNjcuOSIgeT0iMzUxLjI0MjIiPkJsYWNrbGlzdDwvdGV4dD48bGluZSBzdHlsZT0ic3Ryb2tlOiMxODE4MTg7c3Ryb2tlLXdpZHRoOjAuNTsiIHgxPSI4IiB4Mj0iMTU5IiB5MT0iMzYxLjUiIHkyPSIzNjEuNSIvPjxyZWN0IGZpbGw9Im5vbmUiIGhlaWdodD0iNiIgc3R5bGU9InN0cm9rZTojQzgyOTMwO3N0cm9rZS13aWR0aDoxLjA7IiB3aWR0aD0iNiIgeD0iMTUiIHk9IjM3MS40OTIyIi8+PHRleHQgZmlsbD0iIzAwMDAwMCIgZm9udC1mYW1pbHk9InNhbnMtc2VyaWYiIGZvbnQtc2l6ZT0iMTQiIGxlbmd0aEFkanVzdD0ic3BhY2luZyIgdGV4dExlbmd0aD0iMTI3IiB4PSIyNyIgeT0iMzc4LjczNDQiPmN1c3RvbWVySWQ6IFN0cmluZzwvdGV4dD48cmVjdCBmaWxsPSJub25lIiBoZWlnaHQ9IjYiIHN0eWxlPSJzdHJva2U6I0M4MjkzMDtzdHJva2Utd2lkdGg6MS4wOyIgd2lkdGg9IjYiIHg9IjE1IiB5PSIzODYuNDc2NiIvPjx0ZXh0IGZpbGw9IiMwMDAwMDAiIGZvbnQtZmFtaWx5PSJzYW5zLXNlcmlmIiBmb250LXNpemU9IjE0IiBsZW5ndGhBZGp1c3Q9InNwYWNpbmciIHRleHRMZW5ndGg9IjExMiIgeD0iMjciIHk9IjM5My43MTg4Ij5jYW5jZWxEYXRlOiBEYXRlPC90ZXh0PjxsaW5lIHN0eWxlPSJzdHJva2U6IzE4MTgxODtzdHJva2Utd2lkdGg6MC41OyIgeDE9IjgiIHgyPSIxNTkiIHkxPSIzOTkuNDY4OCIgeTI9IjM5OS40Njg4Ii8+PC9nPjwhLS1jbGFzcyBDYW5jZWxsYXRpb24tLT48ZyBpZD0iZWxlbV9DYW5jZWxsYXRpb24iPjxyZWN0IGNvZGVMaW5lPSI2NSIgZmlsbD0iI0YxRjFGMSIgaGVpZ2h0PSI3Ny45Njg4IiBpZD0iQ2FuY2VsbGF0aW9uIiByeD0iMi41IiByeT0iMi41IiBzdHlsZT0ic3Ryb2tlOiMxODE4MTg7c3Ryb2tlLXdpZHRoOjAuNTsiIHdpZHRoPSIxMzgiIHg9IjIyMy41IiB5PSIzMjkuNSIvPjxlbGxpcHNlIGN4PSIyNDguNCIgY3k9IjM0NS41IiBmaWxsPSIjQUREMUIyIiByeD0iMTEiIHJ5PSIxMSIgc3R5bGU9InN0cm9rZTojMTgxODE4O3N0cm9rZS13aWR0aDoxLjA7Ii8+PHBhdGggZD0iTTI0Ni4wMjUsMzQ5Ljc1IEwyNDYuMDI1LDM1MS41IEwyNTAuOTYyNSwzNTEuNSBMMjUwLjk2MjUsMzQ5Ljc1IEwyNDYuMDI1LDM0OS43NSBaIE0yNDYuNzEyNSwzNTAuNDM3NSBRMjQ2LjcxMjUsMzUwLjQzNzUgMjQ2LjcxMjUsMzQxLjI1IEwyNDQuOTYyNSwzNDEuMjUgUTI0NC45NjI1LDM0MS4yNSAyNDQuOTYyNSwzNTAuNDM3NSBMMjQ2LjcxMjUsMzUwLjQzNzUgWiBNMjUwLjI3NSwzNTAuNDM3NSBMMjUyLjAyNSwzNTAuNDM3NSBRMjUyLjAyNSwzNTAuNDM3NSAyNTIuMDI1LDM0Ny42MjUgTDI1MC4yNzUsMzQ3LjYyNSBRMjUwLjI3NSwzNDcuNjI1IDI1MC4yNzUsMzUwLjQzNzUgWiBNMjUwLjI3NSwzNDEuMjUgUTI1MC4yNzUsMzQxLjI1IDI1MC4yNzUsMzQ0LjA2MjUgTDI1Mi4wMjUsMzQ0LjA2MjUgUTI1Mi4wMjUsMzQ0LjA2MjUgMjUyLjAyNSwzNDEuMjUgTDI1MC4yNzUsMzQxLjI1IFogTTI0Ni4wMjUsMzQxLjkzNzUgTDI1MC45NjI1LDM0MS45Mzc1IEwyNTAuOTYyNSwzNDAuMTg3NSBMMjQ2LjAyNSwzNDAuMTg3NSBMMjQ2LjAyNSwzNDEuOTM3NSBaICIgZmlsbD0iIzAwMDAwMCIvPjx0ZXh0IGZpbGw9IiMwMDAwMDAiIGZvbnQtZmFtaWx5PSJzYW5zLXNlcmlmIiBmb250LXNpemU9IjE0IiBsZW5ndGhBZGp1c3Q9InNwYWNpbmciIHRleHRMZW5ndGg9Ijg0IiB4PSIyNjQuNiIgeT0iMzUxLjI0MjIiPkNhbmNlbGxhdGlvbjwvdGV4dD48bGluZSBzdHlsZT0ic3Ryb2tlOiMxODE4MTg7c3Ryb2tlLXdpZHRoOjAuNTsiIHgxPSIyMjQuNSIgeDI9IjM2MC41IiB5MT0iMzYxLjUiIHkyPSIzNjEuNSIvPjxyZWN0IGZpbGw9Im5vbmUiIGhlaWdodD0iNiIgc3R5bGU9InN0cm9rZTojQzgyOTMwO3N0cm9rZS13aWR0aDoxLjA7IiB3aWR0aD0iNiIgeD0iMjMxLjUiIHk9IjM3MS40OTIyIi8+PHRleHQgZmlsbD0iIzAwMDAwMCIgZm9udC1mYW1pbHk9InNhbnMtc2VyaWYiIGZvbnQtc2l6ZT0iMTQiIGxlbmd0aEFkanVzdD0ic3BhY2luZyIgdGV4dExlbmd0aD0iMTEyIiB4PSIyNDMuNSIgeT0iMzc4LjczNDQiPmJvb2tpbmc6IEJvb2tpbmc8L3RleHQ+PHJlY3QgZmlsbD0ibm9uZSIgaGVpZ2h0PSI2IiBzdHlsZT0ic3Ryb2tlOiNDODI5MzA7c3Ryb2tlLXdpZHRoOjEuMDsiIHdpZHRoPSI2IiB4PSIyMzEuNSIgeT0iMzg2LjQ3NjYiLz48dGV4dCBmaWxsPSIjMDAwMDAwIiBmb250LWZhbWlseT0ic2Fucy1zZXJpZiIgZm9udC1zaXplPSIxNCIgbGVuZ3RoQWRqdXN0PSJzcGFjaW5nIiB0ZXh0TGVuZ3RoPSIxMTIiIHg9IjI0My41IiB5PSIzOTMuNzE4OCI+Y2FuY2VsRGF0ZTogRGF0ZTwvdGV4dD48bGluZSBzdHlsZT0ic3Ryb2tlOiMxODE4MTg7c3Ryb2tlLXdpZHRoOjAuNTsiIHgxPSIyMjQuNSIgeDI9IjM2MC41IiB5MT0iMzk5LjQ2ODgiIHkyPSIzOTkuNDY4OCIvPjwvZz48IS0tY2xhc3MgUmVwb3J0TWFuYWdlci0tPjxnIGlkPSJlbGVtX1JlcG9ydE1hbmFnZXIiPjxyZWN0IGNvZGVMaW5lPSI3MCIgZmlsbD0iI0YxRjFGMSIgaGVpZ2h0PSIxNjcuODc1IiBpZD0iUmVwb3J0TWFuYWdlciIgcng9IjIuNSIgcnk9IjIuNSIgc3R5bGU9InN0cm9rZTojMTgxODE4O3N0cm9rZS13aWR0aDowLjU7IiB3aWR0aD0iMzAzIiB4PSIxNzQ3IiB5PSIyODQuNSIvPjxlbGxpcHNlIGN4PSIxODQ4Ljc1IiBjeT0iMzAwLjUiIGZpbGw9IiNBREQxQjIiIHJ4PSIxMSIgcnk9IjExIiBzdHlsZT0ic3Ryb2tlOiMxODE4MTg7c3Ryb2tlLXdpZHRoOjEuMDsiLz48cGF0aCBkPSJNMTg0Ni4zNzUsMzA0Ljc1IEwxODQ2LjM3NSwzMDYuNSBMMTg1MS4zMTI1LDMwNi41IEwxODUxLjMxMjUsMzA0Ljc1IEwxODQ2LjM3NSwzMDQuNzUgWiBNMTg0Ny4wNjI1LDMwNS40Mzc1IFExODQ3LjA2MjUsMzA1LjQzNzUgMTg0Ny4wNjI1LDI5Ni4yNSBMMTg0NS4zMTI1LDI5Ni4yNSBRMTg0NS4zMTI1LDI5Ni4yNSAxODQ1LjMxMjUsMzA1LjQzNzUgTDE4NDcuMDYyNSwzMDUuNDM3NSBaIE0xODUwLjYyNSwzMDUuNDM3NSBMMTg1Mi4zNzUsMzA1LjQzNzUgUTE4NTIuMzc1LDMwNS40Mzc1IDE4NTIuMzc1LDMwMi42MjUgTDE4NTAuNjI1LDMwMi42MjUgUTE4NTAuNjI1LDMwMi42MjUgMTg1MC42MjUsMzA1LjQzNzUgWiBNMTg1MC42MjUsMjk2LjI1IFExODUwLjYyNSwyOTYuMjUgMTg1MC42MjUsMjk5LjA2MjUgTDE4NTIuMzc1LDI5OS4wNjI1IFExODUyLjM3NSwyOTkuMDYyNSAxODUyLjM3NSwyOTYuMjUgTDE4NTAuNjI1LDI5Ni4yNSBaIE0xODQ2LjM3NSwyOTYuOTM3NSBMMTg1MS4zMTI1LDI5Ni45Mzc1IEwxODUxLjMxMjUsMjk1LjE4NzUgTDE4NDYuMzc1LDI5NS4xODc1IEwxODQ2LjM3NSwyOTYuOTM3NSBaICIgZmlsbD0iIzAwMDAwMCIvPjx0ZXh0IGZpbGw9IiMwMDAwMDAiIGZvbnQtZmFtaWx5PSJzYW5zLXNlcmlmIiBmb250LXNpemU9IjE0IiBsZW5ndGhBZGp1c3Q9InNwYWNpbmciIHRleHRMZW5ndGg9IjkxIiB4PSIxODY5LjI1IiB5PSIzMDYuMjQyMiI+UmVwb3J0TWFuYWdlcjwvdGV4dD48bGluZSBzdHlsZT0ic3Ryb2tlOiMxODE4MTg7c3Ryb2tlLXdpZHRoOjAuNTsiIHgxPSIxNzQ4IiB4Mj0iMjA0OSIgeTE9IjMxNi41IiB5Mj0iMzE2LjUiLz48bGluZSBzdHlsZT0ic3Ryb2tlOiMxODE4MTg7c3Ryb2tlLXdpZHRoOjAuNTsiIHgxPSIxNzQ4IiB4Mj0iMjA0OSIgeTE9IjMyNC41IiB5Mj0iMzI0LjUiLz48ZWxsaXBzZSBjeD0iMTc1OCIgY3k9IjMzNy40OTIyIiBmaWxsPSIjODRCRTg0IiByeD0iMyIgcnk9IjMiIHN0eWxlPSJzdHJva2U6IzAzODA0ODtzdHJva2Utd2lkdGg6MS4wOyIvPjx0ZXh0IGZpbGw9IiMwMDAwMDAiIGZvbnQtZmFtaWx5PSJzYW5zLXNlcmlmIiBmb250LXNpemU9IjE0IiBsZW5ndGhBZGp1c3Q9InNwYWNpbmciIHRleHRMZW5ndGg9IjIwNiIgeD0iMTc2NyIgeT0iMzQxLjczNDQiPmdlbmVyYXRlUmV2ZW51ZVJlcG9ydEJ5VGltZSgpPC90ZXh0PjxlbGxpcHNlIGN4PSIxNzU4IiBjeT0iMzUyLjQ3NjYiIGZpbGw9IiM4NEJFODQiIHJ4PSIzIiByeT0iMyIgc3R5bGU9InN0cm9rZTojMDM4MDQ4O3N0cm9rZS13aWR0aDoxLjA7Ii8+PHRleHQgZmlsbD0iIzAwMDAwMCIgZm9udC1mYW1pbHk9InNhbnMtc2VyaWYiIGZvbnQtc2l6ZT0iMTQiIGxlbmd0aEFkanVzdD0ic3BhY2luZyIgdGV4dExlbmd0aD0iMjA2IiB4PSIxNzY3IiB5PSIzNTYuNzE4OCI+Z2VuZXJhdGVSZXZlbnVlUmVwb3J0QnlSb29tKCk8L3RleHQ+PGVsbGlwc2UgY3g9IjE3NTgiIGN5PSIzNjcuNDYwOSIgZmlsbD0iIzg0QkU4NCIgcng9IjMiIHJ5PSIzIiBzdHlsZT0ic3Ryb2tlOiMwMzgwNDg7c3Ryb2tlLXdpZHRoOjEuMDsiLz48dGV4dCBmaWxsPSIjMDAwMDAwIiBmb250LWZhbWlseT0ic2Fucy1zZXJpZiIgZm9udC1zaXplPSIxNCIgbGVuZ3RoQWRqdXN0PSJzcGFjaW5nIiB0ZXh0TGVuZ3RoPSIyMzQiIHg9IjE3NjciIHk9IjM3MS43MDMxIj5nZW5lcmF0ZVJldmVudWVSZXBvcnRCeVJvb21UeXBlKCk8L3RleHQ+PGVsbGlwc2UgY3g9IjE3NTgiIGN5PSIzODIuNDQ1MyIgZmlsbD0iIzg0QkU4NCIgcng9IjMiIHJ5PSIzIiBzdHlsZT0ic3Ryb2tlOiMwMzgwNDg7c3Ryb2tlLXdpZHRoOjEuMDsiLz48dGV4dCBmaWxsPSIjMDAwMDAwIiBmb250LWZhbWlseT0ic2Fucy1zZXJpZiIgZm9udC1zaXplPSIxNCIgbGVuZ3RoQWRqdXN0PSJzcGFjaW5nIiB0ZXh0TGVuZ3RoPSIyNDkiIHg9IjE3NjciIHk9IjM4Ni42ODc1Ij5nZW5lcmF0ZVJvb21PY2N1cGFuY3lSZXBvcnRCeVRpbWUoKTwvdGV4dD48ZWxsaXBzZSBjeD0iMTc1OCIgY3k9IjM5Ny40Mjk3IiBmaWxsPSIjODRCRTg0IiByeD0iMyIgcnk9IjMiIHN0eWxlPSJzdHJva2U6IzAzODA0ODtzdHJva2Utd2lkdGg6MS4wOyIvPjx0ZXh0IGZpbGw9IiMwMDAwMDAiIGZvbnQtZmFtaWx5PSJzYW5zLXNlcmlmIiBmb250LXNpemU9IjE0IiBsZW5ndGhBZGp1c3Q9InNwYWNpbmciIHRleHRMZW5ndGg9IjI0OSIgeD0iMTc2NyIgeT0iNDAxLjY3MTkiPmdlbmVyYXRlUm9vbU9jY3VwYW5jeVJlcG9ydEJ5Um9vbSgpPC90ZXh0PjxlbGxpcHNlIGN4PSIxNzU4IiBjeT0iNDEyLjQxNDEiIGZpbGw9IiM4NEJFODQiIHJ4PSIzIiByeT0iMyIgc3R5bGU9InN0cm9rZTojMDM4MDQ4O3N0cm9rZS13aWR0aDoxLjA7Ii8+PHRleHQgZmlsbD0iIzAwMDAwMCIgZm9udC1mYW1pbHk9InNhbnMtc2VyaWYiIGZvbnQtc2l6ZT0iMTQiIGxlbmd0aEFkanVzdD0ic3BhY2luZyIgdGV4dExlbmd0aD0iMjc3IiB4PSIxNzY3IiB5PSI0MTYuNjU2MyI+Z2VuZXJhdGVSb29tT2NjdXBhbmN5UmVwb3J0QnlSb29tVHlwZSgpPC90ZXh0PjxlbGxpcHNlIGN4PSIxNzU4IiBjeT0iNDI3LjM5ODQiIGZpbGw9IiM4NEJFODQiIHJ4PSIzIiByeT0iMyIgc3R5bGU9InN0cm9rZTojMDM4MDQ4O3N0cm9rZS13aWR0aDoxLjA7Ii8+PHRleHQgZmlsbD0iIzAwMDAwMCIgZm9udC1mYW1pbHk9InNhbnMtc2VyaWYiIGZvbnQtc2l6ZT0iMTQiIGxlbmd0aEFkanVzdD0ic3BhY2luZyIgdGV4dExlbmd0aD0iMjYzIiB4PSIxNzY3IiB5PSI0MzEuNjQwNiI+Z2VuZXJhdGVDdXN0b21lckJvb2tpbmdSZXBvcnRCeVRpbWUoKTwvdGV4dD48ZWxsaXBzZSBjeD0iMTc1OCIgY3k9IjQ0Mi4zODI4IiBmaWxsPSIjODRCRTg0IiByeD0iMyIgcnk9IjMiIHN0eWxlPSJzdHJva2U6IzAzODA0ODtzdHJva2Utd2lkdGg6MS4wOyIvPjx0ZXh0IGZpbGw9IiMwMDAwMDAiIGZvbnQtZmFtaWx5PSJzYW5zLXNlcmlmIiBmb250LXNpemU9IjE0IiBsZW5ndGhBZGp1c3Q9InNwYWNpbmciIHRleHRMZW5ndGg9IjI3NiIgeD0iMTc2NyIgeT0iNDQ2LjYyNSI+Z2VuZXJhdGVDdXN0b21lckJvb2tpbmdSZXBvcnRCeVNvdXJjZSgpPC90ZXh0PjwvZz48IS0tbGluayBIb3RlbFN0YWZmIHRvIFJlY2VwdGlvbmlzdC0tPjxnIGlkPSJsaW5rX0hvdGVsU3RhZmZfUmVjZXB0aW9uaXN0Ij48cGF0aCBjb2RlTGluZT0iODEiIGQ9Ik0xMTkyLjI1LDg3LjIyIEMxMTY5LjQyLDEwNC4xOCAxMTM4LjQ0LDEyNy4yMSAxMTE0LjcyLDE0NC44MyAiIGZpbGw9Im5vbmUiIGlkPSJIb3RlbFN0YWZmLXRvLVJlY2VwdGlvbmlzdCIgc3R5bGU9InN0cm9rZTojMTgxODE4O3N0cm9rZS13aWR0aDoxLjA7Ii8+PHBvbHlnb24gZmlsbD0iIzE4MTgxOCIgcG9pbnRzPSIxMTEwLjY4LDE0Ny44MywxMTIwLjI4ODcsMTQ1LjY2ODQsMTExNC42OTIsMTQ0Ljg0NiwxMTE1LjUxNDMsMTM5LjI0OTMsMTExMC42OCwxNDcuODMiIHN0eWxlPSJzdHJva2U6IzE4MTgxODtzdHJva2Utd2lkdGg6MS4wOyIvPjwvZz48IS0tbGluayBIb3RlbFN0YWZmIHRvIFNhbGVzU3RhZmYtLT48ZyBpZD0ibGlua19Ib3RlbFN0YWZmX1NhbGVzU3RhZmYiPjxwYXRoIGNvZGVMaW5lPSI4MiIgZD0iTTEyMjMuNSw4Ny4yMiBDMTIyMy41LDEwMy40OCAxMjIzLjUsMTI1LjMyIDEyMjMuNSwxNDIuNjIgIiBmaWxsPSJub25lIiBpZD0iSG90ZWxTdGFmZi10by1TYWxlc1N0YWZmIiBzdHlsZT0ic3Ryb2tlOiMxODE4MTg7c3Ryb2tlLXdpZHRoOjEuMDsiLz48cG9seWdvbiBmaWxsPSIjMTgxODE4IiBwb2ludHM9IjEyMjMuNSwxNDcuODMsMTIyNy41LDEzOC44MywxMjIzLjUsMTQyLjgzLDEyMTkuNSwxMzguODMsMTIyMy41LDE0Ny44MyIgc3R5bGU9InN0cm9rZTojMTgxODE4O3N0cm9rZS13aWR0aDoxLjA7Ii8+PC9nPjwhLS1saW5rIEhvdGVsU3RhZmYgdG8gTWFuYWdlci0tPjxnIGlkPSJsaW5rX0hvdGVsU3RhZmZfTWFuYWdlciI+PHBhdGggY29kZUxpbmU9IjgzIiBkPSJNMTI1MS4wNiw4Ny4yMiBDMTI3MS4wMywxMDQuMDQgMTI5OC4wNywxMjYuODMgMTMxOC45MSwxNDQuMzkgIiBmaWxsPSJub25lIiBpZD0iSG90ZWxTdGFmZi10by1NYW5hZ2VyIiBzdHlsZT0ic3Ryb2tlOiMxODE4MTg7c3Ryb2tlLXdpZHRoOjEuMDsiLz48cG9seWdvbiBmaWxsPSIjMTgxODE4IiBwb2ludHM9IjEzMjMsMTQ3LjgzLDEzMTguNjk1NCwxMzguOTcxNiwxMzE5LjE3NjYsMTQ0LjYwOCwxMzEzLjU0MDIsMTQ1LjA4OTIsMTMyMywxNDcuODMiIHN0eWxlPSJzdHJva2U6IzE4MTgxODtzdHJva2Utd2lkdGg6MS4wOyIvPjwvZz48IS0tbGluayBSZWNlcHRpb25pc3QgdG8gSG90ZWwtLT48ZyBpZD0ibGlua19SZWNlcHRpb25pc3RfSG90ZWwiPjxwYXRoIGNvZGVMaW5lPSI4NSIgZD0iTTEwODkuNywxOTYuMDggQzEwOTguMjksMjEyLjQgMTExMi4yNiwyMzMuMDggMTEzMS41LDI0MyBDMTE3MC42MiwyNjMuMTcgMTQ4Ny42NSwyMzIuMzIgMTUyNy41LDI1MSBDMTU1MS41OSwyNjIuMjkgMTU3Mi4xOSwyODIuMzcgMTU4OC4zOSwzMDIuNzIgIiBmaWxsPSJub25lIiBpZD0iUmVjZXB0aW9uaXN0LXRvLUhvdGVsIiBzdHlsZT0ic3Ryb2tlOiMxODE4MTg7c3Ryb2tlLXdpZHRoOjEuMDtzdHJva2UtZGFzaGFycmF5OjcuMCw3LjA7Ii8+PHBvbHlnb24gZmlsbD0iIzE4MTgxOCIgcG9pbnRzPSIxNTkxLjU3LDMwNi43OSwxNTg5LjE5NDgsMjk3LjIzMTksMTU4OC40OTczLDMwMi44NDU1LDE1ODIuODgzNiwzMDIuMTQ4MSwxNTkxLjU3LDMwNi43OSIgc3R5bGU9InN0cm9rZTojMTgxODE4O3N0cm9rZS13aWR0aDoxLjA7Ii8+PHRleHQgZmlsbD0iIzAwMDAwMCIgZm9udC1mYW1pbHk9InNhbnMtc2VyaWYiIGZvbnQtc2l6ZT0iMTMiIGxlbmd0aEFkanVzdD0ic3BhY2luZyIgdGV4dExlbmd0aD0iNDgiIHg9IjExMzIuNSIgeT0iMjQxLjI4OTEiPm1hbmFnZXM8L3RleHQ+PC9nPjwhLS1saW5rIFNhbGVzU3RhZmYgdG8gSG90ZWwtLT48ZyBpZD0ibGlua19TYWxlc1N0YWZmX0hvdGVsIj48cGF0aCBjb2RlTGluZT0iODYiIGQ9Ik0xMjUwLjIzLDE5Ni4wMSBDMTI2Mi4zNCwyMDUuMTEgMTI3Ny4zMiwyMTQuNjYgMTI5Mi41LDIyMCBDMTMzNC45NywyMzQuOTUgMTM0OS45NywyMTYuNDggMTM5My41LDIyOCBDMTQwOC42OCwyMzIuMDIgMTQxMC4zMSwyMzguOTkgMTQyNS41LDI0MyBDMTQ0Ny40OCwyNDguODEgMTUwNy4yLDI0MC43NiAxNTI3LjUsMjUxIEMxNTUxLjAyLDI2Mi44NyAxNTcxLjM5LDI4Mi44NCAxNTg3LjU1LDMwMi45MiAiIGZpbGw9Im5vbmUiIGlkPSJTYWxlc1N0YWZmLXRvLUhvdGVsIiBzdHlsZT0ic3Ryb2tlOiMxODE4MTg7c3Ryb2tlLXdpZHRoOjEuMDtzdHJva2UtZGFzaGFycmF5OjcuMCw3LjA7Ii8+PHBvbHlnb24gZmlsbD0iIzE4MTgxOCIgcG9pbnRzPSIxNTkwLjcyLDMwNi45NCwxNTg4LjI4NSwyOTcuMzk2OSwxNTg3LjYyMjcsMzAzLjAxNDksMTU4Mi4wMDQ4LDMwMi4zNTI2LDE1OTAuNzIsMzA2Ljk0IiBzdHlsZT0ic3Ryb2tlOiMxODE4MTg7c3Ryb2tlLXdpZHRoOjEuMDsiLz48dGV4dCBmaWxsPSIjMDAwMDAwIiBmb250LWZhbWlseT0ic2Fucy1zZXJpZiIgZm9udC1zaXplPSIxMyIgbGVuZ3RoQWRqdXN0PSJzcGFjaW5nIiB0ZXh0TGVuZ3RoPSI0OCIgeD0iMTQyNi41IiB5PSIyNDEuMjg5MSI+bWFuYWdlczwvdGV4dD48L2c+PCEtLWxpbmsgTWFuYWdlciB0byBIb3RlbC0tPjxnIGlkPSJsaW5rX01hbmFnZXJfSG90ZWwiPjxwYXRoIGNvZGVMaW5lPSI4NyIgZD0iTTEzOTEsMTc0LjMyIEMxNDY0LjcyLDE3Ny42NSAxNjE2LjE5LDE4OS4xOCAxNjQ4LjUsMjI4IEMxNjY1LjM3LDI0OC4yNyAxNjY0LjQ5LDI3Ni4yMSAxNjU3LjgxLDMwMS43NyAiIGZpbGw9Im5vbmUiIGlkPSJNYW5hZ2VyLXRvLUhvdGVsIiBzdHlsZT0ic3Ryb2tlOiMxODE4MTg7c3Ryb2tlLXdpZHRoOjEuMDtzdHJva2UtZGFzaGFycmF5OjcuMCw3LjA7Ii8+PHBvbHlnb24gZmlsbD0iIzE4MTgxOCIgcG9pbnRzPSIxNjU2LjQsMzA2Ljg0LDE2NjIuNjUwMSwyOTkuMjI4NCwxNjU3LjczMDEsMzAyLjAyMDIsMTY1NC45MzgzLDI5Ny4xMDAyLDE2NTYuNCwzMDYuODQiIHN0eWxlPSJzdHJva2U6IzE4MTgxODtzdHJva2Utd2lkdGg6MS4wOyIvPjx0ZXh0IGZpbGw9IiMwMDAwMDAiIGZvbnQtZmFtaWx5PSJzYW5zLXNlcmlmIiBmb250LXNpemU9IjEzIiBsZW5ndGhBZGp1c3Q9InNwYWNpbmciIHRleHRMZW5ndGg9IjQ4IiB4PSIxNjU2LjUiIHk9IjI0MS4yODkxIj5tYW5hZ2VzPC90ZXh0PjwvZz48IS0tbGluayBNYW5hZ2VyIHRvIEhvdGVsLS0+PGcgaWQ9ImxpbmtfTWFuYWdlcl9Ib3RlbCI+PHBhdGggY29kZUxpbmU9Ijk4IiBkPSJNMTM5MS4yOSwxNzIuODIgQzE0NzcuMjIsMTczLjQgMTY3Mi4zMSwxODAuMDkgMTcxMy41LDIyOCBDMTczMi45OCwyNTAuNjYgMTcyMi4wMywyNzguMjkgMTcwMi4zOSwzMDIuOTcgIiBmaWxsPSJub25lIiBpZD0iTWFuYWdlci10by1Ib3RlbC0xIiBzdHlsZT0ic3Ryb2tlOiMxODE4MTg7c3Ryb2tlLXdpZHRoOjEuMDsiLz48cG9seWdvbiBmaWxsPSIjMTgxODE4IiBwb2ludHM9IjE2OTkuMTcsMzA2LjkxLDE3MDcuOTc1NywzMDIuNDk4NiwxNzAyLjM0NTUsMzAzLjA0NzksMTcwMS43OTYyLDI5Ny40MTc3LDE2OTkuMTcsMzA2LjkxIiBzdHlsZT0ic3Ryb2tlOiMxODE4MTg7c3Ryb2tlLXdpZHRoOjEuMDsiLz48dGV4dCBmaWxsPSIjMDAwMDAwIiBmb250LWZhbWlseT0ic2Fucy1zZXJpZiIgZm9udC1zaXplPSIxMyIgbGVuZ3RoQWRqdXN0PSJzcGFjaW5nIiB0ZXh0TGVuZ3RoPSI0OCIgeD0iMTcyMi41IiB5PSIyNDEuMjg5MSI+bWFuYWdlczwvdGV4dD48L2c+PCEtLWxpbmsgUmVjZXB0aW9uaXN0IHRvIFJvb20tLT48ZyBpZD0ibGlua19SZWNlcHRpb25pc3RfUm9vbSI+PHBhdGggY29kZUxpbmU9Ijg4IiBkPSJNMTAzMC4xMywxOTYuMTYgQzEwMDcuOTIsMjA5LjU2IDk4OS44MywyMjYuOTEgMTAwNS41LDI0MyBDMTAxNy4zNywyNTUuMTggMTI5NiwyNDMuOTkgMTMxMS41LDI1MSBDMTMzMy40NiwyNjAuOTMgMTM1My4wMSwyNzcuNjYgMTM2OS4yNCwyOTUuMzggIiBmaWxsPSJub25lIiBpZD0iUmVjZXB0aW9uaXN0LXRvLVJvb20iIHN0eWxlPSJzdHJva2U6IzE4MTgxODtzdHJva2Utd2lkdGg6MS4wO3N0cm9rZS1kYXNoYXJyYXk6Ny4wLDcuMDsiLz48cG9seWdvbiBmaWxsPSIjMTgxODE4IiBwb2ludHM9IjEzNzIuODcsMjk5LjQyLDEzNjkuODIyNSwyOTAuMDU0NSwxMzY5LjUyNTIsMjk1LjcwMzUsMTM2My44NzYxLDI5NS40MDYyLDEzNzIuODcsMjk5LjQyIiBzdHlsZT0ic3Ryb2tlOiMxODE4MTg7c3Ryb2tlLXdpZHRoOjEuMDsiLz48dGV4dCBmaWxsPSIjMDAwMDAwIiBmb250LWZhbWlseT0ic2Fucy1zZXJpZiIgZm9udC1zaXplPSIxMyIgbGVuZ3RoQWRqdXN0PSJzcGFjaW5nIiB0ZXh0TGVuZ3RoPSI1NiIgeD0iMTAwNi41IiB5PSIyNDEuMjg5MSI+c2VhcmNoZXM8L3RleHQ+PC9nPjwhLS1saW5rIFJlY2VwdGlvbmlzdCB0byBCb29raW5nLS0+PGcgaWQ9ImxpbmtfUmVjZXB0aW9uaXN0X0Jvb2tpbmciPjxwYXRoIGNvZGVMaW5lPSI4OSIgZD0iTTEwMjEuMjgsMTcyLjYxIEM5MDguMDksMTcyLjk1IDY2My42MiwxNzkuNDggNTk3LjUsMjI4IEM1NzcuNzUsMjQyLjQ5IDU2NC4xOCwyNjQuNyA1NTQuOSwyODcuMTcgIiBmaWxsPSJub25lIiBpZD0iUmVjZXB0aW9uaXN0LXRvLUJvb2tpbmciIHN0eWxlPSJzdHJva2U6IzE4MTgxODtzdHJva2Utd2lkdGg6MS4wO3N0cm9rZS1kYXNoYXJyYXk6Ny4wLDcuMDsiLz48cG9seWdvbiBmaWxsPSIjMTgxODE4IiBwb2ludHM9IjU1Mi45OSwyOTEuOTcsNTYwLjA0NjQsMjg1LjA5OTMsNTU0Ljg0NywyODcuMzI3Niw1NTIuNjE4NiwyODIuMTI4MSw1NTIuOTksMjkxLjk3IiBzdHlsZT0ic3Ryb2tlOiMxODE4MTg7c3Ryb2tlLXdpZHRoOjEuMDsiLz48dGV4dCBmaWxsPSIjMDAwMDAwIiBmb250LWZhbWlseT0ic2Fucy1zZXJpZiIgZm9udC1zaXplPSIxMyIgbGVuZ3RoQWRqdXN0PSJzcGFjaW5nIiB0ZXh0TGVuZ3RoPSIxNjkiIHg9IjU5OC41IiB5PSIyNDEuMjg5MSI+Y3JlYXRlcywgdXBkYXRlcywgZGVsZXRlczwvdGV4dD48L2c+PCEtLWxpbmsgUmVjZXB0aW9uaXN0IHRvIEN1c3RvbWVyLS0+PGcgaWQ9ImxpbmtfUmVjZXB0aW9uaXN0X0N1c3RvbWVyIj48cGF0aCBjb2RlTGluZT0iOTAiIGQ9Ik0xMDIxLjI0LDE3OC44MSBDOTYwLjg5LDE4Ni45OCA4ODAuMDEsMjA1LjMgOTE1LjUsMjQzIEM5MjUuNTcsMjUzLjcgMTAzMy45MiwyNDUuMzkgMTA0Ny41LDI1MSBDMTA2OC43NywyNTkuNzkgMTA4OC45NSwyNzMuNDkgMTEwNi44NCwyODguNDUgIiBmaWxsPSJub25lIiBpZD0iUmVjZXB0aW9uaXN0LXRvLUN1c3RvbWVyIiBzdHlsZT0ic3Ryb2tlOiMxODE4MTg7c3Ryb2tlLXdpZHRoOjEuMDtzdHJva2UtZGFzaGFycmF5OjcuMCw3LjA7Ii8+PHBvbHlnb24gZmlsbD0iIzE4MTgxOCIgcG9pbnRzPSIxMTEwLjg2LDI5MS44NiwxMTA2LjU3NDgsMjgyLjk5MjMsMTEwNy4wNDM2LDI4OC42Mjk2LDExMDEuNDA2MiwyODkuMDk4NSwxMTEwLjg2LDI5MS44NiIgc3R5bGU9InN0cm9rZTojMTgxODE4O3N0cm9rZS13aWR0aDoxLjA7Ii8+PHRleHQgZmlsbD0iIzAwMDAwMCIgZm9udC1mYW1pbHk9InNhbnMtc2VyaWYiIGZvbnQtc2l6ZT0iMTMiIGxlbmd0aEFkanVzdD0ic3BhY2luZyIgdGV4dExlbmd0aD0iNDgiIHg9IjkxNi41IiB5PSIyNDEuMjg5MSI+bWFuYWdlczwvdGV4dD48L2c+PCEtLWxpbmsgUmVjZXB0aW9uaXN0IHRvIFBheW1lbnQtLT48ZyBpZD0ibGlua19SZWNlcHRpb25pc3RfUGF5bWVudCI+PHBhdGggY29kZUxpbmU9IjkxIiBkPSJNMTAyMS4xOCwxNzUuMTcgQzk0MywxNzkuNDUgODEwLjUyLDE5MS45NSA3ODAuNSwyMjggQzc3Ni4yMywyMzMuMTIgNzc1Ljk3LDIzOC4xMSA3ODAuNSwyNDMgQzc5Ni43MiwyNjAuNDggODY2LjgzLDIzOS4xMSA4ODcuNSwyNTEgQzkxNi4wMywyNjcuNDEgOTM2LjYzLDI5OC42MSA5NDkuNzcsMzI0LjYgIiBmaWxsPSJub25lIiBpZD0iUmVjZXB0aW9uaXN0LXRvLVBheW1lbnQiIHN0eWxlPSJzdHJva2U6IzE4MTgxODtzdHJva2Utd2lkdGg6MS4wO3N0cm9rZS1kYXNoYXJyYXk6Ny4wLDcuMDsiLz48cG9seWdvbiBmaWxsPSIjMTgxODE4IiBwb2ludHM9Ijk1Mi4xNCwzMjkuMzgsOTUxLjczMDYsMzE5LjUzOTcsOTQ5LjkyMTEsMzI0Ljg5OTMsOTQ0LjU2MTUsMzIzLjA4OTksOTUyLjE0LDMyOS4zOCIgc3R5bGU9InN0cm9rZTojMTgxODE4O3N0cm9rZS13aWR0aDoxLjA7Ii8+PHRleHQgZmlsbD0iIzAwMDAwMCIgZm9udC1mYW1pbHk9InNhbnMtc2VyaWYiIGZvbnQtc2l6ZT0iMTMiIGxlbmd0aEFkanVzdD0ic3BhY2luZyIgdGV4dExlbmd0aD0iMTE2IiB4PSI3ODEuNSIgeT0iMjQxLjI4OTEiPmdlbmVyYXRlcyBpbnZvaWNlPC90ZXh0PjwvZz48IS0tbGluayBSZWNlcHRpb25pc3QgdG8gQ2FuY2VsbGF0aW9uLS0+PGcgaWQ9ImxpbmtfUmVjZXB0aW9uaXN0X0NhbmNlbGxhdGlvbiI+PHBhdGggY29kZUxpbmU9IjkyIiBkPSJNMTAyMS4zNSwxNzQuMDQgQzg4MC43NSwxNzcuMTcgNTI1Ljc1LDE4OC44MiA0MTQuNSwyMjggQzM2OC42MSwyNDQuMTYgMzM0LjM3LDI4OS45IDMxNC4wMiwzMjQuNjQgIiBmaWxsPSJub25lIiBpZD0iUmVjZXB0aW9uaXN0LXRvLUNhbmNlbGxhdGlvbiIgc3R5bGU9InN0cm9rZTojMTgxODE4O3N0cm9rZS13aWR0aDoxLjA7Ii8+PHBvbHlnb24gZmlsbD0iIzE4MTgxOCIgcG9pbnRzPSIzMTEuMzcsMzI5LjI1LDMxOS4zMzUsMzIzLjQ1NywzMTMuODcwNywzMjQuOTIwMywzMTIuNDA3NCwzMTkuNDU1OSwzMTEuMzcsMzI5LjI1IiBzdHlsZT0ic3Ryb2tlOiMxODE4MTg7c3Ryb2tlLXdpZHRoOjEuMDsiLz48dGV4dCBmaWxsPSIjMDAwMDAwIiBmb250LWZhbWlseT0ic2Fucy1zZXJpZiIgZm9udC1zaXplPSIxMyIgbGVuZ3RoQWRqdXN0PSJzcGFjaW5nIiB0ZXh0TGVuZ3RoPSIxNTciIHg9IjQxNS41IiB5PSIyNDEuMjg5MSI+cHJvY2Vzc2VzIGNhbmNlbGxhdGlvbnM8L3RleHQ+PC9nPjwhLS1saW5rIFJlY2VwdGlvbmlzdCB0byBCbGFja2xpc3QtLT48ZyBpZD0ibGlua19SZWNlcHRpb25pc3RfQmxhY2tsaXN0Ij48cGF0aCBjb2RlTGluZT0iOTMiIGQ9Ik0xMDIxLjQ2LDE3My42NSBDODM0LjMsMTc2LjE2IDI1NC41MiwxODcuMTcgMTgxLjUsMjI4IEMxNDMuNTgsMjQ5LjIgMTE2LjkzLDI5MS45NSAxMDEuMDksMzI0LjU3ICIgZmlsbD0ibm9uZSIgaWQ9IlJlY2VwdGlvbmlzdC10by1CbGFja2xpc3QiIHN0eWxlPSJzdHJva2U6IzE4MTgxODtzdHJva2Utd2lkdGg6MS4wOyIvPjxwb2x5Z29uIGZpbGw9IiMxODE4MTgiIHBvaW50cz0iOTguODMsMzI5LjMsMTA2LjMwMywzMjIuODg0OCwxMDAuOTc0MSwzMjQuNzgzMSw5OS4wNzU5LDMxOS40NTQyLDk4LjgzLDMyOS4zIiBzdHlsZT0ic3Ryb2tlOiMxODE4MTg7c3Ryb2tlLXdpZHRoOjEuMDsiLz48dGV4dCBmaWxsPSIjMDAwMDAwIiBmb250LWZhbWlseT0ic2Fucy1zZXJpZiIgZm9udC1zaXplPSIxMyIgbGVuZ3RoQWRqdXN0PSJzcGFjaW5nIiB0ZXh0TGVuZ3RoPSIxOTYiIHg9IjE4Mi41IiB5PSIyNDEuMjg5MSI+bWFuYWdlcyBibGFja2xpc3RlZCBjdXN0b21lcnM8L3RleHQ+PC9nPjwhLS1saW5rIFNhbGVzU3RhZmYgdG8gUm9vbS0tPjxnIGlkPSJsaW5rX1NhbGVzU3RhZmZfUm9vbSI+PHBhdGggY29kZUxpbmU9Ijk1IiBkPSJNMTIzOC4xNCwxOTYuMzEgQzEyNDguOTIsMjExLjY3IDEyNjQuOTEsMjMxLjA4IDEyODMuNSwyNDMgQzEyOTQuMzksMjQ5Ljk5IDEzMDAuNDcsMjQ0LjIzIDEzMTEuNSwyNTEgQzEzMzAuNzMsMjYyLjgxIDEzNDguNywyNzguOTcgMTM2NC4yNSwyOTUuNDkgIiBmaWxsPSJub25lIiBpZD0iU2FsZXNTdGFmZi10by1Sb29tIiBzdHlsZT0ic3Ryb2tlOiMxODE4MTg7c3Ryb2tlLXdpZHRoOjEuMDtzdHJva2UtZGFzaGFycmF5OjcuMCw3LjA7Ii8+PHBvbHlnb24gZmlsbD0iIzE4MTgxOCIgcG9pbnRzPSIxMzY3LjczLDI5OS4yNCwxMzY0LjUzMTUsMjg5LjkyNSwxMzY0LjMyNTYsMjk1LjU3ODEsMTM1OC42NzI0LDI5NS4zNzIxLDEzNjcuNzMsMjk5LjI0IiBzdHlsZT0ic3Ryb2tlOiMxODE4MTg7c3Ryb2tlLXdpZHRoOjEuMDsiLz48dGV4dCBmaWxsPSIjMDAwMDAwIiBmb250LWZhbWlseT0ic2Fucy1zZXJpZiIgZm9udC1zaXplPSIxMyIgbGVuZ3RoQWRqdXN0PSJzcGFjaW5nIiB0ZXh0TGVuZ3RoPSIxMDQiIHg9IjEyODQuNSIgeT0iMjQxLjI4OTEiPnNlYXJjaGVzLCBib29rczwvdGV4dD48L2c+PCEtLWxpbmsgU2FsZXNTdGFmZiB0byBDdXN0b21lci0tPjxnIGlkPSJsaW5rX1NhbGVzU3RhZmZfQ3VzdG9tZXIiPjxwYXRoIGNvZGVMaW5lPSI5NiIgZD0iTTEyMDguMTgsMTk2LjE3IEMxMjAyLjYzLDIwNS42NiAxMTk2LjksMjE2Ljk4IDExOTMuNSwyMjggQzExODcuNzksMjQ2LjQ5IDExODQuMjcsMjY2Ljk2IDExODIuMTQsMjg2LjM5ICIgZmlsbD0ibm9uZSIgaWQ9IlNhbGVzU3RhZmYtdG8tQ3VzdG9tZXIiIHN0eWxlPSJzdHJva2U6IzE4MTgxODtzdHJva2Utd2lkdGg6MS4wO3N0cm9rZS1kYXNoYXJyYXk6Ny4wLDcuMDsiLz48cG9seWdvbiBmaWxsPSIjMTgxODE4IiBwb2ludHM9IjExODEuNTcsMjkxLjg0LDExODYuNDc0OSwyODMuMjk5NCwxMTgyLjA4NDUsMjg2Ljg2NjUsMTE3OC41MTczLDI4Mi40NzYyLDExODEuNTcsMjkxLjg0IiBzdHlsZT0ic3Ryb2tlOiMxODE4MTg7c3Ryb2tlLXdpZHRoOjEuMDsiLz48dGV4dCBmaWxsPSIjMDAwMDAwIiBmb250LWZhbWlseT0ic2Fucy1zZXJpZiIgZm9udC1zaXplPSIxMyIgbGVuZ3RoQWRqdXN0PSJzcGFjaW5nIiB0ZXh0TGVuZ3RoPSI0OCIgeD0iMTE5NC41IiB5PSIyNDEuMjg5MSI+bWFuYWdlczwvdGV4dD48L2c+PCEtLWxpbmsgTWFuYWdlciB0byBSb29tLS0+PGcgaWQ9ImxpbmtfTWFuYWdlcl9Sb29tIj48cGF0aCBjb2RlTGluZT0iOTkiIGQ9Ik0xMzkxLjIsMTc3LjgyIEMxNDIyLjI2LDE4My44NiAxNDYzLjA4LDE5Ny40NyAxNDgzLjUsMjI4IEMxNDk3LjI1LDI0OC41NiAxNDkyLjYxLDI3Mi41NSAxNDgxLjEyLDI5NC43NyAiIGZpbGw9Im5vbmUiIGlkPSJNYW5hZ2VyLXRvLVJvb20iIHN0eWxlPSJzdHJva2U6IzE4MTgxODtzdHJva2Utd2lkdGg6MS4wOyIvPjxwb2x5Z29uIGZpbGw9IiMxODE4MTgiIHBvaW50cz0iMTQ3OC43MywyOTkuMiwxNDg2LjUzNjIsMjkzLjE5NDgsMTQ4MS4xMTMzLDI5NC44MDQ1LDE0NzkuNTAzNSwyODkuMzgxNiwxNDc4LjczLDI5OS4yIiBzdHlsZT0ic3Ryb2tlOiMxODE4MTg7c3Ryb2tlLXdpZHRoOjEuMDsiLz48dGV4dCBmaWxsPSIjMDAwMDAwIiBmb250LWZhbWlseT0ic2Fucy1zZXJpZiIgZm9udC1zaXplPSIxMyIgbGVuZ3RoQWRqdXN0PSJzcGFjaW5nIiB0ZXh0TGVuZ3RoPSIxNDkiIHg9IjE0OTAuNSIgeT0iMjQxLjI4OTEiPmFkZHMsIHVwZGF0ZXMsIGRlbGV0ZXM8L3RleHQ+PC9nPjwhLS1saW5rIE1hbmFnZXIgdG8gUmVwb3J0TWFuYWdlci0tPjxnIGlkPSJsaW5rX01hbmFnZXJfUmVwb3J0TWFuYWdlciI+PHBhdGggY29kZUxpbmU9IjEwMCIgZD0iTTEzOTEuMTYsMTc0LjUxIEMxNDg0LjgyLDE3OC41NiAxNzEyLjg4LDE5MS45NSAxNzc5LjUsMjI4IEMxODAyLjk5LDI0MC43MSAxODIzLjg3LDI2MC4wOCAxODQxLjMyLDI4MC4zNyAiIGZpbGw9Im5vbmUiIGlkPSJNYW5hZ2VyLXRvLVJlcG9ydE1hbmFnZXIiIHN0eWxlPSJzdHJva2U6IzE4MTgxODtzdHJva2Utd2lkdGg6MS4wOyIvPjxwb2x5Z29uIGZpbGw9IiMxODE4MTgiIHBvaW50cz0iMTg0NC43NiwyODQuNDQsMTg0MS45OTg1LDI3NC45ODYyLDE4NDEuNTI5NiwyODAuNjIzNiwxODM1Ljg5MjMsMjgwLjE1NDgsMTg0NC43NiwyODQuNDQiIHN0eWxlPSJzdHJva2U6IzE4MTgxODtzdHJva2Utd2lkdGg6MS4wOyIvPjx0ZXh0IGZpbGw9IiMwMDAwMDAiIGZvbnQtZmFtaWx5PSJzYW5zLXNlcmlmIiBmb250LXNpemU9IjEzIiBsZW5ndGhBZGp1c3Q9InNwYWNpbmciIHRleHRMZW5ndGg9IjEwMyIgeD0iMTgwMC41IiB5PSIyNDEuMjg5MSI+bWFuYWdlcyByZXBvcnRzPC90ZXh0PjwvZz48IS0tU1JDPVtaTExSUmppbTRGcE5BT1h5ak1ZUzBtWTVXSmVqYTAxajRqWmYwTVhnUkhFY0k4S0YwcUJIa3RTYmFSSDRxTlBfV2Nac0RKbFNOSlVLN1VhVW9EcmwwemhTYUp5NThLbkdPeVlKaVkwc2JrdnM0TGUzV3lQbzlSY240VG5HME1SZ3p1akFwQWNCbHFOSFhGbV9mRU1NbXhuNF9xdDhXYVhRR3Fhc0xkRXZ6bjJqQVd0NjlBWW5MQS1mSFEwYU41Z0ZMYzJPdlpzem45X05vMDJKXzRKUU5tVkI0YXQ4QlpRY0wxcnZRRm51U1ZLTVQ5QWRDeG90Sktmb0ltc3lRU3VHaHZKUjJXV3FHUHlHZEhVLW1UUWliM2YyTFBBaktXQWVkNTl6VENRZzZkSWFvd2lxR1BLWGtORDJsRm9sbUNyMUlTWEFPMWZXZDhlclYzV21EanlRcVp4WVBwMmtYaXo0U096RUgyX3hUXzAweXRzTWlVRFdFMDB4RmlsbHI2OHB0VHluX2toaXA2MkxmVTlSaFBvcTVyeGV5SzNybGJEeXc2UDAxcDBxclQyczFjY1ZxNDdmcmRrLTNNM0lzWUctRGtYaFBUeDBJTXVwSzZ3YUZYcGpyZ1dUcHRzLWxINFZwcDhvZ0xBMXczbU9tX3F4MkxuV1dTdHN1VVRkVUh2RjdTOUtDWDBad01FMm56dVlRM1ZmRmVTVmEzOENtT3FDUXNZS2psd2N6MmMtYTNyOHFFWXJYWEQ4MXVGQmdkdGRETnB3VkNzWmN4M1I3anEyZkx1OGxwQmM2a0pQTmdrTnl5akxsVUlOZ0hxc21FanJmVmU1cHVyb2NkTS1BRWh2aGZGNU9aY3p3T2JqVERlSkl4Wm1uSllTRjNtaV9LcWxJVHJ4Y0VBUzhzaUVwdmdwcE5CdFB4aDRMUThRanB0WjRBdkFJUFc2YkNGUzR6VEttcHlMMkIydmU3WEhockdFRXJINmZHc2t1NGRYWWF3VEV0NGM4ci1JSFlreUNHT1pzQ1hXdmQ3ZE5PakNvM1BXS0NOVENxTWdRWUJDVlJ6WUMtcXBaS1J6a19nTnRnT1ZhdzQyX2J4YUQ5cnVKalJydDhka1NWQ0ZdLS0+PC9nPjwvc3ZnPg==;" vertex="1" parent="1">
            <mxGeometry x="740" y="-1160" width="2057" height="468" as="geometry" />
          </mxCell>
        </UserObject>
        <UserObject label="" plantUmlData="{&quot;data&quot;:&quot;@startuml\nallowmixing\nskinparam packageStyle rectangle\ntop to bottom direction\n\npackage \&quot;Users\&quot; {\n  class HotelStaff\n  class Receptionist\n  class SalesStaff\n  class Manager\n}\n\npackage \&quot;Entities\&quot; {\n  class Hotel {\n    - name: String\n    - address: String\n    - starRating: int\n    - description: String\n    - images: List&lt;String&gt;\n  }\n\n  class Room {\n    - roomNumber: String\n    - roomType: String\n    - basePrice: double\n    - services: List&lt;String&gt;\n    - description: String\n    - isBooked: boolean\n  }\n\n  class Customer {\n    - id: String\n    - idType: String\n    - fullName: String\n    - address: String\n    - phoneNumber: String\n    - specialRequests: List&lt;String&gt;\n    - bookings: List&lt;Booking&gt;\n  }\n\n  class Booking {\n    - room: Room\n    - customer: Customer\n    - checkInDate: Date\n    - checkOutDate: Date\n    - totalAmount: double\n    - servicesCharged: List&lt;ServiceCharge&gt;\n    - paymentHistory: List&lt;Payment&gt;\n  }\n\n  class ServiceCharge {\n    - serviceName: String\n    - unit: String\n    - unitPrice: double\n    - quantity: int\n    - totalAmount: double\n  }\n\n  class Payment {\n    - date: Date\n    - amount: double\n  }\n}\n\nclass Blacklist {\n  - customerId: String\n  - cancelDate: Date\n}\n\nclass Cancellation {\n  - booking: Booking\n  - cancelDate: Date\n}\n\nclass ReportManager {\n  + generateRevenueReportByTime()\n  + generateRevenueReportByRoom()\n  + generateRevenueReportByRoomType()\n  + generateRoomOccupancyReportByTime()\n  + generateRoomOccupancyReportByRoom()\n  + generateRoomOccupancyReportByRoomType()\n  + generateCustomerBookingReportByTime()\n  + generateCustomerBookingReportBySource()\n}\n\nHotelStaff --&gt; Receptionist #blue\nHotelStaff --&gt; SalesStaff #green\nHotelStaff --&gt; Manager #red\n\nReceptionist ..&gt; Hotel #blue : manages \nSalesStaff ..&gt; Hotel #green : manages\nManager ..&gt; Hotel #red : manages\nReceptionist ..&gt; Room #blue : searches\nReceptionist ..&gt; Booking #blue : creates, updates, deletes\nReceptionist ..&gt; Customer #blue : manages\nReceptionist ..&gt; Payment #blue : generates invoice\nReceptionist --&gt; Cancellation #blue : processes cancellations\nReceptionist --&gt; Blacklist #blue : manages blacklisted customers\n\nSalesStaff ..&gt; Room #green : searches, books\nSalesStaff ..&gt; Customer #green : manages\n\nManager --&gt; Hotel #red : manages\nManager --&gt; Room #red : adds, updates, deletes\nManager --&gt; ReportManager #red : manages reports\n@enduml\n&quot;,&quot;format&quot;:&quot;svg&quot;}" id="5tBQMQgJXRLJv_Yl46K0-91">
          <mxCell style="shape=image;noLabel=1;verticalAlign=top;aspect=fixed;imageAspect=0;image=data:image/svg+xml,PD94bWwgdmVyc2lvbj0iMS4wIiBlbmNvZGluZz0idXMtYXNjaWkiIHN0YW5kYWxvbmU9Im5vIj8+PHN2ZyB4bWxucz0iaHR0cDovL3d3dy53My5vcmcvMjAwMC9zdmciIHhtbG5zOnhsaW5rPSJodHRwOi8vd3d3LnczLm9yZy8xOTk5L3hsaW5rIiBjb250ZW50U3R5bGVUeXBlPSJ0ZXh0L2NzcyIgaGVpZ2h0PSI0NjhweCIgcHJlc2VydmVBc3BlY3RSYXRpbz0ibm9uZSIgc3R5bGU9IndpZHRoOjIwNTdweDtoZWlnaHQ6NDY4cHg7YmFja2dyb3VuZDojRkZGRkZGOyIgdmVyc2lvbj0iMS4xIiB2aWV3Qm94PSIwIDAgMjA1NyA0NjgiIHdpZHRoPSIyMDU3cHgiIHpvb21BbmRQYW49Im1hZ25pZnkiPjxkZWZzLz48Zz48IS0tY2x1c3RlciBVc2Vycy0tPjxnIGlkPSJjbHVzdGVyX1VzZXJzIj48cmVjdCBmaWxsPSJub25lIiBoZWlnaHQ9IjIwNiIgcng9IjIuNSIgcnk9IjIuNSIgc3R5bGU9InN0cm9rZTojMDAwMDAwO3N0cm9rZS13aWR0aDoxLjU7IiB3aWR0aD0iNDAyIiB4PSIxMDA1LjUiIHk9IjciLz48dGV4dCBmaWxsPSIjMDAwMDAwIiBmb250LWZhbWlseT0ic2Fucy1zZXJpZiIgZm9udC1zaXplPSIxNCIgZm9udC13ZWlnaHQ9ImJvbGQiIGxlbmd0aEFkanVzdD0ic3BhY2luZyIgdGV4dExlbmd0aD0iMzUiIHg9IjExODkiIHk9IjIyLjIzNDQiPlVzZXJzPC90ZXh0PjwvZz48IS0tY2x1c3RlciBFbnRpdGllcy0tPjxnIGlkPSJjbHVzdGVyX0VudGl0aWVzIj48cmVjdCBmaWxsPSJub25lIiBoZWlnaHQ9IjIwMiIgcng9IjIuNSIgcnk9IjIuNSIgc3R5bGU9InN0cm9rZTojMDAwMDAwO3N0cm9rZS13aWR0aDoxLjU7IiB3aWR0aD0iMTM0NyIgeD0iMzgwLjUiIHk9IjI2MCIvPjx0ZXh0IGZpbGw9IiMwMDAwMDAiIGZvbnQtZmFtaWx5PSJzYW5zLXNlcmlmIiBmb250LXNpemU9IjE0IiBmb250LXdlaWdodD0iYm9sZCIgbGVuZ3RoQWRqdXN0PSJzcGFjaW5nIiB0ZXh0TGVuZ3RoPSI1NiIgeD0iMTAyNiIgeT0iMjc1LjIzNDQiPkVudGl0aWVzPC90ZXh0PjwvZz48IS0tY2xhc3MgSG90ZWxTdGFmZi0tPjxnIGlkPSJlbGVtX0hvdGVsU3RhZmYiPjxyZWN0IGNvZGVMaW5lPSI2IiBmaWxsPSIjRjFGMUYxIiBoZWlnaHQ9IjQ4IiBpZD0iSG90ZWxTdGFmZiIgcng9IjIuNSIgcnk9IjIuNSIgc3R5bGU9InN0cm9rZTojMTgxODE4O3N0cm9rZS13aWR0aDowLjU7IiB3aWR0aD0iMTAyIiB4PSIxMTcyLjUiIHk9IjQwIi8+PGVsbGlwc2UgY3g9IjExODcuNSIgY3k9IjU2IiBmaWxsPSIjQUREMUIyIiByeD0iMTEiIHJ5PSIxMSIgc3R5bGU9InN0cm9rZTojMTgxODE4O3N0cm9rZS13aWR0aDoxLjA7Ii8+PHBhdGggZD0iTTExODUuMTI1LDYwLjI1IEwxMTg1LjEyNSw2MiBMMTE5MC4wNjI1LDYyIEwxMTkwLjA2MjUsNjAuMjUgTDExODUuMTI1LDYwLjI1IFogTTExODUuODEyNSw2MC45Mzc1IFExMTg1LjgxMjUsNjAuOTM3NSAxMTg1LjgxMjUsNTEuNzUgTDExODQuMDYyNSw1MS43NSBRMTE4NC4wNjI1LDUxLjc1IDExODQuMDYyNSw2MC45Mzc1IEwxMTg1LjgxMjUsNjAuOTM3NSBaIE0xMTg5LjM3NSw2MC45Mzc1IEwxMTkxLjEyNSw2MC45Mzc1IFExMTkxLjEyNSw2MC45Mzc1IDExOTEuMTI1LDU4LjEyNSBMMTE4OS4zNzUsNTguMTI1IFExMTg5LjM3NSw1OC4xMjUgMTE4OS4zNzUsNjAuOTM3NSBaIE0xMTg5LjM3NSw1MS43NSBRMTE4OS4zNzUsNTEuNzUgMTE4OS4zNzUsNTQuNTYyNSBMMTE5MS4xMjUsNTQuNTYyNSBRMTE5MS4xMjUsNTQuNTYyNSAxMTkxLjEyNSw1MS43NSBMMTE4OS4zNzUsNTEuNzUgWiBNMTE4NS4xMjUsNTIuNDM3NSBMMTE5MC4wNjI1LDUyLjQzNzUgTDExOTAuMDYyNSw1MC42ODc1IEwxMTg1LjEyNSw1MC42ODc1IEwxMTg1LjEyNSw1Mi40Mzc1IFogIiBmaWxsPSIjMDAwMDAwIi8+PHRleHQgZmlsbD0iIzAwMDAwMCIgZm9udC1mYW1pbHk9InNhbnMtc2VyaWYiIGZvbnQtc2l6ZT0iMTQiIGxlbmd0aEFkanVzdD0ic3BhY2luZyIgdGV4dExlbmd0aD0iNzAiIHg9IjEyMDEuNSIgeT0iNjEuNzQyMiI+SG90ZWxTdGFmZjwvdGV4dD48bGluZSBzdHlsZT0ic3Ryb2tlOiMxODE4MTg7c3Ryb2tlLXdpZHRoOjAuNTsiIHgxPSIxMTczLjUiIHgyPSIxMjczLjUiIHkxPSI3MiIgeTI9IjcyIi8+PGxpbmUgc3R5bGU9InN0cm9rZTojMTgxODE4O3N0cm9rZS13aWR0aDowLjU7IiB4MT0iMTE3My41IiB4Mj0iMTI3My41IiB5MT0iODAiIHkyPSI4MCIvPjwvZz48IS0tY2xhc3MgUmVjZXB0aW9uaXN0LS0+PGcgaWQ9ImVsZW1fUmVjZXB0aW9uaXN0Ij48cmVjdCBjb2RlTGluZT0iNyIgZmlsbD0iI0YxRjFGMSIgaGVpZ2h0PSI0OCIgaWQ9IlJlY2VwdGlvbmlzdCIgcng9IjIuNSIgcnk9IjIuNSIgc3R5bGU9InN0cm9rZTojMTgxODE4O3N0cm9rZS13aWR0aDowLjU7IiB3aWR0aD0iMTE2IiB4PSIxMDIxLjUiIHk9IjE0OSIvPjxlbGxpcHNlIGN4PSIxMDM2LjUiIGN5PSIxNjUiIGZpbGw9IiNBREQxQjIiIHJ4PSIxMSIgcnk9IjExIiBzdHlsZT0ic3Ryb2tlOiMxODE4MTg7c3Ryb2tlLXdpZHRoOjEuMDsiLz48cGF0aCBkPSJNMTAzNC4xMjUsMTY5LjI1IEwxMDM0LjEyNSwxNzEgTDEwMzkuMDYyNSwxNzEgTDEwMzkuMDYyNSwxNjkuMjUgTDEwMzQuMTI1LDE2OS4yNSBaIE0xMDM0LjgxMjUsMTY5LjkzNzUgUTEwMzQuODEyNSwxNjkuOTM3NSAxMDM0LjgxMjUsMTYwLjc1IEwxMDMzLjA2MjUsMTYwLjc1IFExMDMzLjA2MjUsMTYwLjc1IDEwMzMuMDYyNSwxNjkuOTM3NSBMMTAzNC44MTI1LDE2OS45Mzc1IFogTTEwMzguMzc1LDE2OS45Mzc1IEwxMDQwLjEyNSwxNjkuOTM3NSBRMTA0MC4xMjUsMTY5LjkzNzUgMTA0MC4xMjUsMTY3LjEyNSBMMTAzOC4zNzUsMTY3LjEyNSBRMTAzOC4zNzUsMTY3LjEyNSAxMDM4LjM3NSwxNjkuOTM3NSBaIE0xMDM4LjM3NSwxNjAuNzUgUTEwMzguMzc1LDE2MC43NSAxMDM4LjM3NSwxNjMuNTYyNSBMMTA0MC4xMjUsMTYzLjU2MjUgUTEwNDAuMTI1LDE2My41NjI1IDEwNDAuMTI1LDE2MC43NSBMMTAzOC4zNzUsMTYwLjc1IFogTTEwMzQuMTI1LDE2MS40Mzc1IEwxMDM5LjA2MjUsMTYxLjQzNzUgTDEwMzkuMDYyNSwxNTkuNjg3NSBMMTAzNC4xMjUsMTU5LjY4NzUgTDEwMzQuMTI1LDE2MS40Mzc1IFogIiBmaWxsPSIjMDAwMDAwIi8+PHRleHQgZmlsbD0iIzAwMDAwMCIgZm9udC1mYW1pbHk9InNhbnMtc2VyaWYiIGZvbnQtc2l6ZT0iMTQiIGxlbmd0aEFkanVzdD0ic3BhY2luZyIgdGV4dExlbmd0aD0iODQiIHg9IjEwNTAuNSIgeT0iMTcwLjc0MjIiPlJlY2VwdGlvbmlzdDwvdGV4dD48bGluZSBzdHlsZT0ic3Ryb2tlOiMxODE4MTg7c3Ryb2tlLXdpZHRoOjAuNTsiIHgxPSIxMDIyLjUiIHgyPSIxMTM2LjUiIHkxPSIxODEiIHkyPSIxODEiLz48bGluZSBzdHlsZT0ic3Ryb2tlOiMxODE4MTg7c3Ryb2tlLXdpZHRoOjAuNTsiIHgxPSIxMDIyLjUiIHgyPSIxMTM2LjUiIHkxPSIxODkiIHkyPSIxODkiLz48L2c+PCEtLWNsYXNzIFNhbGVzU3RhZmYtLT48ZyBpZD0iZWxlbV9TYWxlc1N0YWZmIj48cmVjdCBjb2RlTGluZT0iOCIgZmlsbD0iI0YxRjFGMSIgaGVpZ2h0PSI0OCIgaWQ9IlNhbGVzU3RhZmYiIHJ4PSIyLjUiIHJ5PSIyLjUiIHN0eWxlPSJzdHJva2U6IzE4MTgxODtzdHJva2Utd2lkdGg6MC41OyIgd2lkdGg9IjEwMiIgeD0iMTE3Mi41IiB5PSIxNDkiLz48ZWxsaXBzZSBjeD0iMTE4Ny41IiBjeT0iMTY1IiBmaWxsPSIjQUREMUIyIiByeD0iMTEiIHJ5PSIxMSIgc3R5bGU9InN0cm9rZTojMTgxODE4O3N0cm9rZS13aWR0aDoxLjA7Ii8+PHBhdGggZD0iTTExODUuMTI1LDE2OS4yNSBMMTE4NS4xMjUsMTcxIEwxMTkwLjA2MjUsMTcxIEwxMTkwLjA2MjUsMTY5LjI1IEwxMTg1LjEyNSwxNjkuMjUgWiBNMTE4NS44MTI1LDE2OS45Mzc1IFExMTg1LjgxMjUsMTY5LjkzNzUgMTE4NS44MTI1LDE2MC43NSBMMTE4NC4wNjI1LDE2MC43NSBRMTE4NC4wNjI1LDE2MC43NSAxMTg0LjA2MjUsMTY5LjkzNzUgTDExODUuODEyNSwxNjkuOTM3NSBaIE0xMTg5LjM3NSwxNjkuOTM3NSBMMTE5MS4xMjUsMTY5LjkzNzUgUTExOTEuMTI1LDE2OS45Mzc1IDExOTEuMTI1LDE2Ny4xMjUgTDExODkuMzc1LDE2Ny4xMjUgUTExODkuMzc1LDE2Ny4xMjUgMTE4OS4zNzUsMTY5LjkzNzUgWiBNMTE4OS4zNzUsMTYwLjc1IFExMTg5LjM3NSwxNjAuNzUgMTE4OS4zNzUsMTYzLjU2MjUgTDExOTEuMTI1LDE2My41NjI1IFExMTkxLjEyNSwxNjMuNTYyNSAxMTkxLjEyNSwxNjAuNzUgTDExODkuMzc1LDE2MC43NSBaIE0xMTg1LjEyNSwxNjEuNDM3NSBMMTE5MC4wNjI1LDE2MS40Mzc1IEwxMTkwLjA2MjUsMTU5LjY4NzUgTDExODUuMTI1LDE1OS42ODc1IEwxMTg1LjEyNSwxNjEuNDM3NSBaICIgZmlsbD0iIzAwMDAwMCIvPjx0ZXh0IGZpbGw9IiMwMDAwMDAiIGZvbnQtZmFtaWx5PSJzYW5zLXNlcmlmIiBmb250LXNpemU9IjE0IiBsZW5ndGhBZGp1c3Q9InNwYWNpbmciIHRleHRMZW5ndGg9IjcwIiB4PSIxMjAxLjUiIHk9IjE3MC43NDIyIj5TYWxlc1N0YWZmPC90ZXh0PjxsaW5lIHN0eWxlPSJzdHJva2U6IzE4MTgxODtzdHJva2Utd2lkdGg6MC41OyIgeDE9IjExNzMuNSIgeDI9IjEyNzMuNSIgeTE9IjE4MSIgeTI9IjE4MSIvPjxsaW5lIHN0eWxlPSJzdHJva2U6IzE4MTgxODtzdHJva2Utd2lkdGg6MC41OyIgeDE9IjExNzMuNSIgeDI9IjEyNzMuNSIgeTE9IjE4OSIgeTI9IjE4OSIvPjwvZz48IS0tY2xhc3MgTWFuYWdlci0tPjxnIGlkPSJlbGVtX01hbmFnZXIiPjxyZWN0IGNvZGVMaW5lPSI5IiBmaWxsPSIjRjFGMUYxIiBoZWlnaHQ9IjQ4IiBpZD0iTWFuYWdlciIgcng9IjIuNSIgcnk9IjIuNSIgc3R5bGU9InN0cm9rZTojMTgxODE4O3N0cm9rZS13aWR0aDowLjU7IiB3aWR0aD0iODEiIHg9IjEzMTAiIHk9IjE0OSIvPjxlbGxpcHNlIGN4PSIxMzI1IiBjeT0iMTY1IiBmaWxsPSIjQUREMUIyIiByeD0iMTEiIHJ5PSIxMSIgc3R5bGU9InN0cm9rZTojMTgxODE4O3N0cm9rZS13aWR0aDoxLjA7Ii8+PHBhdGggZD0iTTEzMjIuNjI1LDE2OS4yNSBMMTMyMi42MjUsMTcxIEwxMzI3LjU2MjUsMTcxIEwxMzI3LjU2MjUsMTY5LjI1IEwxMzIyLjYyNSwxNjkuMjUgWiBNMTMyMy4zMTI1LDE2OS45Mzc1IFExMzIzLjMxMjUsMTY5LjkzNzUgMTMyMy4zMTI1LDE2MC43NSBMMTMyMS41NjI1LDE2MC43NSBRMTMyMS41NjI1LDE2MC43NSAxMzIxLjU2MjUsMTY5LjkzNzUgTDEzMjMuMzEyNSwxNjkuOTM3NSBaIE0xMzI2Ljg3NSwxNjkuOTM3NSBMMTMyOC42MjUsMTY5LjkzNzUgUTEzMjguNjI1LDE2OS45Mzc1IDEzMjguNjI1LDE2Ny4xMjUgTDEzMjYuODc1LDE2Ny4xMjUgUTEzMjYuODc1LDE2Ny4xMjUgMTMyNi44NzUsMTY5LjkzNzUgWiBNMTMyNi44NzUsMTYwLjc1IFExMzI2Ljg3NSwxNjAuNzUgMTMyNi44NzUsMTYzLjU2MjUgTDEzMjguNjI1LDE2My41NjI1IFExMzI4LjYyNSwxNjMuNTYyNSAxMzI4LjYyNSwxNjAuNzUgTDEzMjYuODc1LDE2MC43NSBaIE0xMzIyLjYyNSwxNjEuNDM3NSBMMTMyNy41NjI1LDE2MS40Mzc1IEwxMzI3LjU2MjUsMTU5LjY4NzUgTDEzMjIuNjI1LDE1OS42ODc1IEwxMzIyLjYyNSwxNjEuNDM3NSBaICIgZmlsbD0iIzAwMDAwMCIvPjx0ZXh0IGZpbGw9IiMwMDAwMDAiIGZvbnQtZmFtaWx5PSJzYW5zLXNlcmlmIiBmb250LXNpemU9IjE0IiBsZW5ndGhBZGp1c3Q9InNwYWNpbmciIHRleHRMZW5ndGg9IjQ5IiB4PSIxMzM5IiB5PSIxNzAuNzQyMiI+TWFuYWdlcjwvdGV4dD48bGluZSBzdHlsZT0ic3Ryb2tlOiMxODE4MTg7c3Ryb2tlLXdpZHRoOjAuNTsiIHgxPSIxMzExIiB4Mj0iMTM5MCIgeTE9IjE4MSIgeTI9IjE4MSIvPjxsaW5lIHN0eWxlPSJzdHJva2U6IzE4MTgxODtzdHJva2Utd2lkdGg6MC41OyIgeDE9IjEzMTEiIHgyPSIxMzkwIiB5MT0iMTg5IiB5Mj0iMTg5Ii8+PC9nPjwhLS1jbGFzcyBIb3RlbC0tPjxnIGlkPSJlbGVtX0hvdGVsIj48cmVjdCBjb2RlTGluZT0iMTMiIGZpbGw9IiNGMUYxRjEiIGhlaWdodD0iMTIyLjkyMTkiIGlkPSJIb3RlbCIgcng9IjIuNSIgcnk9IjIuNSIgc3R5bGU9InN0cm9rZTojMTgxODE4O3N0cm9rZS13aWR0aDowLjU7IiB3aWR0aD0iMTY3IiB4PSIxNTQ1IiB5PSIzMDgiLz48ZWxsaXBzZSBjeD0iMTYwNi43NSIgY3k9IjMyNCIgZmlsbD0iI0FERDFCMiIgcng9IjExIiByeT0iMTEiIHN0eWxlPSJzdHJva2U6IzE4MTgxODtzdHJva2Utd2lkdGg6MS4wOyIvPjxwYXRoIGQ9Ik0xNjA0LjM3NSwzMjguMjUgTDE2MDQuMzc1LDMzMCBMMTYwOS4zMTI1LDMzMCBMMTYwOS4zMTI1LDMyOC4yNSBMMTYwNC4zNzUsMzI4LjI1IFogTTE2MDUuMDYyNSwzMjguOTM3NSBRMTYwNS4wNjI1LDMyOC45Mzc1IDE2MDUuMDYyNSwzMTkuNzUgTDE2MDMuMzEyNSwzMTkuNzUgUTE2MDMuMzEyNSwzMTkuNzUgMTYwMy4zMTI1LDMyOC45Mzc1IEwxNjA1LjA2MjUsMzI4LjkzNzUgWiBNMTYwOC42MjUsMzI4LjkzNzUgTDE2MTAuMzc1LDMyOC45Mzc1IFExNjEwLjM3NSwzMjguOTM3NSAxNjEwLjM3NSwzMjYuMTI1IEwxNjA4LjYyNSwzMjYuMTI1IFExNjA4LjYyNSwzMjYuMTI1IDE2MDguNjI1LDMyOC45Mzc1IFogTTE2MDguNjI1LDMxOS43NSBRMTYwOC42MjUsMzE5Ljc1IDE2MDguNjI1LDMyMi41NjI1IEwxNjEwLjM3NSwzMjIuNTYyNSBRMTYxMC4zNzUsMzIyLjU2MjUgMTYxMC4zNzUsMzE5Ljc1IEwxNjA4LjYyNSwzMTkuNzUgWiBNMTYwNC4zNzUsMzIwLjQzNzUgTDE2MDkuMzEyNSwzMjAuNDM3NSBMMTYwOS4zMTI1LDMxOC42ODc1IEwxNjA0LjM3NSwzMTguNjg3NSBMMTYwNC4zNzUsMzIwLjQzNzUgWiAiIGZpbGw9IiMwMDAwMDAiLz48dGV4dCBmaWxsPSIjMDAwMDAwIiBmb250LWZhbWlseT0ic2Fucy1zZXJpZiIgZm9udC1zaXplPSIxNCIgbGVuZ3RoQWRqdXN0PSJzcGFjaW5nIiB0ZXh0TGVuZ3RoPSIzNSIgeD0iMTYyNy4yNSIgeT0iMzI5Ljc0MjIiPkhvdGVsPC90ZXh0PjxsaW5lIHN0eWxlPSJzdHJva2U6IzE4MTgxODtzdHJva2Utd2lkdGg6MC41OyIgeDE9IjE1NDYiIHgyPSIxNzExIiB5MT0iMzQwIiB5Mj0iMzQwIi8+PHJlY3QgZmlsbD0ibm9uZSIgaGVpZ2h0PSI2IiBzdHlsZT0ic3Ryb2tlOiNDODI5MzA7c3Ryb2tlLXdpZHRoOjEuMDsiIHdpZHRoPSI2IiB4PSIxNTUzIiB5PSIzNDkuOTkyMiIvPjx0ZXh0IGZpbGw9IiMwMDAwMDAiIGZvbnQtZmFtaWx5PSJzYW5zLXNlcmlmIiBmb250LXNpemU9IjE0IiBsZW5ndGhBZGp1c3Q9InNwYWNpbmciIHRleHRMZW5ndGg9Ijg1IiB4PSIxNTY1IiB5PSIzNTcuMjM0NCI+bmFtZTogU3RyaW5nPC90ZXh0PjxyZWN0IGZpbGw9Im5vbmUiIGhlaWdodD0iNiIgc3R5bGU9InN0cm9rZTojQzgyOTMwO3N0cm9rZS13aWR0aDoxLjA7IiB3aWR0aD0iNiIgeD0iMTU1MyIgeT0iMzY0Ljk3NjYiLz48dGV4dCBmaWxsPSIjMDAwMDAwIiBmb250LWZhbWlseT0ic2Fucy1zZXJpZiIgZm9udC1zaXplPSIxNCIgbGVuZ3RoQWRqdXN0PSJzcGFjaW5nIiB0ZXh0TGVuZ3RoPSIxMDUiIHg9IjE1NjUiIHk9IjM3Mi4yMTg4Ij5hZGRyZXNzOiBTdHJpbmc8L3RleHQ+PHJlY3QgZmlsbD0ibm9uZSIgaGVpZ2h0PSI2IiBzdHlsZT0ic3Ryb2tlOiNDODI5MzA7c3Ryb2tlLXdpZHRoOjEuMDsiIHdpZHRoPSI2IiB4PSIxNTUzIiB5PSIzNzkuOTYwOSIvPjx0ZXh0IGZpbGw9IiMwMDAwMDAiIGZvbnQtZmFtaWx5PSJzYW5zLXNlcmlmIiBmb250LXNpemU9IjE0IiBsZW5ndGhBZGp1c3Q9InNwYWNpbmciIHRleHRMZW5ndGg9IjEwNSIgeD0iMTU2NSIgeT0iMzg3LjIwMzEiPnN0YXJSYXRpbmc6IGludDwvdGV4dD48cmVjdCBmaWxsPSJub25lIiBoZWlnaHQ9IjYiIHN0eWxlPSJzdHJva2U6I0M4MjkzMDtzdHJva2Utd2lkdGg6MS4wOyIgd2lkdGg9IjYiIHg9IjE1NTMiIHk9IjM5NC45NDUzIi8+PHRleHQgZmlsbD0iIzAwMDAwMCIgZm9udC1mYW1pbHk9InNhbnMtc2VyaWYiIGZvbnQtc2l6ZT0iMTQiIGxlbmd0aEFkanVzdD0ic3BhY2luZyIgdGV4dExlbmd0aD0iMTMzIiB4PSIxNTY1IiB5PSI0MDIuMTg3NSI+ZGVzY3JpcHRpb246IFN0cmluZzwvdGV4dD48cmVjdCBmaWxsPSJub25lIiBoZWlnaHQ9IjYiIHN0eWxlPSJzdHJva2U6I0M4MjkzMDtzdHJva2Utd2lkdGg6MS4wOyIgd2lkdGg9IjYiIHg9IjE1NTMiIHk9IjQwOS45Mjk3Ii8+PHRleHQgZmlsbD0iIzAwMDAwMCIgZm9udC1mYW1pbHk9InNhbnMtc2VyaWYiIGZvbnQtc2l6ZT0iMTQiIGxlbmd0aEFkanVzdD0ic3BhY2luZyIgdGV4dExlbmd0aD0iMTQxIiB4PSIxNTY1IiB5PSI0MTcuMTcxOSI+aW1hZ2VzOiBMaXN0Jmx0O1N0cmluZyZndDs8L3RleHQ+PGxpbmUgc3R5bGU9InN0cm9rZTojMTgxODE4O3N0cm9rZS13aWR0aDowLjU7IiB4MT0iMTU0NiIgeDI9IjE3MTEiIHkxPSI0MjIuOTIxOSIgeTI9IjQyMi45MjE5Ii8+PC9nPjwhLS1jbGFzcyBSb29tLS0+PGcgaWQ9ImVsZW1fUm9vbSI+PHJlY3QgY29kZUxpbmU9IjIxIiBmaWxsPSIjRjFGMUYxIiBoZWlnaHQ9IjEzNy45MDYzIiBpZD0iUm9vbSIgcng9IjIuNSIgcnk9IjIuNSIgc3R5bGU9InN0cm9rZTojMTgxODE4O3N0cm9rZS13aWR0aDowLjU7IiB3aWR0aD0iMTgwIiB4PSIxMzI5LjUiIHk9IjMwMC41Ii8+PGVsbGlwc2UgY3g9IjE0MDAuNzUiIGN5PSIzMTYuNSIgZmlsbD0iI0FERDFCMiIgcng9IjExIiByeT0iMTEiIHN0eWxlPSJzdHJva2U6IzE4MTgxODtzdHJva2Utd2lkdGg6MS4wOyIvPjxwYXRoIGQ9Ik0xMzk4LjM3NSwzMjAuNzUgTDEzOTguMzc1LDMyMi41IEwxNDAzLjMxMjUsMzIyLjUgTDE0MDMuMzEyNSwzMjAuNzUgTDEzOTguMzc1LDMyMC43NSBaIE0xMzk5LjA2MjUsMzIxLjQzNzUgUTEzOTkuMDYyNSwzMjEuNDM3NSAxMzk5LjA2MjUsMzEyLjI1IEwxMzk3LjMxMjUsMzEyLjI1IFExMzk3LjMxMjUsMzEyLjI1IDEzOTcuMzEyNSwzMjEuNDM3NSBMMTM5OS4wNjI1LDMyMS40Mzc1IFogTTE0MDIuNjI1LDMyMS40Mzc1IEwxNDA0LjM3NSwzMjEuNDM3NSBRMTQwNC4zNzUsMzIxLjQzNzUgMTQwNC4zNzUsMzE4LjYyNSBMMTQwMi42MjUsMzE4LjYyNSBRMTQwMi42MjUsMzE4LjYyNSAxNDAyLjYyNSwzMjEuNDM3NSBaIE0xNDAyLjYyNSwzMTIuMjUgUTE0MDIuNjI1LDMxMi4yNSAxNDAyLjYyNSwzMTUuMDYyNSBMMTQwNC4zNzUsMzE1LjA2MjUgUTE0MDQuMzc1LDMxNS4wNjI1IDE0MDQuMzc1LDMxMi4yNSBMMTQwMi42MjUsMzEyLjI1IFogTTEzOTguMzc1LDMxMi45Mzc1IEwxNDAzLjMxMjUsMzEyLjkzNzUgTDE0MDMuMzEyNSwzMTEuMTg3NSBMMTM5OC4zNzUsMzExLjE4NzUgTDEzOTguMzc1LDMxMi45Mzc1IFogIiBmaWxsPSIjMDAwMDAwIi8+PHRleHQgZmlsbD0iIzAwMDAwMCIgZm9udC1mYW1pbHk9InNhbnMtc2VyaWYiIGZvbnQtc2l6ZT0iMTQiIGxlbmd0aEFkanVzdD0ic3BhY2luZyIgdGV4dExlbmd0aD0iMjkiIHg9IjE0MjEuMjUiIHk9IjMyMi4yNDIyIj5Sb29tPC90ZXh0PjxsaW5lIHN0eWxlPSJzdHJva2U6IzE4MTgxODtzdHJva2Utd2lkdGg6MC41OyIgeDE9IjEzMzAuNSIgeDI9IjE1MDguNSIgeTE9IjMzMi41IiB5Mj0iMzMyLjUiLz48cmVjdCBmaWxsPSJub25lIiBoZWlnaHQ9IjYiIHN0eWxlPSJzdHJva2U6I0M4MjkzMDtzdHJva2Utd2lkdGg6MS4wOyIgd2lkdGg9IjYiIHg9IjEzMzcuNSIgeT0iMzQyLjQ5MjIiLz48dGV4dCBmaWxsPSIjMDAwMDAwIiBmb250LWZhbWlseT0ic2Fucy1zZXJpZiIgZm9udC1zaXplPSIxNCIgbGVuZ3RoQWRqdXN0PSJzcGFjaW5nIiB0ZXh0TGVuZ3RoPSIxMjgiIHg9IjEzNDkuNSIgeT0iMzQ5LjczNDQiPnJvb21OdW1iZXI6IFN0cmluZzwvdGV4dD48cmVjdCBmaWxsPSJub25lIiBoZWlnaHQ9IjYiIHN0eWxlPSJzdHJva2U6I0M4MjkzMDtzdHJva2Utd2lkdGg6MS4wOyIgd2lkdGg9IjYiIHg9IjEzMzcuNSIgeT0iMzU3LjQ3NjYiLz48dGV4dCBmaWxsPSIjMDAwMDAwIiBmb250LWZhbWlseT0ic2Fucy1zZXJpZiIgZm9udC1zaXplPSIxNCIgbGVuZ3RoQWRqdXN0PSJzcGFjaW5nIiB0ZXh0TGVuZ3RoPSIxMTMiIHg9IjEzNDkuNSIgeT0iMzY0LjcxODgiPnJvb21UeXBlOiBTdHJpbmc8L3RleHQ+PHJlY3QgZmlsbD0ibm9uZSIgaGVpZ2h0PSI2IiBzdHlsZT0ic3Ryb2tlOiNDODI5MzA7c3Ryb2tlLXdpZHRoOjEuMDsiIHdpZHRoPSI2IiB4PSIxMzM3LjUiIHk9IjM3Mi40NjA5Ii8+PHRleHQgZmlsbD0iIzAwMDAwMCIgZm9udC1mYW1pbHk9InNhbnMtc2VyaWYiIGZvbnQtc2l6ZT0iMTQiIGxlbmd0aEFkanVzdD0ic3BhY2luZyIgdGV4dExlbmd0aD0iMTE5IiB4PSIxMzQ5LjUiIHk9IjM3OS43MDMxIj5iYXNlUHJpY2U6IGRvdWJsZTwvdGV4dD48cmVjdCBmaWxsPSJub25lIiBoZWlnaHQ9IjYiIHN0eWxlPSJzdHJva2U6I0M4MjkzMDtzdHJva2Utd2lkdGg6MS4wOyIgd2lkdGg9IjYiIHg9IjEzMzcuNSIgeT0iMzg3LjQ0NTMiLz48dGV4dCBmaWxsPSIjMDAwMDAwIiBmb250LWZhbWlseT0ic2Fucy1zZXJpZiIgZm9udC1zaXplPSIxNCIgbGVuZ3RoQWRqdXN0PSJzcGFjaW5nIiB0ZXh0TGVuZ3RoPSIxNTQiIHg9IjEzNDkuNSIgeT0iMzk0LjY4NzUiPnNlcnZpY2VzOiBMaXN0Jmx0O1N0cmluZyZndDs8L3RleHQ+PHJlY3QgZmlsbD0ibm9uZSIgaGVpZ2h0PSI2IiBzdHlsZT0ic3Ryb2tlOiNDODI5MzA7c3Ryb2tlLXdpZHRoOjEuMDsiIHdpZHRoPSI2IiB4PSIxMzM3LjUiIHk9IjQwMi40Mjk3Ii8+PHRleHQgZmlsbD0iIzAwMDAwMCIgZm9udC1mYW1pbHk9InNhbnMtc2VyaWYiIGZvbnQtc2l6ZT0iMTQiIGxlbmd0aEFkanVzdD0ic3BhY2luZyIgdGV4dExlbmd0aD0iMTMzIiB4PSIxMzQ5LjUiIHk9IjQwOS42NzE5Ij5kZXNjcmlwdGlvbjogU3RyaW5nPC90ZXh0PjxyZWN0IGZpbGw9Im5vbmUiIGhlaWdodD0iNiIgc3R5bGU9InN0cm9rZTojQzgyOTMwO3N0cm9rZS13aWR0aDoxLjA7IiB3aWR0aD0iNiIgeD0iMTMzNy41IiB5PSI0MTcuNDE0MSIvPjx0ZXh0IGZpbGw9IiMwMDAwMDAiIGZvbnQtZmFtaWx5PSJzYW5zLXNlcmlmIiBmb250LXNpemU9IjE0IiBsZW5ndGhBZGp1c3Q9InNwYWNpbmciIHRleHRMZW5ndGg9IjExOSIgeD0iMTM0OS41IiB5PSI0MjQuNjU2MyI+aXNCb29rZWQ6IGJvb2xlYW48L3RleHQ+PGxpbmUgc3R5bGU9InN0cm9rZTojMTgxODE4O3N0cm9rZS13aWR0aDowLjU7IiB4MT0iMTMzMC41IiB4Mj0iMTUwOC41IiB5MT0iNDMwLjQwNjMiIHkyPSI0MzAuNDA2MyIvPjwvZz48IS0tY2xhc3MgQ3VzdG9tZXItLT48ZyBpZD0iZWxlbV9DdXN0b21lciI+PHJlY3QgY29kZUxpbmU9IjMwIiBmaWxsPSIjRjFGMUYxIiBoZWlnaHQ9IjE1Mi44OTA2IiBpZD0iQ3VzdG9tZXIiIHJ4PSIyLjUiIHJ5PSIyLjUiIHN0eWxlPSJzdHJva2U6IzE4MTgxODtzdHJva2Utd2lkdGg6MC41OyIgd2lkdGg9IjIyOSIgeD0iMTA2NSIgeT0iMjkzIi8+PGVsbGlwc2UgY3g9IjExNDYuNzUiIGN5PSIzMDkiIGZpbGw9IiNBREQxQjIiIHJ4PSIxMSIgcnk9IjExIiBzdHlsZT0ic3Ryb2tlOiMxODE4MTg7c3Ryb2tlLXdpZHRoOjEuMDsiLz48cGF0aCBkPSJNMTE0NC4zNzUsMzEzLjI1IEwxMTQ0LjM3NSwzMTUgTDExNDkuMzEyNSwzMTUgTDExNDkuMzEyNSwzMTMuMjUgTDExNDQuMzc1LDMxMy4yNSBaIE0xMTQ1LjA2MjUsMzEzLjkzNzUgUTExNDUuMDYyNSwzMTMuOTM3NSAxMTQ1LjA2MjUsMzA0Ljc1IEwxMTQzLjMxMjUsMzA0Ljc1IFExMTQzLjMxMjUsMzA0Ljc1IDExNDMuMzEyNSwzMTMuOTM3NSBMMTE0NS4wNjI1LDMxMy45Mzc1IFogTTExNDguNjI1LDMxMy45Mzc1IEwxMTUwLjM3NSwzMTMuOTM3NSBRMTE1MC4zNzUsMzEzLjkzNzUgMTE1MC4zNzUsMzExLjEyNSBMMTE0OC42MjUsMzExLjEyNSBRMTE0OC42MjUsMzExLjEyNSAxMTQ4LjYyNSwzMTMuOTM3NSBaIE0xMTQ4LjYyNSwzMDQuNzUgUTExNDguNjI1LDMwNC43NSAxMTQ4LjYyNSwzMDcuNTYyNSBMMTE1MC4zNzUsMzA3LjU2MjUgUTExNTAuMzc1LDMwNy41NjI1IDExNTAuMzc1LDMwNC43NSBMMTE0OC42MjUsMzA0Ljc1IFogTTExNDQuMzc1LDMwNS40Mzc1IEwxMTQ5LjMxMjUsMzA1LjQzNzUgTDExNDkuMzEyNSwzMDMuNjg3NSBMMTE0NC4zNzUsMzAzLjY4NzUgTDExNDQuMzc1LDMwNS40Mzc1IFogIiBmaWxsPSIjMDAwMDAwIi8+PHRleHQgZmlsbD0iIzAwMDAwMCIgZm9udC1mYW1pbHk9InNhbnMtc2VyaWYiIGZvbnQtc2l6ZT0iMTQiIGxlbmd0aEFkanVzdD0ic3BhY2luZyIgdGV4dExlbmd0aD0iNTciIHg9IjExNjcuMjUiIHk9IjMxNC43NDIyIj5DdXN0b21lcjwvdGV4dD48bGluZSBzdHlsZT0ic3Ryb2tlOiMxODE4MTg7c3Ryb2tlLXdpZHRoOjAuNTsiIHgxPSIxMDY2IiB4Mj0iMTI5MyIgeTE9IjMyNSIgeTI9IjMyNSIvPjxyZWN0IGZpbGw9Im5vbmUiIGhlaWdodD0iNiIgc3R5bGU9InN0cm9rZTojQzgyOTMwO3N0cm9rZS13aWR0aDoxLjA7IiB3aWR0aD0iNiIgeD0iMTA3MyIgeT0iMzM0Ljk5MjIiLz48dGV4dCBmaWxsPSIjMDAwMDAwIiBmb250LWZhbWlseT0ic2Fucy1zZXJpZiIgZm9udC1zaXplPSIxNCIgbGVuZ3RoQWRqdXN0PSJzcGFjaW5nIiB0ZXh0TGVuZ3RoPSI3MCIgeD0iMTA4NSIgeT0iMzQyLjIzNDQiPmlkOiBTdHJpbmc8L3RleHQ+PHJlY3QgZmlsbD0ibm9uZSIgaGVpZ2h0PSI2IiBzdHlsZT0ic3Ryb2tlOiNDODI5MzA7c3Ryb2tlLXdpZHRoOjEuMDsiIHdpZHRoPSI2IiB4PSIxMDczIiB5PSIzNDkuOTc2NiIvPjx0ZXh0IGZpbGw9IiMwMDAwMDAiIGZvbnQtZmFtaWx5PSJzYW5zLXNlcmlmIiBmb250LXNpemU9IjE0IiBsZW5ndGhBZGp1c3Q9InNwYWNpbmciIHRleHRMZW5ndGg9Ijk4IiB4PSIxMDg1IiB5PSIzNTcuMjE4OCI+aWRUeXBlOiBTdHJpbmc8L3RleHQ+PHJlY3QgZmlsbD0ibm9uZSIgaGVpZ2h0PSI2IiBzdHlsZT0ic3Ryb2tlOiNDODI5MzA7c3Ryb2tlLXdpZHRoOjEuMDsiIHdpZHRoPSI2IiB4PSIxMDczIiB5PSIzNjQuOTYwOSIvPjx0ZXh0IGZpbGw9IiMwMDAwMDAiIGZvbnQtZmFtaWx5PSJzYW5zLXNlcmlmIiBmb250LXNpemU9IjE0IiBsZW5ndGhBZGp1c3Q9InNwYWNpbmciIHRleHRMZW5ndGg9IjExMyIgeD0iMTA4NSIgeT0iMzcyLjIwMzEiPmZ1bGxOYW1lOiBTdHJpbmc8L3RleHQ+PHJlY3QgZmlsbD0ibm9uZSIgaGVpZ2h0PSI2IiBzdHlsZT0ic3Ryb2tlOiNDODI5MzA7c3Ryb2tlLXdpZHRoOjEuMDsiIHdpZHRoPSI2IiB4PSIxMDczIiB5PSIzNzkuOTQ1MyIvPjx0ZXh0IGZpbGw9IiMwMDAwMDAiIGZvbnQtZmFtaWx5PSJzYW5zLXNlcmlmIiBmb250LXNpemU9IjE0IiBsZW5ndGhBZGp1c3Q9InNwYWNpbmciIHRleHRMZW5ndGg9IjEwNSIgeD0iMTA4NSIgeT0iMzg3LjE4NzUiPmFkZHJlc3M6IFN0cmluZzwvdGV4dD48cmVjdCBmaWxsPSJub25lIiBoZWlnaHQ9IjYiIHN0eWxlPSJzdHJva2U6I0M4MjkzMDtzdHJva2Utd2lkdGg6MS4wOyIgd2lkdGg9IjYiIHg9IjEwNzMiIHk9IjM5NC45Mjk3Ii8+PHRleHQgZmlsbD0iIzAwMDAwMCIgZm9udC1mYW1pbHk9InNhbnMtc2VyaWYiIGZvbnQtc2l6ZT0iMTQiIGxlbmd0aEFkanVzdD0ic3BhY2luZyIgdGV4dExlbmd0aD0iMTM0IiB4PSIxMDg1IiB5PSI0MDIuMTcxOSI+cGhvbmVOdW1iZXI6IFN0cmluZzwvdGV4dD48cmVjdCBmaWxsPSJub25lIiBoZWlnaHQ9IjYiIHN0eWxlPSJzdHJva2U6I0M4MjkzMDtzdHJva2Utd2lkdGg6MS4wOyIgd2lkdGg9IjYiIHg9IjEwNzMiIHk9IjQwOS45MTQxIi8+PHRleHQgZmlsbD0iIzAwMDAwMCIgZm9udC1mYW1pbHk9InNhbnMtc2VyaWYiIGZvbnQtc2l6ZT0iMTQiIGxlbmd0aEFkanVzdD0ic3BhY2luZyIgdGV4dExlbmd0aD0iMjAzIiB4PSIxMDg1IiB5PSI0MTcuMTU2MyI+c3BlY2lhbFJlcXVlc3RzOiBMaXN0Jmx0O1N0cmluZyZndDs8L3RleHQ+PHJlY3QgZmlsbD0ibm9uZSIgaGVpZ2h0PSI2IiBzdHlsZT0ic3Ryb2tlOiNDODI5MzA7c3Ryb2tlLXdpZHRoOjEuMDsiIHdpZHRoPSI2IiB4PSIxMDczIiB5PSI0MjQuODk4NCIvPjx0ZXh0IGZpbGw9IiMwMDAwMDAiIGZvbnQtZmFtaWx5PSJzYW5zLXNlcmlmIiBmb250LXNpemU9IjE0IiBsZW5ndGhBZGp1c3Q9InNwYWNpbmciIHRleHRMZW5ndGg9IjE2MSIgeD0iMTA4NSIgeT0iNDMyLjE0MDYiPmJvb2tpbmdzOiBMaXN0Jmx0O0Jvb2tpbmcmZ3Q7PC90ZXh0PjxsaW5lIHN0eWxlPSJzdHJva2U6IzE4MTgxODtzdHJva2Utd2lkdGg6MC41OyIgeDE9IjEwNjYiIHgyPSIxMjkzIiB5MT0iNDM3Ljg5MDYiIHkyPSI0MzcuODkwNiIvPjwvZz48IS0tY2xhc3MgQm9va2luZy0tPjxnIGlkPSJlbGVtX0Jvb2tpbmciPjxyZWN0IGNvZGVMaW5lPSI0MCIgZmlsbD0iI0YxRjFGMSIgaGVpZ2h0PSIxNTIuODkwNiIgaWQ9IkJvb2tpbmciIHJ4PSIyLjUiIHJ5PSIyLjUiIHN0eWxlPSJzdHJva2U6IzE4MTgxODtzdHJva2Utd2lkdGg6MC41OyIgd2lkdGg9IjI3OCIgeD0iMzk2LjUiIHk9IjI5MyIvPjxlbGxpcHNlIGN4PSI1MDYuNzUiIGN5PSIzMDkiIGZpbGw9IiNBREQxQjIiIHJ4PSIxMSIgcnk9IjExIiBzdHlsZT0ic3Ryb2tlOiMxODE4MTg7c3Ryb2tlLXdpZHRoOjEuMDsiLz48cGF0aCBkPSJNNTA0LjM3NSwzMTMuMjUgTDUwNC4zNzUsMzE1IEw1MDkuMzEyNSwzMTUgTDUwOS4zMTI1LDMxMy4yNSBMNTA0LjM3NSwzMTMuMjUgWiBNNTA1LjA2MjUsMzEzLjkzNzUgUTUwNS4wNjI1LDMxMy45Mzc1IDUwNS4wNjI1LDMwNC43NSBMNTAzLjMxMjUsMzA0Ljc1IFE1MDMuMzEyNSwzMDQuNzUgNTAzLjMxMjUsMzEzLjkzNzUgTDUwNS4wNjI1LDMxMy45Mzc1IFogTTUwOC42MjUsMzEzLjkzNzUgTDUxMC4zNzUsMzEzLjkzNzUgUTUxMC4zNzUsMzEzLjkzNzUgNTEwLjM3NSwzMTEuMTI1IEw1MDguNjI1LDMxMS4xMjUgUTUwOC42MjUsMzExLjEyNSA1MDguNjI1LDMxMy45Mzc1IFogTTUwOC42MjUsMzA0Ljc1IFE1MDguNjI1LDMwNC43NSA1MDguNjI1LDMwNy41NjI1IEw1MTAuMzc1LDMwNy41NjI1IFE1MTAuMzc1LDMwNy41NjI1IDUxMC4zNzUsMzA0Ljc1IEw1MDguNjI1LDMwNC43NSBaIE01MDQuMzc1LDMwNS40Mzc1IEw1MDkuMzEyNSwzMDUuNDM3NSBMNTA5LjMxMjUsMzAzLjY4NzUgTDUwNC4zNzUsMzAzLjY4NzUgTDUwNC4zNzUsMzA1LjQzNzUgWiAiIGZpbGw9IiMwMDAwMDAiLz48dGV4dCBmaWxsPSIjMDAwMDAwIiBmb250LWZhbWlseT0ic2Fucy1zZXJpZiIgZm9udC1zaXplPSIxNCIgbGVuZ3RoQWRqdXN0PSJzcGFjaW5nIiB0ZXh0TGVuZ3RoPSI0OSIgeD0iNTI3LjI1IiB5PSIzMTQuNzQyMiI+Qm9va2luZzwvdGV4dD48bGluZSBzdHlsZT0ic3Ryb2tlOiMxODE4MTg7c3Ryb2tlLXdpZHRoOjAuNTsiIHgxPSIzOTcuNSIgeDI9IjY3My41IiB5MT0iMzI1IiB5Mj0iMzI1Ii8+PHJlY3QgZmlsbD0ibm9uZSIgaGVpZ2h0PSI2IiBzdHlsZT0ic3Ryb2tlOiNDODI5MzA7c3Ryb2tlLXdpZHRoOjEuMDsiIHdpZHRoPSI2IiB4PSI0MDQuNSIgeT0iMzM0Ljk5MjIiLz48dGV4dCBmaWxsPSIjMDAwMDAwIiBmb250LWZhbWlseT0ic2Fucy1zZXJpZiIgZm9udC1zaXplPSIxNCIgbGVuZ3RoQWRqdXN0PSJzcGFjaW5nIiB0ZXh0TGVuZ3RoPSI3MiIgeD0iNDE2LjUiIHk9IjM0Mi4yMzQ0Ij5yb29tOiBSb29tPC90ZXh0PjxyZWN0IGZpbGw9Im5vbmUiIGhlaWdodD0iNiIgc3R5bGU9InN0cm9rZTojQzgyOTMwO3N0cm9rZS13aWR0aDoxLjA7IiB3aWR0aD0iNiIgeD0iNDA0LjUiIHk9IjM0OS45NzY2Ii8+PHRleHQgZmlsbD0iIzAwMDAwMCIgZm9udC1mYW1pbHk9InNhbnMtc2VyaWYiIGZvbnQtc2l6ZT0iMTQiIGxlbmd0aEFkanVzdD0ic3BhY2luZyIgdGV4dExlbmd0aD0iMTI4IiB4PSI0MTYuNSIgeT0iMzU3LjIxODgiPmN1c3RvbWVyOiBDdXN0b21lcjwvdGV4dD48cmVjdCBmaWxsPSJub25lIiBoZWlnaHQ9IjYiIHN0eWxlPSJzdHJva2U6I0M4MjkzMDtzdHJva2Utd2lkdGg6MS4wOyIgd2lkdGg9IjYiIHg9IjQwNC41IiB5PSIzNjQuOTYwOSIvPjx0ZXh0IGZpbGw9IiMwMDAwMDAiIGZvbnQtZmFtaWx5PSJzYW5zLXNlcmlmIiBmb250LXNpemU9IjE0IiBsZW5ndGhBZGp1c3Q9InNwYWNpbmciIHRleHRMZW5ndGg9IjExOSIgeD0iNDE2LjUiIHk9IjM3Mi4yMDMxIj5jaGVja0luRGF0ZTogRGF0ZTwvdGV4dD48cmVjdCBmaWxsPSJub25lIiBoZWlnaHQ9IjYiIHN0eWxlPSJzdHJva2U6I0M4MjkzMDtzdHJva2Utd2lkdGg6MS4wOyIgd2lkdGg9IjYiIHg9IjQwNC41IiB5PSIzNzkuOTQ1MyIvPjx0ZXh0IGZpbGw9IiMwMDAwMDAiIGZvbnQtZmFtaWx5PSJzYW5zLXNlcmlmIiBmb250LXNpemU9IjE0IiBsZW5ndGhBZGp1c3Q9InNwYWNpbmciIHRleHRMZW5ndGg9IjEyNiIgeD0iNDE2LjUiIHk9IjM4Ny4xODc1Ij5jaGVja091dERhdGU6IERhdGU8L3RleHQ+PHJlY3QgZmlsbD0ibm9uZSIgaGVpZ2h0PSI2IiBzdHlsZT0ic3Ryb2tlOiNDODI5MzA7c3Ryb2tlLXdpZHRoOjEuMDsiIHdpZHRoPSI2IiB4PSI0MDQuNSIgeT0iMzk0LjkyOTciLz48dGV4dCBmaWxsPSIjMDAwMDAwIiBmb250LWZhbWlseT0ic2Fucy1zZXJpZiIgZm9udC1zaXplPSIxNCIgbGVuZ3RoQWRqdXN0PSJzcGFjaW5nIiB0ZXh0TGVuZ3RoPSIxMzQiIHg9IjQxNi41IiB5PSI0MDIuMTcxOSI+dG90YWxBbW91bnQ6IGRvdWJsZTwvdGV4dD48cmVjdCBmaWxsPSJub25lIiBoZWlnaHQ9IjYiIHN0eWxlPSJzdHJva2U6I0M4MjkzMDtzdHJva2Utd2lkdGg6MS4wOyIgd2lkdGg9IjYiIHg9IjQwNC41IiB5PSI0MDkuOTE0MSIvPjx0ZXh0IGZpbGw9IiMwMDAwMDAiIGZvbnQtZmFtaWx5PSJzYW5zLXNlcmlmIiBmb250LXNpemU9IjE0IiBsZW5ndGhBZGp1c3Q9InNwYWNpbmciIHRleHRMZW5ndGg9IjI1MiIgeD0iNDE2LjUiIHk9IjQxNy4xNTYzIj5zZXJ2aWNlc0NoYXJnZWQ6IExpc3QmbHQ7U2VydmljZUNoYXJnZSZndDs8L3RleHQ+PHJlY3QgZmlsbD0ibm9uZSIgaGVpZ2h0PSI2IiBzdHlsZT0ic3Ryb2tlOiNDODI5MzA7c3Ryb2tlLXdpZHRoOjEuMDsiIHdpZHRoPSI2IiB4PSI0MDQuNSIgeT0iNDI0Ljg5ODQiLz48dGV4dCBmaWxsPSIjMDAwMDAwIiBmb250LWZhbWlseT0ic2Fucy1zZXJpZiIgZm9udC1zaXplPSIxNCIgbGVuZ3RoQWRqdXN0PSJzcGFjaW5nIiB0ZXh0TGVuZ3RoPSIyMDUiIHg9IjQxNi41IiB5PSI0MzIuMTQwNiI+cGF5bWVudEhpc3Rvcnk6IExpc3QmbHQ7UGF5bWVudCZndDs8L3RleHQ+PGxpbmUgc3R5bGU9InN0cm9rZTojMTgxODE4O3N0cm9rZS13aWR0aDowLjU7IiB4MT0iMzk3LjUiIHgyPSI2NzMuNSIgeTE9IjQzNy44OTA2IiB5Mj0iNDM3Ljg5MDYiLz48L2c+PCEtLWNsYXNzIFNlcnZpY2VDaGFyZ2UtLT48ZyBpZD0iZWxlbV9TZXJ2aWNlQ2hhcmdlIj48cmVjdCBjb2RlTGluZT0iNTAiIGZpbGw9IiNGMUYxRjEiIGhlaWdodD0iMTIyLjkyMTkiIGlkPSJTZXJ2aWNlQ2hhcmdlIiByeD0iMi41IiByeT0iMi41IiBzdHlsZT0ic3Ryb2tlOiMxODE4MTg7c3Ryb2tlLXdpZHRoOjAuNTsiIHdpZHRoPSIxNjAiIHg9IjcwOS41IiB5PSIzMDgiLz48ZWxsaXBzZSBjeD0iNzQxLjE1IiBjeT0iMzI0IiBmaWxsPSIjQUREMUIyIiByeD0iMTEiIHJ5PSIxMSIgc3R5bGU9InN0cm9rZTojMTgxODE4O3N0cm9rZS13aWR0aDoxLjA7Ii8+PHBhdGggZD0iTTczOC43NzUsMzI4LjI1IEw3MzguNzc1LDMzMCBMNzQzLjcxMjUsMzMwIEw3NDMuNzEyNSwzMjguMjUgTDczOC43NzUsMzI4LjI1IFogTTczOS40NjI1LDMyOC45Mzc1IFE3MzkuNDYyNSwzMjguOTM3NSA3MzkuNDYyNSwzMTkuNzUgTDczNy43MTI1LDMxOS43NSBRNzM3LjcxMjUsMzE5Ljc1IDczNy43MTI1LDMyOC45Mzc1IEw3MzkuNDYyNSwzMjguOTM3NSBaIE03NDMuMDI1LDMyOC45Mzc1IEw3NDQuNzc1LDMyOC45Mzc1IFE3NDQuNzc1LDMyOC45Mzc1IDc0NC43NzUsMzI2LjEyNSBMNzQzLjAyNSwzMjYuMTI1IFE3NDMuMDI1LDMyNi4xMjUgNzQzLjAyNSwzMjguOTM3NSBaIE03NDMuMDI1LDMxOS43NSBRNzQzLjAyNSwzMTkuNzUgNzQzLjAyNSwzMjIuNTYyNSBMNzQ0Ljc3NSwzMjIuNTYyNSBRNzQ0Ljc3NSwzMjIuNTYyNSA3NDQuNzc1LDMxOS43NSBMNzQzLjAyNSwzMTkuNzUgWiBNNzM4Ljc3NSwzMjAuNDM3NSBMNzQzLjcxMjUsMzIwLjQzNzUgTDc0My43MTI1LDMxOC42ODc1IEw3MzguNzc1LDMxOC42ODc1IEw3MzguNzc1LDMyMC40Mzc1IFogIiBmaWxsPSIjMDAwMDAwIi8+PHRleHQgZmlsbD0iIzAwMDAwMCIgZm9udC1mYW1pbHk9InNhbnMtc2VyaWYiIGZvbnQtc2l6ZT0iMTQiIGxlbmd0aEFkanVzdD0ic3BhY2luZyIgdGV4dExlbmd0aD0iOTEiIHg9Ijc1OC44NSIgeT0iMzI5Ljc0MjIiPlNlcnZpY2VDaGFyZ2U8L3RleHQ+PGxpbmUgc3R5bGU9InN0cm9rZTojMTgxODE4O3N0cm9rZS13aWR0aDowLjU7IiB4MT0iNzEwLjUiIHgyPSI4NjguNSIgeTE9IjM0MCIgeTI9IjM0MCIvPjxyZWN0IGZpbGw9Im5vbmUiIGhlaWdodD0iNiIgc3R5bGU9InN0cm9rZTojQzgyOTMwO3N0cm9rZS13aWR0aDoxLjA7IiB3aWR0aD0iNiIgeD0iNzE3LjUiIHk9IjM0OS45OTIyIi8+PHRleHQgZmlsbD0iIzAwMDAwMCIgZm9udC1mYW1pbHk9InNhbnMtc2VyaWYiIGZvbnQtc2l6ZT0iMTQiIGxlbmd0aEFkanVzdD0ic3BhY2luZyIgdGV4dExlbmd0aD0iMTM0IiB4PSI3MjkuNSIgeT0iMzU3LjIzNDQiPnNlcnZpY2VOYW1lOiBTdHJpbmc8L3RleHQ+PHJlY3QgZmlsbD0ibm9uZSIgaGVpZ2h0PSI2IiBzdHlsZT0ic3Ryb2tlOiNDODI5MzA7c3Ryb2tlLXdpZHRoOjEuMDsiIHdpZHRoPSI2IiB4PSI3MTcuNSIgeT0iMzY0Ljk3NjYiLz48dGV4dCBmaWxsPSIjMDAwMDAwIiBmb250LWZhbWlseT0ic2Fucy1zZXJpZiIgZm9udC1zaXplPSIxNCIgbGVuZ3RoQWRqdXN0PSJzcGFjaW5nIiB0ZXh0TGVuZ3RoPSI4NCIgeD0iNzI5LjUiIHk9IjM3Mi4yMTg4Ij51bml0OiBTdHJpbmc8L3RleHQ+PHJlY3QgZmlsbD0ibm9uZSIgaGVpZ2h0PSI2IiBzdHlsZT0ic3Ryb2tlOiNDODI5MzA7c3Ryb2tlLXdpZHRoOjEuMDsiIHdpZHRoPSI2IiB4PSI3MTcuNSIgeT0iMzc5Ljk2MDkiLz48dGV4dCBmaWxsPSIjMDAwMDAwIiBmb250LWZhbWlseT0ic2Fucy1zZXJpZiIgZm9udC1zaXplPSIxNCIgbGVuZ3RoQWRqdXN0PSJzcGFjaW5nIiB0ZXh0TGVuZ3RoPSIxMTkiIHg9IjcyOS41IiB5PSIzODcuMjAzMSI+dW5pdFByaWNlOiBkb3VibGU8L3RleHQ+PHJlY3QgZmlsbD0ibm9uZSIgaGVpZ2h0PSI2IiBzdHlsZT0ic3Ryb2tlOiNDODI5MzA7c3Ryb2tlLXdpZHRoOjEuMDsiIHdpZHRoPSI2IiB4PSI3MTcuNSIgeT0iMzk0Ljk0NTMiLz48dGV4dCBmaWxsPSIjMDAwMDAwIiBmb250LWZhbWlseT0ic2Fucy1zZXJpZiIgZm9udC1zaXplPSIxNCIgbGVuZ3RoQWRqdXN0PSJzcGFjaW5nIiB0ZXh0TGVuZ3RoPSI5MSIgeD0iNzI5LjUiIHk9IjQwMi4xODc1Ij5xdWFudGl0eTogaW50PC90ZXh0PjxyZWN0IGZpbGw9Im5vbmUiIGhlaWdodD0iNiIgc3R5bGU9InN0cm9rZTojQzgyOTMwO3N0cm9rZS13aWR0aDoxLjA7IiB3aWR0aD0iNiIgeD0iNzE3LjUiIHk9IjQwOS45Mjk3Ii8+PHRleHQgZmlsbD0iIzAwMDAwMCIgZm9udC1mYW1pbHk9InNhbnMtc2VyaWYiIGZvbnQtc2l6ZT0iMTQiIGxlbmd0aEFkanVzdD0ic3BhY2luZyIgdGV4dExlbmd0aD0iMTM0IiB4PSI3MjkuNSIgeT0iNDE3LjE3MTkiPnRvdGFsQW1vdW50OiBkb3VibGU8L3RleHQ+PGxpbmUgc3R5bGU9InN0cm9rZTojMTgxODE4O3N0cm9rZS13aWR0aDowLjU7IiB4MT0iNzEwLjUiIHgyPSI4NjguNSIgeTE9IjQyMi45MjE5IiB5Mj0iNDIyLjkyMTkiLz48L2c+PCEtLWNsYXNzIFBheW1lbnQtLT48ZyBpZD0iZWxlbV9QYXltZW50Ij48cmVjdCBjb2RlTGluZT0iNTgiIGZpbGw9IiNGMUYxRjEiIGhlaWdodD0iNzcuOTY4OCIgaWQ9IlBheW1lbnQiIHJ4PSIyLjUiIHJ5PSIyLjUiIHN0eWxlPSJzdHJva2U6IzE4MTgxODtzdHJva2Utd2lkdGg6MC41OyIgd2lkdGg9IjEyNSIgeD0iOTA1IiB5PSIzMzAuNSIvPjxlbGxpcHNlIGN4PSI5MzkuMzUiIGN5PSIzNDYuNSIgZmlsbD0iI0FERDFCMiIgcng9IjExIiByeT0iMTEiIHN0eWxlPSJzdHJva2U6IzE4MTgxODtzdHJva2Utd2lkdGg6MS4wOyIvPjxwYXRoIGQ9Ik05MzYuOTc1LDM1MC43NSBMOTM2Ljk3NSwzNTIuNSBMOTQxLjkxMjUsMzUyLjUgTDk0MS45MTI1LDM1MC43NSBMOTM2Ljk3NSwzNTAuNzUgWiBNOTM3LjY2MjUsMzUxLjQzNzUgUTkzNy42NjI1LDM1MS40Mzc1IDkzNy42NjI1LDM0Mi4yNSBMOTM1LjkxMjUsMzQyLjI1IFE5MzUuOTEyNSwzNDIuMjUgOTM1LjkxMjUsMzUxLjQzNzUgTDkzNy42NjI1LDM1MS40Mzc1IFogTTk0MS4yMjUsMzUxLjQzNzUgTDk0Mi45NzUsMzUxLjQzNzUgUTk0Mi45NzUsMzUxLjQzNzUgOTQyLjk3NSwzNDguNjI1IEw5NDEuMjI1LDM0OC42MjUgUTk0MS4yMjUsMzQ4LjYyNSA5NDEuMjI1LDM1MS40Mzc1IFogTTk0MS4yMjUsMzQyLjI1IFE5NDEuMjI1LDM0Mi4yNSA5NDEuMjI1LDM0NS4wNjI1IEw5NDIuOTc1LDM0NS4wNjI1IFE5NDIuOTc1LDM0NS4wNjI1IDk0Mi45NzUsMzQyLjI1IEw5NDEuMjI1LDM0Mi4yNSBaIE05MzYuOTc1LDM0Mi45Mzc1IEw5NDEuOTEyNSwzNDIuOTM3NSBMOTQxLjkxMjUsMzQxLjE4NzUgTDkzNi45NzUsMzQxLjE4NzUgTDkzNi45NzUsMzQyLjkzNzUgWiAiIGZpbGw9IiMwMDAwMDAiLz48dGV4dCBmaWxsPSIjMDAwMDAwIiBmb250LWZhbWlseT0ic2Fucy1zZXJpZiIgZm9udC1zaXplPSIxNCIgbGVuZ3RoQWRqdXN0PSJzcGFjaW5nIiB0ZXh0TGVuZ3RoPSI1MCIgeD0iOTU3LjY1IiB5PSIzNTIuMjQyMiI+UGF5bWVudDwvdGV4dD48bGluZSBzdHlsZT0ic3Ryb2tlOiMxODE4MTg7c3Ryb2tlLXdpZHRoOjAuNTsiIHgxPSI5MDYiIHgyPSIxMDI5IiB5MT0iMzYyLjUiIHkyPSIzNjIuNSIvPjxyZWN0IGZpbGw9Im5vbmUiIGhlaWdodD0iNiIgc3R5bGU9InN0cm9rZTojQzgyOTMwO3N0cm9rZS13aWR0aDoxLjA7IiB3aWR0aD0iNiIgeD0iOTEzIiB5PSIzNzIuNDkyMiIvPjx0ZXh0IGZpbGw9IiMwMDAwMDAiIGZvbnQtZmFtaWx5PSJzYW5zLXNlcmlmIiBmb250LXNpemU9IjE0IiBsZW5ndGhBZGp1c3Q9InNwYWNpbmciIHRleHRMZW5ndGg9IjcwIiB4PSI5MjUiIHk9IjM3OS43MzQ0Ij5kYXRlOiBEYXRlPC90ZXh0PjxyZWN0IGZpbGw9Im5vbmUiIGhlaWdodD0iNiIgc3R5bGU9InN0cm9rZTojQzgyOTMwO3N0cm9rZS13aWR0aDoxLjA7IiB3aWR0aD0iNiIgeD0iOTEzIiB5PSIzODcuNDc2NiIvPjx0ZXh0IGZpbGw9IiMwMDAwMDAiIGZvbnQtZmFtaWx5PSJzYW5zLXNlcmlmIiBmb250LXNpemU9IjE0IiBsZW5ndGhBZGp1c3Q9InNwYWNpbmciIHRleHRMZW5ndGg9Ijk5IiB4PSI5MjUiIHk9IjM5NC43MTg4Ij5hbW91bnQ6IGRvdWJsZTwvdGV4dD48bGluZSBzdHlsZT0ic3Ryb2tlOiMxODE4MTg7c3Ryb2tlLXdpZHRoOjAuNTsiIHgxPSI5MDYiIHgyPSIxMDI5IiB5MT0iNDAwLjQ2ODgiIHkyPSI0MDAuNDY4OCIvPjwvZz48IS0tY2xhc3MgQmxhY2tsaXN0LS0+PGcgaWQ9ImVsZW1fQmxhY2tsaXN0Ij48cmVjdCBjb2RlTGluZT0iNjQiIGZpbGw9IiNGMUYxRjEiIGhlaWdodD0iNzcuOTY4OCIgaWQ9IkJsYWNrbGlzdCIgcng9IjIuNSIgcnk9IjIuNSIgc3R5bGU9InN0cm9rZTojMTgxODE4O3N0cm9rZS13aWR0aDowLjU7IiB3aWR0aD0iMTUzIiB4PSI3IiB5PSIzMzAuNSIvPjxlbGxpcHNlIGN4PSI0OC4xIiBjeT0iMzQ2LjUiIGZpbGw9IiNBREQxQjIiIHJ4PSIxMSIgcnk9IjExIiBzdHlsZT0ic3Ryb2tlOiMxODE4MTg7c3Ryb2tlLXdpZHRoOjEuMDsiLz48cGF0aCBkPSJNNDUuNzI1LDM1MC43NSBMNDUuNzI1LDM1Mi41IEw1MC42NjI1LDM1Mi41IEw1MC42NjI1LDM1MC43NSBMNDUuNzI1LDM1MC43NSBaIE00Ni40MTI1LDM1MS40Mzc1IFE0Ni40MTI1LDM1MS40Mzc1IDQ2LjQxMjUsMzQyLjI1IEw0NC42NjI1LDM0Mi4yNSBRNDQuNjYyNSwzNDIuMjUgNDQuNjYyNSwzNTEuNDM3NSBMNDYuNDEyNSwzNTEuNDM3NSBaIE00OS45NzUsMzUxLjQzNzUgTDUxLjcyNSwzNTEuNDM3NSBRNTEuNzI1LDM1MS40Mzc1IDUxLjcyNSwzNDguNjI1IEw0OS45NzUsMzQ4LjYyNSBRNDkuOTc1LDM0OC42MjUgNDkuOTc1LDM1MS40Mzc1IFogTTQ5Ljk3NSwzNDIuMjUgUTQ5Ljk3NSwzNDIuMjUgNDkuOTc1LDM0NS4wNjI1IEw1MS43MjUsMzQ1LjA2MjUgUTUxLjcyNSwzNDUuMDYyNSA1MS43MjUsMzQyLjI1IEw0OS45NzUsMzQyLjI1IFogTTQ1LjcyNSwzNDIuOTM3NSBMNTAuNjYyNSwzNDIuOTM3NSBMNTAuNjYyNSwzNDEuMTg3NSBMNDUuNzI1LDM0MS4xODc1IEw0NS43MjUsMzQyLjkzNzUgWiAiIGZpbGw9IiMwMDAwMDAiLz48dGV4dCBmaWxsPSIjMDAwMDAwIiBmb250LWZhbWlseT0ic2Fucy1zZXJpZiIgZm9udC1zaXplPSIxNCIgbGVuZ3RoQWRqdXN0PSJzcGFjaW5nIiB0ZXh0TGVuZ3RoPSI2MyIgeD0iNjcuOSIgeT0iMzUyLjI0MjIiPkJsYWNrbGlzdDwvdGV4dD48bGluZSBzdHlsZT0ic3Ryb2tlOiMxODE4MTg7c3Ryb2tlLXdpZHRoOjAuNTsiIHgxPSI4IiB4Mj0iMTU5IiB5MT0iMzYyLjUiIHkyPSIzNjIuNSIvPjxyZWN0IGZpbGw9Im5vbmUiIGhlaWdodD0iNiIgc3R5bGU9InN0cm9rZTojQzgyOTMwO3N0cm9rZS13aWR0aDoxLjA7IiB3aWR0aD0iNiIgeD0iMTUiIHk9IjM3Mi40OTIyIi8+PHRleHQgZmlsbD0iIzAwMDAwMCIgZm9udC1mYW1pbHk9InNhbnMtc2VyaWYiIGZvbnQtc2l6ZT0iMTQiIGxlbmd0aEFkanVzdD0ic3BhY2luZyIgdGV4dExlbmd0aD0iMTI3IiB4PSIyNyIgeT0iMzc5LjczNDQiPmN1c3RvbWVySWQ6IFN0cmluZzwvdGV4dD48cmVjdCBmaWxsPSJub25lIiBoZWlnaHQ9IjYiIHN0eWxlPSJzdHJva2U6I0M4MjkzMDtzdHJva2Utd2lkdGg6MS4wOyIgd2lkdGg9IjYiIHg9IjE1IiB5PSIzODcuNDc2NiIvPjx0ZXh0IGZpbGw9IiMwMDAwMDAiIGZvbnQtZmFtaWx5PSJzYW5zLXNlcmlmIiBmb250LXNpemU9IjE0IiBsZW5ndGhBZGp1c3Q9InNwYWNpbmciIHRleHRMZW5ndGg9IjExMiIgeD0iMjciIHk9IjM5NC43MTg4Ij5jYW5jZWxEYXRlOiBEYXRlPC90ZXh0PjxsaW5lIHN0eWxlPSJzdHJva2U6IzE4MTgxODtzdHJva2Utd2lkdGg6MC41OyIgeDE9IjgiIHgyPSIxNTkiIHkxPSI0MDAuNDY4OCIgeTI9IjQwMC40Njg4Ii8+PC9nPjwhLS1jbGFzcyBDYW5jZWxsYXRpb24tLT48ZyBpZD0iZWxlbV9DYW5jZWxsYXRpb24iPjxyZWN0IGNvZGVMaW5lPSI2OSIgZmlsbD0iI0YxRjFGMSIgaGVpZ2h0PSI3Ny45Njg4IiBpZD0iQ2FuY2VsbGF0aW9uIiByeD0iMi41IiByeT0iMi41IiBzdHlsZT0ic3Ryb2tlOiMxODE4MTg7c3Ryb2tlLXdpZHRoOjAuNTsiIHdpZHRoPSIxMzgiIHg9IjIyMy41IiB5PSIzMzAuNSIvPjxlbGxpcHNlIGN4PSIyNDguNCIgY3k9IjM0Ni41IiBmaWxsPSIjQUREMUIyIiByeD0iMTEiIHJ5PSIxMSIgc3R5bGU9InN0cm9rZTojMTgxODE4O3N0cm9rZS13aWR0aDoxLjA7Ii8+PHBhdGggZD0iTTI0Ni4wMjUsMzUwLjc1IEwyNDYuMDI1LDM1Mi41IEwyNTAuOTYyNSwzNTIuNSBMMjUwLjk2MjUsMzUwLjc1IEwyNDYuMDI1LDM1MC43NSBaIE0yNDYuNzEyNSwzNTEuNDM3NSBRMjQ2LjcxMjUsMzUxLjQzNzUgMjQ2LjcxMjUsMzQyLjI1IEwyNDQuOTYyNSwzNDIuMjUgUTI0NC45NjI1LDM0Mi4yNSAyNDQuOTYyNSwzNTEuNDM3NSBMMjQ2LjcxMjUsMzUxLjQzNzUgWiBNMjUwLjI3NSwzNTEuNDM3NSBMMjUyLjAyNSwzNTEuNDM3NSBRMjUyLjAyNSwzNTEuNDM3NSAyNTIuMDI1LDM0OC42MjUgTDI1MC4yNzUsMzQ4LjYyNSBRMjUwLjI3NSwzNDguNjI1IDI1MC4yNzUsMzUxLjQzNzUgWiBNMjUwLjI3NSwzNDIuMjUgUTI1MC4yNzUsMzQyLjI1IDI1MC4yNzUsMzQ1LjA2MjUgTDI1Mi4wMjUsMzQ1LjA2MjUgUTI1Mi4wMjUsMzQ1LjA2MjUgMjUyLjAyNSwzNDIuMjUgTDI1MC4yNzUsMzQyLjI1IFogTTI0Ni4wMjUsMzQyLjkzNzUgTDI1MC45NjI1LDM0Mi45Mzc1IEwyNTAuOTYyNSwzNDEuMTg3NSBMMjQ2LjAyNSwzNDEuMTg3NSBMMjQ2LjAyNSwzNDIuOTM3NSBaICIgZmlsbD0iIzAwMDAwMCIvPjx0ZXh0IGZpbGw9IiMwMDAwMDAiIGZvbnQtZmFtaWx5PSJzYW5zLXNlcmlmIiBmb250LXNpemU9IjE0IiBsZW5ndGhBZGp1c3Q9InNwYWNpbmciIHRleHRMZW5ndGg9Ijg0IiB4PSIyNjQuNiIgeT0iMzUyLjI0MjIiPkNhbmNlbGxhdGlvbjwvdGV4dD48bGluZSBzdHlsZT0ic3Ryb2tlOiMxODE4MTg7c3Ryb2tlLXdpZHRoOjAuNTsiIHgxPSIyMjQuNSIgeDI9IjM2MC41IiB5MT0iMzYyLjUiIHkyPSIzNjIuNSIvPjxyZWN0IGZpbGw9Im5vbmUiIGhlaWdodD0iNiIgc3R5bGU9InN0cm9rZTojQzgyOTMwO3N0cm9rZS13aWR0aDoxLjA7IiB3aWR0aD0iNiIgeD0iMjMxLjUiIHk9IjM3Mi40OTIyIi8+PHRleHQgZmlsbD0iIzAwMDAwMCIgZm9udC1mYW1pbHk9InNhbnMtc2VyaWYiIGZvbnQtc2l6ZT0iMTQiIGxlbmd0aEFkanVzdD0ic3BhY2luZyIgdGV4dExlbmd0aD0iMTEyIiB4PSIyNDMuNSIgeT0iMzc5LjczNDQiPmJvb2tpbmc6IEJvb2tpbmc8L3RleHQ+PHJlY3QgZmlsbD0ibm9uZSIgaGVpZ2h0PSI2IiBzdHlsZT0ic3Ryb2tlOiNDODI5MzA7c3Ryb2tlLXdpZHRoOjEuMDsiIHdpZHRoPSI2IiB4PSIyMzEuNSIgeT0iMzg3LjQ3NjYiLz48dGV4dCBmaWxsPSIjMDAwMDAwIiBmb250LWZhbWlseT0ic2Fucy1zZXJpZiIgZm9udC1zaXplPSIxNCIgbGVuZ3RoQWRqdXN0PSJzcGFjaW5nIiB0ZXh0TGVuZ3RoPSIxMTIiIHg9IjI0My41IiB5PSIzOTQuNzE4OCI+Y2FuY2VsRGF0ZTogRGF0ZTwvdGV4dD48bGluZSBzdHlsZT0ic3Ryb2tlOiMxODE4MTg7c3Ryb2tlLXdpZHRoOjAuNTsiIHgxPSIyMjQuNSIgeDI9IjM2MC41IiB5MT0iNDAwLjQ2ODgiIHkyPSI0MDAuNDY4OCIvPjwvZz48IS0tY2xhc3MgUmVwb3J0TWFuYWdlci0tPjxnIGlkPSJlbGVtX1JlcG9ydE1hbmFnZXIiPjxyZWN0IGNvZGVMaW5lPSI3NCIgZmlsbD0iI0YxRjFGMSIgaGVpZ2h0PSIxNjcuODc1IiBpZD0iUmVwb3J0TWFuYWdlciIgcng9IjIuNSIgcnk9IjIuNSIgc3R5bGU9InN0cm9rZTojMTgxODE4O3N0cm9rZS13aWR0aDowLjU7IiB3aWR0aD0iMzAzIiB4PSIxNzQ3IiB5PSIyODUuNSIvPjxlbGxpcHNlIGN4PSIxODQ4Ljc1IiBjeT0iMzAxLjUiIGZpbGw9IiNBREQxQjIiIHJ4PSIxMSIgcnk9IjExIiBzdHlsZT0ic3Ryb2tlOiMxODE4MTg7c3Ryb2tlLXdpZHRoOjEuMDsiLz48cGF0aCBkPSJNMTg0Ni4zNzUsMzA1Ljc1IEwxODQ2LjM3NSwzMDcuNSBMMTg1MS4zMTI1LDMwNy41IEwxODUxLjMxMjUsMzA1Ljc1IEwxODQ2LjM3NSwzMDUuNzUgWiBNMTg0Ny4wNjI1LDMwNi40Mzc1IFExODQ3LjA2MjUsMzA2LjQzNzUgMTg0Ny4wNjI1LDI5Ny4yNSBMMTg0NS4zMTI1LDI5Ny4yNSBRMTg0NS4zMTI1LDI5Ny4yNSAxODQ1LjMxMjUsMzA2LjQzNzUgTDE4NDcuMDYyNSwzMDYuNDM3NSBaIE0xODUwLjYyNSwzMDYuNDM3NSBMMTg1Mi4zNzUsMzA2LjQzNzUgUTE4NTIuMzc1LDMwNi40Mzc1IDE4NTIuMzc1LDMwMy42MjUgTDE4NTAuNjI1LDMwMy42MjUgUTE4NTAuNjI1LDMwMy42MjUgMTg1MC42MjUsMzA2LjQzNzUgWiBNMTg1MC42MjUsMjk3LjI1IFExODUwLjYyNSwyOTcuMjUgMTg1MC42MjUsMzAwLjA2MjUgTDE4NTIuMzc1LDMwMC4wNjI1IFExODUyLjM3NSwzMDAuMDYyNSAxODUyLjM3NSwyOTcuMjUgTDE4NTAuNjI1LDI5Ny4yNSBaIE0xODQ2LjM3NSwyOTcuOTM3NSBMMTg1MS4zMTI1LDI5Ny45Mzc1IEwxODUxLjMxMjUsMjk2LjE4NzUgTDE4NDYuMzc1LDI5Ni4xODc1IEwxODQ2LjM3NSwyOTcuOTM3NSBaICIgZmlsbD0iIzAwMDAwMCIvPjx0ZXh0IGZpbGw9IiMwMDAwMDAiIGZvbnQtZmFtaWx5PSJzYW5zLXNlcmlmIiBmb250LXNpemU9IjE0IiBsZW5ndGhBZGp1c3Q9InNwYWNpbmciIHRleHRMZW5ndGg9IjkxIiB4PSIxODY5LjI1IiB5PSIzMDcuMjQyMiI+UmVwb3J0TWFuYWdlcjwvdGV4dD48bGluZSBzdHlsZT0ic3Ryb2tlOiMxODE4MTg7c3Ryb2tlLXdpZHRoOjAuNTsiIHgxPSIxNzQ4IiB4Mj0iMjA0OSIgeTE9IjMxNy41IiB5Mj0iMzE3LjUiLz48bGluZSBzdHlsZT0ic3Ryb2tlOiMxODE4MTg7c3Ryb2tlLXdpZHRoOjAuNTsiIHgxPSIxNzQ4IiB4Mj0iMjA0OSIgeTE9IjMyNS41IiB5Mj0iMzI1LjUiLz48ZWxsaXBzZSBjeD0iMTc1OCIgY3k9IjMzOC40OTIyIiBmaWxsPSIjODRCRTg0IiByeD0iMyIgcnk9IjMiIHN0eWxlPSJzdHJva2U6IzAzODA0ODtzdHJva2Utd2lkdGg6MS4wOyIvPjx0ZXh0IGZpbGw9IiMwMDAwMDAiIGZvbnQtZmFtaWx5PSJzYW5zLXNlcmlmIiBmb250LXNpemU9IjE0IiBsZW5ndGhBZGp1c3Q9InNwYWNpbmciIHRleHRMZW5ndGg9IjIwNiIgeD0iMTc2NyIgeT0iMzQyLjczNDQiPmdlbmVyYXRlUmV2ZW51ZVJlcG9ydEJ5VGltZSgpPC90ZXh0PjxlbGxpcHNlIGN4PSIxNzU4IiBjeT0iMzUzLjQ3NjYiIGZpbGw9IiM4NEJFODQiIHJ4PSIzIiByeT0iMyIgc3R5bGU9InN0cm9rZTojMDM4MDQ4O3N0cm9rZS13aWR0aDoxLjA7Ii8+PHRleHQgZmlsbD0iIzAwMDAwMCIgZm9udC1mYW1pbHk9InNhbnMtc2VyaWYiIGZvbnQtc2l6ZT0iMTQiIGxlbmd0aEFkanVzdD0ic3BhY2luZyIgdGV4dExlbmd0aD0iMjA2IiB4PSIxNzY3IiB5PSIzNTcuNzE4OCI+Z2VuZXJhdGVSZXZlbnVlUmVwb3J0QnlSb29tKCk8L3RleHQ+PGVsbGlwc2UgY3g9IjE3NTgiIGN5PSIzNjguNDYwOSIgZmlsbD0iIzg0QkU4NCIgcng9IjMiIHJ5PSIzIiBzdHlsZT0ic3Ryb2tlOiMwMzgwNDg7c3Ryb2tlLXdpZHRoOjEuMDsiLz48dGV4dCBmaWxsPSIjMDAwMDAwIiBmb250LWZhbWlseT0ic2Fucy1zZXJpZiIgZm9udC1zaXplPSIxNCIgbGVuZ3RoQWRqdXN0PSJzcGFjaW5nIiB0ZXh0TGVuZ3RoPSIyMzQiIHg9IjE3NjciIHk9IjM3Mi43MDMxIj5nZW5lcmF0ZVJldmVudWVSZXBvcnRCeVJvb21UeXBlKCk8L3RleHQ+PGVsbGlwc2UgY3g9IjE3NTgiIGN5PSIzODMuNDQ1MyIgZmlsbD0iIzg0QkU4NCIgcng9IjMiIHJ5PSIzIiBzdHlsZT0ic3Ryb2tlOiMwMzgwNDg7c3Ryb2tlLXdpZHRoOjEuMDsiLz48dGV4dCBmaWxsPSIjMDAwMDAwIiBmb250LWZhbWlseT0ic2Fucy1zZXJpZiIgZm9udC1zaXplPSIxNCIgbGVuZ3RoQWRqdXN0PSJzcGFjaW5nIiB0ZXh0TGVuZ3RoPSIyNDkiIHg9IjE3NjciIHk9IjM4Ny42ODc1Ij5nZW5lcmF0ZVJvb21PY2N1cGFuY3lSZXBvcnRCeVRpbWUoKTwvdGV4dD48ZWxsaXBzZSBjeD0iMTc1OCIgY3k9IjM5OC40Mjk3IiBmaWxsPSIjODRCRTg0IiByeD0iMyIgcnk9IjMiIHN0eWxlPSJzdHJva2U6IzAzODA0ODtzdHJva2Utd2lkdGg6MS4wOyIvPjx0ZXh0IGZpbGw9IiMwMDAwMDAiIGZvbnQtZmFtaWx5PSJzYW5zLXNlcmlmIiBmb250LXNpemU9IjE0IiBsZW5ndGhBZGp1c3Q9InNwYWNpbmciIHRleHRMZW5ndGg9IjI0OSIgeD0iMTc2NyIgeT0iNDAyLjY3MTkiPmdlbmVyYXRlUm9vbU9jY3VwYW5jeVJlcG9ydEJ5Um9vbSgpPC90ZXh0PjxlbGxpcHNlIGN4PSIxNzU4IiBjeT0iNDEzLjQxNDEiIGZpbGw9IiM4NEJFODQiIHJ4PSIzIiByeT0iMyIgc3R5bGU9InN0cm9rZTojMDM4MDQ4O3N0cm9rZS13aWR0aDoxLjA7Ii8+PHRleHQgZmlsbD0iIzAwMDAwMCIgZm9udC1mYW1pbHk9InNhbnMtc2VyaWYiIGZvbnQtc2l6ZT0iMTQiIGxlbmd0aEFkanVzdD0ic3BhY2luZyIgdGV4dExlbmd0aD0iMjc3IiB4PSIxNzY3IiB5PSI0MTcuNjU2MyI+Z2VuZXJhdGVSb29tT2NjdXBhbmN5UmVwb3J0QnlSb29tVHlwZSgpPC90ZXh0PjxlbGxpcHNlIGN4PSIxNzU4IiBjeT0iNDI4LjM5ODQiIGZpbGw9IiM4NEJFODQiIHJ4PSIzIiByeT0iMyIgc3R5bGU9InN0cm9rZTojMDM4MDQ4O3N0cm9rZS13aWR0aDoxLjA7Ii8+PHRleHQgZmlsbD0iIzAwMDAwMCIgZm9udC1mYW1pbHk9InNhbnMtc2VyaWYiIGZvbnQtc2l6ZT0iMTQiIGxlbmd0aEFkanVzdD0ic3BhY2luZyIgdGV4dExlbmd0aD0iMjYzIiB4PSIxNzY3IiB5PSI0MzIuNjQwNiI+Z2VuZXJhdGVDdXN0b21lckJvb2tpbmdSZXBvcnRCeVRpbWUoKTwvdGV4dD48ZWxsaXBzZSBjeD0iMTc1OCIgY3k9IjQ0My4zODI4IiBmaWxsPSIjODRCRTg0IiByeD0iMyIgcnk9IjMiIHN0eWxlPSJzdHJva2U6IzAzODA0ODtzdHJva2Utd2lkdGg6MS4wOyIvPjx0ZXh0IGZpbGw9IiMwMDAwMDAiIGZvbnQtZmFtaWx5PSJzYW5zLXNlcmlmIiBmb250LXNpemU9IjE0IiBsZW5ndGhBZGp1c3Q9InNwYWNpbmciIHRleHRMZW5ndGg9IjI3NiIgeD0iMTc2NyIgeT0iNDQ3LjYyNSI+Z2VuZXJhdGVDdXN0b21lckJvb2tpbmdSZXBvcnRCeVNvdXJjZSgpPC90ZXh0PjwvZz48IS0tbGluayBIb3RlbFN0YWZmIHRvIFJlY2VwdGlvbmlzdC0tPjxnIGlkPSJsaW5rX0hvdGVsU3RhZmZfUmVjZXB0aW9uaXN0Ij48cGF0aCBjb2RlTGluZT0iODUiIGQ9Ik0xMTkyLjI1LDg4LjIyIEMxMTY5LjQyLDEwNS4xOCAxMTM4LjQ0LDEyOC4yMSAxMTE0LjcyLDE0NS44MyAiIGZpbGw9Im5vbmUiIGlkPSJIb3RlbFN0YWZmLXRvLVJlY2VwdGlvbmlzdCIgc3R5bGU9InN0cm9rZTojMDAwMEZGO3N0cm9rZS13aWR0aDoxLjA7Ii8+PHBvbHlnb24gZmlsbD0iIzAwMDBGRiIgcG9pbnRzPSIxMTEwLjY4LDE0OC44MywxMTIwLjI4ODcsMTQ2LjY2ODQsMTExNC42OTIsMTQ1Ljg0NiwxMTE1LjUxNDMsMTQwLjI0OTMsMTExMC42OCwxNDguODMiIHN0eWxlPSJzdHJva2U6IzAwMDBGRjtzdHJva2Utd2lkdGg6MS4wOyIvPjwvZz48IS0tbGluayBIb3RlbFN0YWZmIHRvIFNhbGVzU3RhZmYtLT48ZyBpZD0ibGlua19Ib3RlbFN0YWZmX1NhbGVzU3RhZmYiPjxwYXRoIGNvZGVMaW5lPSI4NiIgZD0iTTEyMjMuNSw4OC4yMiBDMTIyMy41LDEwNC40OCAxMjIzLjUsMTI2LjMyIDEyMjMuNSwxNDMuNjIgIiBmaWxsPSJub25lIiBpZD0iSG90ZWxTdGFmZi10by1TYWxlc1N0YWZmIiBzdHlsZT0ic3Ryb2tlOiMwMDgwMDA7c3Ryb2tlLXdpZHRoOjEuMDsiLz48cG9seWdvbiBmaWxsPSIjMDA4MDAwIiBwb2ludHM9IjEyMjMuNSwxNDguODMsMTIyNy41LDEzOS44MywxMjIzLjUsMTQzLjgzLDEyMTkuNSwxMzkuODMsMTIyMy41LDE0OC44MyIgc3R5bGU9InN0cm9rZTojMDA4MDAwO3N0cm9rZS13aWR0aDoxLjA7Ii8+PC9nPjwhLS1saW5rIEhvdGVsU3RhZmYgdG8gTWFuYWdlci0tPjxnIGlkPSJsaW5rX0hvdGVsU3RhZmZfTWFuYWdlciI+PHBhdGggY29kZUxpbmU9Ijg3IiBkPSJNMTI1MS4wNiw4OC4yMiBDMTI3MS4wMywxMDUuMDQgMTI5OC4wNywxMjcuODMgMTMxOC45MSwxNDUuMzkgIiBmaWxsPSJub25lIiBpZD0iSG90ZWxTdGFmZi10by1NYW5hZ2VyIiBzdHlsZT0ic3Ryb2tlOiNGRjAwMDA7c3Ryb2tlLXdpZHRoOjEuMDsiLz48cG9seWdvbiBmaWxsPSIjRkYwMDAwIiBwb2ludHM9IjEzMjMsMTQ4LjgzLDEzMTguNjk1NCwxMzkuOTcxNiwxMzE5LjE3NjYsMTQ1LjYwOCwxMzEzLjU0MDIsMTQ2LjA4OTIsMTMyMywxNDguODMiIHN0eWxlPSJzdHJva2U6I0ZGMDAwMDtzdHJva2Utd2lkdGg6MS4wOyIvPjwvZz48IS0tbGluayBSZWNlcHRpb25pc3QgdG8gSG90ZWwtLT48ZyBpZD0ibGlua19SZWNlcHRpb25pc3RfSG90ZWwiPjxwYXRoIGNvZGVMaW5lPSI4OSIgZD0iTTEwODkuNywxOTcuMDggQzEwOTguMjksMjEzLjQgMTExMi4yNiwyMzQuMDggMTEzMS41LDI0NCBDMTE3MC42MiwyNjQuMTcgMTQ4Ny42NSwyMzMuMzIgMTUyNy41LDI1MiBDMTU1MS41OSwyNjMuMjkgMTU3Mi4xOSwyODMuMzcgMTU4OC4zOSwzMDMuNzIgIiBmaWxsPSJub25lIiBpZD0iUmVjZXB0aW9uaXN0LXRvLUhvdGVsIiBzdHlsZT0ic3Ryb2tlOiMwMDAwRkY7c3Ryb2tlLXdpZHRoOjEuMDtzdHJva2UtZGFzaGFycmF5OjcuMCw3LjA7Ii8+PHBvbHlnb24gZmlsbD0iIzAwMDBGRiIgcG9pbnRzPSIxNTkxLjU3LDMwNy43OSwxNTg5LjE5NDgsMjk4LjIzMTksMTU4OC40OTczLDMwMy44NDU1LDE1ODIuODgzNiwzMDMuMTQ4MSwxNTkxLjU3LDMwNy43OSIgc3R5bGU9InN0cm9rZTojMDAwMEZGO3N0cm9rZS13aWR0aDoxLjA7Ii8+PHRleHQgZmlsbD0iIzAwMDAwMCIgZm9udC1mYW1pbHk9InNhbnMtc2VyaWYiIGZvbnQtc2l6ZT0iMTMiIGxlbmd0aEFkanVzdD0ic3BhY2luZyIgdGV4dExlbmd0aD0iNDgiIHg9IjExMzIuNSIgeT0iMjQyLjI4OTEiPm1hbmFnZXM8L3RleHQ+PC9nPjwhLS1saW5rIFNhbGVzU3RhZmYgdG8gSG90ZWwtLT48ZyBpZD0ibGlua19TYWxlc1N0YWZmX0hvdGVsIj48cGF0aCBjb2RlTGluZT0iOTAiIGQ9Ik0xMjUwLjIzLDE5Ny4wMSBDMTI2Mi4zNCwyMDYuMTEgMTI3Ny4zMiwyMTUuNjYgMTI5Mi41LDIyMSBDMTMzNC45NywyMzUuOTUgMTM0OS45NywyMTcuNDggMTM5My41LDIyOSBDMTQwOC42OCwyMzMuMDIgMTQxMC4zMSwyMzkuOTkgMTQyNS41LDI0NCBDMTQ0Ny40OCwyNDkuODEgMTUwNy4yLDI0MS43NiAxNTI3LjUsMjUyIEMxNTUxLjAyLDI2My44NyAxNTcxLjM5LDI4My44NCAxNTg3LjU1LDMwMy45MiAiIGZpbGw9Im5vbmUiIGlkPSJTYWxlc1N0YWZmLXRvLUhvdGVsIiBzdHlsZT0ic3Ryb2tlOiMwMDgwMDA7c3Ryb2tlLXdpZHRoOjEuMDtzdHJva2UtZGFzaGFycmF5OjcuMCw3LjA7Ii8+PHBvbHlnb24gZmlsbD0iIzAwODAwMCIgcG9pbnRzPSIxNTkwLjcyLDMwNy45NCwxNTg4LjI4NSwyOTguMzk2OSwxNTg3LjYyMjcsMzA0LjAxNDksMTU4Mi4wMDQ4LDMwMy4zNTI2LDE1OTAuNzIsMzA3Ljk0IiBzdHlsZT0ic3Ryb2tlOiMwMDgwMDA7c3Ryb2tlLXdpZHRoOjEuMDsiLz48dGV4dCBmaWxsPSIjMDAwMDAwIiBmb250LWZhbWlseT0ic2Fucy1zZXJpZiIgZm9udC1zaXplPSIxMyIgbGVuZ3RoQWRqdXN0PSJzcGFjaW5nIiB0ZXh0TGVuZ3RoPSI0OCIgeD0iMTQyNi41IiB5PSIyNDIuMjg5MSI+bWFuYWdlczwvdGV4dD48L2c+PCEtLWxpbmsgTWFuYWdlciB0byBIb3RlbC0tPjxnIGlkPSJsaW5rX01hbmFnZXJfSG90ZWwiPjxwYXRoIGNvZGVMaW5lPSI5MSIgZD0iTTEzOTEsMTc1LjMyIEMxNDY0LjcyLDE3OC42NSAxNjE2LjE5LDE5MC4xOCAxNjQ4LjUsMjI5IEMxNjY1LjM3LDI0OS4yNyAxNjY0LjQ5LDI3Ny4yMSAxNjU3LjgxLDMwMi43NyAiIGZpbGw9Im5vbmUiIGlkPSJNYW5hZ2VyLXRvLUhvdGVsIiBzdHlsZT0ic3Ryb2tlOiNGRjAwMDA7c3Ryb2tlLXdpZHRoOjEuMDtzdHJva2UtZGFzaGFycmF5OjcuMCw3LjA7Ii8+PHBvbHlnb24gZmlsbD0iI0ZGMDAwMCIgcG9pbnRzPSIxNjU2LjQsMzA3Ljg0LDE2NjIuNjUwMSwzMDAuMjI4NCwxNjU3LjczMDEsMzAzLjAyMDIsMTY1NC45MzgzLDI5OC4xMDAyLDE2NTYuNCwzMDcuODQiIHN0eWxlPSJzdHJva2U6I0ZGMDAwMDtzdHJva2Utd2lkdGg6MS4wOyIvPjx0ZXh0IGZpbGw9IiMwMDAwMDAiIGZvbnQtZmFtaWx5PSJzYW5zLXNlcmlmIiBmb250LXNpemU9IjEzIiBsZW5ndGhBZGp1c3Q9InNwYWNpbmciIHRleHRMZW5ndGg9IjQ4IiB4PSIxNjU2LjUiIHk9IjI0Mi4yODkxIj5tYW5hZ2VzPC90ZXh0PjwvZz48IS0tbGluayBNYW5hZ2VyIHRvIEhvdGVsLS0+PGcgaWQ9ImxpbmtfTWFuYWdlcl9Ib3RlbCI+PHBhdGggY29kZUxpbmU9IjEwMiIgZD0iTTEzOTEuMjksMTczLjgyIEMxNDc3LjIyLDE3NC40IDE2NzIuMzEsMTgxLjA5IDE3MTMuNSwyMjkgQzE3MzIuOTgsMjUxLjY2IDE3MjIuMDMsMjc5LjI5IDE3MDIuMzksMzAzLjk3ICIgZmlsbD0ibm9uZSIgaWQ9Ik1hbmFnZXItdG8tSG90ZWwtMSIgc3R5bGU9InN0cm9rZTojRkYwMDAwO3N0cm9rZS13aWR0aDoxLjA7Ii8+PHBvbHlnb24gZmlsbD0iI0ZGMDAwMCIgcG9pbnRzPSIxNjk5LjE3LDMwNy45MSwxNzA3Ljk3NTcsMzAzLjQ5ODYsMTcwMi4zNDU1LDMwNC4wNDc5LDE3MDEuNzk2MiwyOTguNDE3NywxNjk5LjE3LDMwNy45MSIgc3R5bGU9InN0cm9rZTojRkYwMDAwO3N0cm9rZS13aWR0aDoxLjA7Ii8+PHRleHQgZmlsbD0iIzAwMDAwMCIgZm9udC1mYW1pbHk9InNhbnMtc2VyaWYiIGZvbnQtc2l6ZT0iMTMiIGxlbmd0aEFkanVzdD0ic3BhY2luZyIgdGV4dExlbmd0aD0iNDgiIHg9IjE3MjIuNSIgeT0iMjQyLjI4OTEiPm1hbmFnZXM8L3RleHQ+PC9nPjwhLS1saW5rIFJlY2VwdGlvbmlzdCB0byBSb29tLS0+PGcgaWQ9ImxpbmtfUmVjZXB0aW9uaXN0X1Jvb20iPjxwYXRoIGNvZGVMaW5lPSI5MiIgZD0iTTEwMzAuMTMsMTk3LjE2IEMxMDA3LjkyLDIxMC41NiA5ODkuODMsMjI3LjkxIDEwMDUuNSwyNDQgQzEwMTcuMzcsMjU2LjE4IDEyOTYsMjQ0Ljk5IDEzMTEuNSwyNTIgQzEzMzMuNDYsMjYxLjkzIDEzNTMuMDEsMjc4LjY2IDEzNjkuMjQsMjk2LjM4ICIgZmlsbD0ibm9uZSIgaWQ9IlJlY2VwdGlvbmlzdC10by1Sb29tIiBzdHlsZT0ic3Ryb2tlOiMwMDAwRkY7c3Ryb2tlLXdpZHRoOjEuMDtzdHJva2UtZGFzaGFycmF5OjcuMCw3LjA7Ii8+PHBvbHlnb24gZmlsbD0iIzAwMDBGRiIgcG9pbnRzPSIxMzcyLjg3LDMwMC40MiwxMzY5LjgyMjUsMjkxLjA1NDUsMTM2OS41MjUyLDI5Ni43MDM1LDEzNjMuODc2MSwyOTYuNDA2MiwxMzcyLjg3LDMwMC40MiIgc3R5bGU9InN0cm9rZTojMDAwMEZGO3N0cm9rZS13aWR0aDoxLjA7Ii8+PHRleHQgZmlsbD0iIzAwMDAwMCIgZm9udC1mYW1pbHk9InNhbnMtc2VyaWYiIGZvbnQtc2l6ZT0iMTMiIGxlbmd0aEFkanVzdD0ic3BhY2luZyIgdGV4dExlbmd0aD0iNTYiIHg9IjEwMDYuNSIgeT0iMjQyLjI4OTEiPnNlYXJjaGVzPC90ZXh0PjwvZz48IS0tbGluayBSZWNlcHRpb25pc3QgdG8gQm9va2luZy0tPjxnIGlkPSJsaW5rX1JlY2VwdGlvbmlzdF9Cb29raW5nIj48cGF0aCBjb2RlTGluZT0iOTMiIGQ9Ik0xMDIxLjI4LDE3My42MSBDOTA4LjA5LDE3My45NSA2NjMuNjIsMTgwLjQ4IDU5Ny41LDIyOSBDNTc3Ljc1LDI0My40OSA1NjQuMTgsMjY1LjcgNTU0LjksMjg4LjE3ICIgZmlsbD0ibm9uZSIgaWQ9IlJlY2VwdGlvbmlzdC10by1Cb29raW5nIiBzdHlsZT0ic3Ryb2tlOiMwMDAwRkY7c3Ryb2tlLXdpZHRoOjEuMDtzdHJva2UtZGFzaGFycmF5OjcuMCw3LjA7Ii8+PHBvbHlnb24gZmlsbD0iIzAwMDBGRiIgcG9pbnRzPSI1NTIuOTksMjkyLjk3LDU2MC4wNDY0LDI4Ni4wOTkzLDU1NC44NDcsMjg4LjMyNzYsNTUyLjYxODYsMjgzLjEyODEsNTUyLjk5LDI5Mi45NyIgc3R5bGU9InN0cm9rZTojMDAwMEZGO3N0cm9rZS13aWR0aDoxLjA7Ii8+PHRleHQgZmlsbD0iIzAwMDAwMCIgZm9udC1mYW1pbHk9InNhbnMtc2VyaWYiIGZvbnQtc2l6ZT0iMTMiIGxlbmd0aEFkanVzdD0ic3BhY2luZyIgdGV4dExlbmd0aD0iMTY5IiB4PSI1OTguNSIgeT0iMjQyLjI4OTEiPmNyZWF0ZXMsIHVwZGF0ZXMsIGRlbGV0ZXM8L3RleHQ+PC9nPjwhLS1saW5rIFJlY2VwdGlvbmlzdCB0byBDdXN0b21lci0tPjxnIGlkPSJsaW5rX1JlY2VwdGlvbmlzdF9DdXN0b21lciI+PHBhdGggY29kZUxpbmU9Ijk0IiBkPSJNMTAyMS4yNCwxNzkuODEgQzk2MC44OSwxODcuOTggODgwLjAxLDIwNi4zIDkxNS41LDI0NCBDOTI1LjU3LDI1NC43IDEwMzMuOTIsMjQ2LjM5IDEwNDcuNSwyNTIgQzEwNjguNzcsMjYwLjc5IDEwODguOTUsMjc0LjQ5IDExMDYuODQsMjg5LjQ1ICIgZmlsbD0ibm9uZSIgaWQ9IlJlY2VwdGlvbmlzdC10by1DdXN0b21lciIgc3R5bGU9InN0cm9rZTojMDAwMEZGO3N0cm9rZS13aWR0aDoxLjA7c3Ryb2tlLWRhc2hhcnJheTo3LjAsNy4wOyIvPjxwb2x5Z29uIGZpbGw9IiMwMDAwRkYiIHBvaW50cz0iMTExMC44NiwyOTIuODYsMTEwNi41NzQ4LDI4My45OTIzLDExMDcuMDQzNiwyODkuNjI5NiwxMTAxLjQwNjIsMjkwLjA5ODUsMTExMC44NiwyOTIuODYiIHN0eWxlPSJzdHJva2U6IzAwMDBGRjtzdHJva2Utd2lkdGg6MS4wOyIvPjx0ZXh0IGZpbGw9IiMwMDAwMDAiIGZvbnQtZmFtaWx5PSJzYW5zLXNlcmlmIiBmb250LXNpemU9IjEzIiBsZW5ndGhBZGp1c3Q9InNwYWNpbmciIHRleHRMZW5ndGg9IjQ4IiB4PSI5MTYuNSIgeT0iMjQyLjI4OTEiPm1hbmFnZXM8L3RleHQ+PC9nPjwhLS1saW5rIFJlY2VwdGlvbmlzdCB0byBQYXltZW50LS0+PGcgaWQ9ImxpbmtfUmVjZXB0aW9uaXN0X1BheW1lbnQiPjxwYXRoIGNvZGVMaW5lPSI5NSIgZD0iTTEwMjEuMTgsMTc2LjE3IEM5NDMsMTgwLjQ1IDgxMC41MiwxOTIuOTUgNzgwLjUsMjI5IEM3NzYuMjMsMjM0LjEyIDc3NS45NywyMzkuMTEgNzgwLjUsMjQ0IEM3OTYuNzIsMjYxLjQ4IDg2Ni44MywyNDAuMTEgODg3LjUsMjUyIEM5MTYuMDMsMjY4LjQxIDkzNi42MywyOTkuNjEgOTQ5Ljc3LDMyNS42ICIgZmlsbD0ibm9uZSIgaWQ9IlJlY2VwdGlvbmlzdC10by1QYXltZW50IiBzdHlsZT0ic3Ryb2tlOiMwMDAwRkY7c3Ryb2tlLXdpZHRoOjEuMDtzdHJva2UtZGFzaGFycmF5OjcuMCw3LjA7Ii8+PHBvbHlnb24gZmlsbD0iIzAwMDBGRiIgcG9pbnRzPSI5NTIuMTQsMzMwLjM4LDk1MS43MzA2LDMyMC41Mzk3LDk0OS45MjExLDMyNS44OTkzLDk0NC41NjE1LDMyNC4wODk5LDk1Mi4xNCwzMzAuMzgiIHN0eWxlPSJzdHJva2U6IzAwMDBGRjtzdHJva2Utd2lkdGg6MS4wOyIvPjx0ZXh0IGZpbGw9IiMwMDAwMDAiIGZvbnQtZmFtaWx5PSJzYW5zLXNlcmlmIiBmb250LXNpemU9IjEzIiBsZW5ndGhBZGp1c3Q9InNwYWNpbmciIHRleHRMZW5ndGg9IjExNiIgeD0iNzgxLjUiIHk9IjI0Mi4yODkxIj5nZW5lcmF0ZXMgaW52b2ljZTwvdGV4dD48L2c+PCEtLWxpbmsgUmVjZXB0aW9uaXN0IHRvIENhbmNlbGxhdGlvbi0tPjxnIGlkPSJsaW5rX1JlY2VwdGlvbmlzdF9DYW5jZWxsYXRpb24iPjxwYXRoIGNvZGVMaW5lPSI5NiIgZD0iTTEwMjEuMzUsMTc1LjA0IEM4ODAuNzUsMTc4LjE3IDUyNS43NSwxODkuODIgNDE0LjUsMjI5IEMzNjguNjEsMjQ1LjE2IDMzNC4zNywyOTAuOSAzMTQuMDIsMzI1LjY0ICIgZmlsbD0ibm9uZSIgaWQ9IlJlY2VwdGlvbmlzdC10by1DYW5jZWxsYXRpb24iIHN0eWxlPSJzdHJva2U6IzAwMDBGRjtzdHJva2Utd2lkdGg6MS4wOyIvPjxwb2x5Z29uIGZpbGw9IiMwMDAwRkYiIHBvaW50cz0iMzExLjM3LDMzMC4yNSwzMTkuMzM1LDMyNC40NTcsMzEzLjg3MDcsMzI1LjkyMDMsMzEyLjQwNzQsMzIwLjQ1NTksMzExLjM3LDMzMC4yNSIgc3R5bGU9InN0cm9rZTojMDAwMEZGO3N0cm9rZS13aWR0aDoxLjA7Ii8+PHRleHQgZmlsbD0iIzAwMDAwMCIgZm9udC1mYW1pbHk9InNhbnMtc2VyaWYiIGZvbnQtc2l6ZT0iMTMiIGxlbmd0aEFkanVzdD0ic3BhY2luZyIgdGV4dExlbmd0aD0iMTU3IiB4PSI0MTUuNSIgeT0iMjQyLjI4OTEiPnByb2Nlc3NlcyBjYW5jZWxsYXRpb25zPC90ZXh0PjwvZz48IS0tbGluayBSZWNlcHRpb25pc3QgdG8gQmxhY2tsaXN0LS0+PGcgaWQ9ImxpbmtfUmVjZXB0aW9uaXN0X0JsYWNrbGlzdCI+PHBhdGggY29kZUxpbmU9Ijk3IiBkPSJNMTAyMS40NiwxNzQuNjUgQzgzNC4zLDE3Ny4xNiAyNTQuNTIsMTg4LjE3IDE4MS41LDIyOSBDMTQzLjU4LDI1MC4yIDExNi45MywyOTIuOTUgMTAxLjA5LDMyNS41NyAiIGZpbGw9Im5vbmUiIGlkPSJSZWNlcHRpb25pc3QtdG8tQmxhY2tsaXN0IiBzdHlsZT0ic3Ryb2tlOiMwMDAwRkY7c3Ryb2tlLXdpZHRoOjEuMDsiLz48cG9seWdvbiBmaWxsPSIjMDAwMEZGIiBwb2ludHM9Ijk4LjgzLDMzMC4zLDEwNi4zMDMsMzIzLjg4NDgsMTAwLjk3NDEsMzI1Ljc4MzEsOTkuMDc1OSwzMjAuNDU0Miw5OC44MywzMzAuMyIgc3R5bGU9InN0cm9rZTojMDAwMEZGO3N0cm9rZS13aWR0aDoxLjA7Ii8+PHRleHQgZmlsbD0iIzAwMDAwMCIgZm9udC1mYW1pbHk9InNhbnMtc2VyaWYiIGZvbnQtc2l6ZT0iMTMiIGxlbmd0aEFkanVzdD0ic3BhY2luZyIgdGV4dExlbmd0aD0iMTk2IiB4PSIxODIuNSIgeT0iMjQyLjI4OTEiPm1hbmFnZXMgYmxhY2tsaXN0ZWQgY3VzdG9tZXJzPC90ZXh0PjwvZz48IS0tbGluayBTYWxlc1N0YWZmIHRvIFJvb20tLT48ZyBpZD0ibGlua19TYWxlc1N0YWZmX1Jvb20iPjxwYXRoIGNvZGVMaW5lPSI5OSIgZD0iTTEyMzguMTQsMTk3LjMxIEMxMjQ4LjkyLDIxMi42NyAxMjY0LjkxLDIzMi4wOCAxMjgzLjUsMjQ0IEMxMjk0LjM5LDI1MC45OSAxMzAwLjQ3LDI0NS4yMyAxMzExLjUsMjUyIEMxMzMwLjczLDI2My44MSAxMzQ4LjcsMjc5Ljk3IDEzNjQuMjUsMjk2LjQ5ICIgZmlsbD0ibm9uZSIgaWQ9IlNhbGVzU3RhZmYtdG8tUm9vbSIgc3R5bGU9InN0cm9rZTojMDA4MDAwO3N0cm9rZS13aWR0aDoxLjA7c3Ryb2tlLWRhc2hhcnJheTo3LjAsNy4wOyIvPjxwb2x5Z29uIGZpbGw9IiMwMDgwMDAiIHBvaW50cz0iMTM2Ny43MywzMDAuMjQsMTM2NC41MzE1LDI5MC45MjUsMTM2NC4zMjU2LDI5Ni41NzgxLDEzNTguNjcyNCwyOTYuMzcyMSwxMzY3LjczLDMwMC4yNCIgc3R5bGU9InN0cm9rZTojMDA4MDAwO3N0cm9rZS13aWR0aDoxLjA7Ii8+PHRleHQgZmlsbD0iIzAwMDAwMCIgZm9udC1mYW1pbHk9InNhbnMtc2VyaWYiIGZvbnQtc2l6ZT0iMTMiIGxlbmd0aEFkanVzdD0ic3BhY2luZyIgdGV4dExlbmd0aD0iMTA0IiB4PSIxMjg0LjUiIHk9IjI0Mi4yODkxIj5zZWFyY2hlcywgYm9va3M8L3RleHQ+PC9nPjwhLS1saW5rIFNhbGVzU3RhZmYgdG8gQ3VzdG9tZXItLT48ZyBpZD0ibGlua19TYWxlc1N0YWZmX0N1c3RvbWVyIj48cGF0aCBjb2RlTGluZT0iMTAwIiBkPSJNMTIwOC4xOCwxOTcuMTcgQzEyMDIuNjMsMjA2LjY2IDExOTYuOSwyMTcuOTggMTE5My41LDIyOSBDMTE4Ny43OSwyNDcuNDkgMTE4NC4yNywyNjcuOTYgMTE4Mi4xNCwyODcuMzkgIiBmaWxsPSJub25lIiBpZD0iU2FsZXNTdGFmZi10by1DdXN0b21lciIgc3R5bGU9InN0cm9rZTojMDA4MDAwO3N0cm9rZS13aWR0aDoxLjA7c3Ryb2tlLWRhc2hhcnJheTo3LjAsNy4wOyIvPjxwb2x5Z29uIGZpbGw9IiMwMDgwMDAiIHBvaW50cz0iMTE4MS41NywyOTIuODQsMTE4Ni40NzQ5LDI4NC4yOTk0LDExODIuMDg0NSwyODcuODY2NSwxMTc4LjUxNzMsMjgzLjQ3NjIsMTE4MS41NywyOTIuODQiIHN0eWxlPSJzdHJva2U6IzAwODAwMDtzdHJva2Utd2lkdGg6MS4wOyIvPjx0ZXh0IGZpbGw9IiMwMDAwMDAiIGZvbnQtZmFtaWx5PSJzYW5zLXNlcmlmIiBmb250LXNpemU9IjEzIiBsZW5ndGhBZGp1c3Q9InNwYWNpbmciIHRleHRMZW5ndGg9IjQ4IiB4PSIxMTk0LjUiIHk9IjI0Mi4yODkxIj5tYW5hZ2VzPC90ZXh0PjwvZz48IS0tbGluayBNYW5hZ2VyIHRvIFJvb20tLT48ZyBpZD0ibGlua19NYW5hZ2VyX1Jvb20iPjxwYXRoIGNvZGVMaW5lPSIxMDMiIGQ9Ik0xMzkxLjIsMTc4LjgyIEMxNDIyLjI2LDE4NC44NiAxNDYzLjA4LDE5OC40NyAxNDgzLjUsMjI5IEMxNDk3LjI1LDI0OS41NiAxNDkyLjYxLDI3My41NSAxNDgxLjEyLDI5NS43NyAiIGZpbGw9Im5vbmUiIGlkPSJNYW5hZ2VyLXRvLVJvb20iIHN0eWxlPSJzdHJva2U6I0ZGMDAwMDtzdHJva2Utd2lkdGg6MS4wOyIvPjxwb2x5Z29uIGZpbGw9IiNGRjAwMDAiIHBvaW50cz0iMTQ3OC43MywzMDAuMiwxNDg2LjUzNjIsMjk0LjE5NDgsMTQ4MS4xMTMzLDI5NS44MDQ1LDE0NzkuNTAzNSwyOTAuMzgxNiwxNDc4LjczLDMwMC4yIiBzdHlsZT0ic3Ryb2tlOiNGRjAwMDA7c3Ryb2tlLXdpZHRoOjEuMDsiLz48dGV4dCBmaWxsPSIjMDAwMDAwIiBmb250LWZhbWlseT0ic2Fucy1zZXJpZiIgZm9udC1zaXplPSIxMyIgbGVuZ3RoQWRqdXN0PSJzcGFjaW5nIiB0ZXh0TGVuZ3RoPSIxNDkiIHg9IjE0OTAuNSIgeT0iMjQyLjI4OTEiPmFkZHMsIHVwZGF0ZXMsIGRlbGV0ZXM8L3RleHQ+PC9nPjwhLS1saW5rIE1hbmFnZXIgdG8gUmVwb3J0TWFuYWdlci0tPjxnIGlkPSJsaW5rX01hbmFnZXJfUmVwb3J0TWFuYWdlciI+PHBhdGggY29kZUxpbmU9IjEwNCIgZD0iTTEzOTEuMTYsMTc1LjUxIEMxNDg0LjgyLDE3OS41NiAxNzEyLjg4LDE5Mi45NSAxNzc5LjUsMjI5IEMxODAyLjk5LDI0MS43MSAxODIzLjg3LDI2MS4wOCAxODQxLjMyLDI4MS4zNyAiIGZpbGw9Im5vbmUiIGlkPSJNYW5hZ2VyLXRvLVJlcG9ydE1hbmFnZXIiIHN0eWxlPSJzdHJva2U6I0ZGMDAwMDtzdHJva2Utd2lkdGg6MS4wOyIvPjxwb2x5Z29uIGZpbGw9IiNGRjAwMDAiIHBvaW50cz0iMTg0NC43NiwyODUuNDQsMTg0MS45OTg1LDI3NS45ODYyLDE4NDEuNTI5NiwyODEuNjIzNiwxODM1Ljg5MjMsMjgxLjE1NDgsMTg0NC43NiwyODUuNDQiIHN0eWxlPSJzdHJva2U6I0ZGMDAwMDtzdHJva2Utd2lkdGg6MS4wOyIvPjx0ZXh0IGZpbGw9IiMwMDAwMDAiIGZvbnQtZmFtaWx5PSJzYW5zLXNlcmlmIiBmb250LXNpemU9IjEzIiBsZW5ndGhBZGp1c3Q9InNwYWNpbmciIHRleHRMZW5ndGg9IjEwMyIgeD0iMTgwMC41IiB5PSIyNDIuMjg5MSI+bWFuYWdlcyByZXBvcnRzPC90ZXh0PjwvZz48IS0tU1JDPVtaTFJSSmptbTQ3dEZMclptcWdoMDFxSkxJY0xSMlFHTXEyeHowQXlwMTZpVEVfWW9STEpydHBqRXg2cFlVOVUtODdCY3BFc0NQdTBBZU51cl8zVU5UTTdzTkJQS3F1UXFiRXJmM0xsUjJJMFFjQU1vNWIxT3JIQWhvNHZQZ25mSVNNX1hJWFA1dTlFQmRtUXFrSTFfMmFBT2VDUUdFc0wxUjJyelVIY1gzSjFlbEh5dFRXSXRMODJQeXR2R1lKNXJ5TlNJX3ZrcXQ3OU9ma1lfMlJhY2FaUEdhZ3RMbGdDMWViTWJtUFc0RFBSZzNSSzhiOEhCNnowQTNERXlCb19YeW1PaG0yM1ZpVXBGV3NNNTlnbmtSNG9YQWg0RVpIeUZoamMxSms5dW10Rk5mYU5rZzg0ZHBIZFliTjh4TDNrSzJWZzB3M0JuRXpNUU13TnNLOUt1QklNMG9kY2ZRc1RtWEEzN1NkY0wxZ1dvSFJ1dThIeC1MLTNzTEtkOEljMVFPOW9BM1JtdkMzUlY2ZlFEcHg2RW5qbFhDcjR5ZTNGSG90dUUwTTJYcHRCaUUxZlVXVXRsdkxUZ2lIZF9TdWVfRWhpbU02TWYtRDhlOS1zOTJRclZnUXd6dWFDdDBwZzBpUWNNVFdyOFV1UzRmUmwwVjFoMGZCTVBfelhXbzlNUFdQRlNQZzNTYXRmcHJBekhEdHR0LVZPY3pPR2ducWdnTDIyd1Q0UnRDMlUxMm9vbXNUeHpFOVJ4d1FqM2M0ZTZPWUJ6NjYzVE1tSnJCcHQ0MjAtYVo4X1dkR1dSUTlNc3VRUnE4SndINllIZVA2dFcwREIxR0JkamRkYTM3cHdVT19XTnpaeDNCcjNBR2xZSENUVFlkVHN2VjNiVUJraWZOWVB0dDgyV3J2ZGk5dlhSdkpKcE4xSnJVRFY5elZMZ1RqRjl2S3V1STFkNzBxeWtRbXFXS3E4U3BRTTZnWVhjME16a0xrN0F6dzU5SVBnVVI0V24ySmpYekdjRWoyQjZkYjBtb3VJbUlEVlZ5ZlpEMERMdTYzQXFVODBZYXNiMF9TbUxTTXFyXzVBMTA5anA3S3ptcWpFSTZMU2w0a0VPM0V4bEdVNS1wcnN5Y0JEellOd2pMZFljM0ZnbllUYWlsT19oY2tnelluUEtCb3duQVQ4ZjNFQjU4S0pyaGxnTERJZHZnNEN3ak41aWxnUmlzQVE0OFViV25wejhrSGRDd0JEeEM4LUJfXzl1ZV9hN10tLT48L2c+PC9zdmc+;fontSize=14;" vertex="1" parent="1">
            <mxGeometry x="258.99" y="180" width="1582.32" height="360" as="geometry" />
          </mxCell>
        </UserObject>
      </root>
    </mxGraphModel>
  </diagram>
</mxfile>
